# Blender v3.3.0 OBJ File: ''
# www.blender.org
mtllib tower.mtl
o Cube.009
v 1.665886 -1.000000 -1.388110
v 1.665886 -1.000000 -1.597001
v 1.665886 4.422976 -1.596999
v 1.665886 4.422976 -1.388108
v 1.390241 -1.000000 -1.597001
v 1.390241 -1.000000 -1.388110
v 1.665886 -1.000000 1.619963
v 1.390241 -1.000000 1.619963
v 1.390241 -1.000000 1.422466
v 1.665886 -1.000000 1.422466
v 1.390241 4.422976 1.619965
v 1.665886 4.422976 1.619965
v 1.665886 4.422976 1.422468
v 1.390241 4.422976 1.422468
v 1.390241 4.422976 -1.388108
v 1.390241 4.422976 -1.596999
v 0.000000 5.332813 0.000002
v -1.642924 4.422976 -1.596999
v -1.642924 4.422976 1.619965
v -1.642924 2.344654 1.619963
v -1.642924 2.609389 1.619964
v -1.642924 2.609389 -1.597000
v -1.642924 2.344654 -1.597001
v 1.665886 2.609389 -1.597000
v 1.665886 2.344654 -1.597001
v 1.665886 2.609389 1.619964
v 1.665886 2.344654 1.619963
v -1.642924 3.321477 1.619964
v -1.642924 3.321477 -1.597000
v -1.446375 2.607150 -1.400452
v 1.469337 2.607150 -1.400452
v 1.469337 3.319238 -1.400451
v -1.446375 3.319238 -1.400451
v 1.469337 2.607150 1.423414
v -1.446375 2.607150 1.423414
v -1.446375 3.319238 1.423415
v 1.469337 3.319238 1.423415
v 1.665886 3.321477 -1.597000
v 1.665886 3.321477 1.619964
v -1.642924 -1.000000 -1.388110
v -1.642924 4.422976 -1.388108
v -1.642924 -1.000000 -1.597001
v -1.367279 -1.000000 -1.597001
v -1.367279 -1.000000 -1.388110
v -1.642924 -1.000000 1.619963
v -1.642924 -1.000000 1.422466
v -1.367279 -1.000000 1.422466
v -1.367279 -1.000000 1.619963
v -1.367279 4.422976 1.619965
v -1.367279 4.422976 1.422468
v -1.642924 4.422976 1.422468
v -1.367279 4.422976 -1.596999
v -1.367279 4.422976 -1.388108
v 1.665886 2.344654 1.619963
v 1.665886 2.344654 -1.597001
v 1.665886 2.609389 -1.597000
v 1.665886 2.609389 1.619964
v -1.642924 2.344654 -1.597001
v -1.642924 2.609389 -1.597000
v -1.642924 2.344654 1.619963
v -1.642924 2.609389 1.619964
v 1.665886 3.321477 -1.597000
v 1.665886 3.321477 1.619964
v 1.469337 2.607150 -1.400452
v 1.469337 3.319238 -1.400451
v -1.446375 3.319238 -1.400451
v -1.446375 2.607150 -1.400452
v -1.446375 2.607150 1.423414
v -1.446375 3.319238 1.423415
v 1.469337 3.319238 1.423415
v 1.469337 2.607150 1.423414
v -1.642924 3.321477 1.619964
v -1.642924 3.321477 -1.597000
vt 0.375000 0.500000
vt 0.375000 0.500000
vt 0.625000 0.500000
vt 0.625000 0.500000
vt 0.375000 0.500000
vt 0.375000 0.500000
vt 0.375000 0.750000
vt 0.375000 0.750000
vt 0.375000 0.750000
vt 0.375000 0.750000
vt 0.625000 0.750000
vt 0.625000 0.750000
vt 0.625000 0.750000
vt 0.625000 0.750000
vt 0.625000 0.500000
vt 0.625000 0.500000
vt 0.375000 0.000000
vt 0.625000 0.000000
vt 0.625000 0.250000
vt 0.375000 0.250000
vt 0.625000 0.500000
vt 0.375000 0.500000
vt 0.625000 0.750000
vt 0.375000 0.750000
vt 0.625000 1.000000
vt 0.375000 1.000000
vt 0.625000 0.000000
vt 0.625000 0.250000
vt 0.875000 0.500000
vt 0.625000 0.500000
vt 0.625000 0.500000
vt 0.875000 0.500000
vt 0.625000 0.750000
vt 0.875000 0.750000
vt 0.875000 0.750000
vt 0.625000 0.750000
vt 0.625000 0.500000
vt 0.625000 0.750000
vt 0.625000 1.000000
vt 0.625000 1.000000
vt 0.625000 0.250000
vt 0.625000 0.000000
vt 0.375000 0.500000
vt 0.625000 0.500000
vt 0.625000 0.500000
vt 0.375000 0.500000
vt 0.375000 0.500000
vt 0.375000 0.500000
vt 0.375000 0.750000
vt 0.375000 0.750000
vt 0.375000 0.750000
vt 0.375000 0.750000
vt 0.625000 0.750000
vt 0.625000 0.750000
vt 0.625000 0.750000
vt 0.625000 0.750000
vt 0.625000 0.500000
vt 0.625000 0.500000
vt 0.375000 0.000000
vt 0.375000 0.250000
vt 0.625000 0.250000
vt 0.625000 0.000000
vt 0.375000 0.500000
vt 0.625000 0.500000
vt 0.375000 0.750000
vt 0.625000 0.750000
vt 0.375000 1.000000
vt 0.625000 1.000000
vt 0.625000 0.250000
vt 0.625000 0.000000
vt 0.875000 0.500000
vt 0.875000 0.500000
vt 0.625000 0.500000
vt 0.625000 0.500000
vt 0.625000 0.750000
vt 0.625000 0.750000
vt 0.875000 0.750000
vt 0.875000 0.750000
vt 0.625000 0.750000
vt 0.625000 0.500000
vt 0.625000 1.000000
vt 0.625000 1.000000
vt 0.625000 0.250000
vt 0.625000 0.000000
vt 0.000000 0.000000
vt 0.000000 0.000000
vt 0.000000 0.000000
vt 0.000000 0.000000
vt 0.000000 0.000000
vn 1.0000 0.0000 0.0000
vn 0.0000 -1.0000 0.0000
vn 0.0000 1.0000 0.0000
vn 0.0000 -0.0000 1.0000
vn -1.0000 -0.0000 0.0000
vn 0.0000 0.0000 -1.0000
vn 0.0000 0.9999 -0.0114
vn 0.0000 0.9999 0.0114
vn -0.0114 0.9999 0.0000
vn 0.0114 0.9999 0.0000
vn -0.4845 0.8748 0.0000
vn 0.4793 0.8776 0.0000
vn 0.0000 0.8689 -0.4950
vn 0.0000 0.8719 0.4897
usemtl Material.008
s 1
f 1/1/1 2/2/1 3/3/1 4/4/1
f 5/5/2 2/2/2 1/1/2 6/6/2
f 7/7/2 8/8/2 9/9/2 10/10/2
f 11/11/3 12/12/3 13/13/3 14/14/3
f 8/8/4 7/7/4 12/12/4 11/11/4
f 10/10/1 13/13/1 12/12/1 7/7/1
f 6/6/5 15/15/5 16/16/5 5/5/5
f 3/3/3 16/16/3 15/15/3 4/4/3
f 5/5/6 16/16/6 3/3/6 2/2/6
f 9/9/6 14/14/6 13/13/6 10/10/6
f 6/6/4 1/1/4 4/4/4 15/15/4
f 9/9/5 8/8/5 11/11/5 14/14/5
f 20/17/5 21/18/5 22/19/5 23/20/5
f 23/20/6 22/19/6 24/21/6 25/22/6
f 25/22/1 24/21/1 26/23/1 27/24/1
f 27/24/4 26/23/4 21/25/4 20/26/4
f 22/19/5 21/18/5 28/27/5 29/28/5
f 30/29/4 31/30/4 32/31/4 33/32/4
f 34/33/6 35/34/6 36/35/6 37/36/6
f 26/23/1 24/21/1 38/37/1 39/38/1
f 28/39/7 39/38/7 37/36/7 36/40/7
f 38/37/8 29/28/8 33/41/8 32/31/8
f 39/38/9 38/37/9 32/31/9 37/36/9
f 29/28/10 28/27/10 36/42/10 33/41/10
f 21/25/4 26/23/4 39/38/4 28/39/4
f 24/21/6 22/19/6 29/28/6 38/37/6
f 31/30/5 34/33/5 37/36/5 32/31/5
f 35/34/1 30/29/1 33/32/1 36/35/1
f 40/43/5 41/44/5 18/45/5 42/46/5
f 43/47/2 44/48/2 40/43/2 42/46/2
f 45/49/2 46/50/2 47/51/2 48/52/2
f 49/53/3 50/54/3 51/55/3 19/56/3
f 48/52/4 49/53/4 19/56/4 45/49/4
f 46/50/5 45/49/5 19/56/5 51/55/5
f 44/48/1 43/47/1 52/57/1 53/58/1
f 18/45/3 41/44/3 53/58/3 52/57/3
f 43/47/6 42/46/6 18/45/6 52/57/6
f 47/51/6 46/50/6 51/55/6 50/54/6
f 44/48/4 53/58/4 41/44/4 40/43/4
f 47/51/1 50/54/1 49/53/1 48/52/1
f 54/59/1 55/60/1 56/61/1 57/62/1
f 55/60/6 58/63/6 59/64/6 56/61/6
f 58/63/5 60/65/5 61/66/5 59/64/5
f 60/65/4 54/67/4 57/68/4 61/66/4
f 56/61/1 62/69/1 63/70/1 57/62/1
f 64/71/4 65/72/4 66/73/4 67/74/4
f 68/75/6 69/76/6 70/77/6 71/78/6
f 61/66/5 72/79/5 73/80/5 59/64/5
f 63/81/7 70/82/7 69/76/7 72/79/7
f 73/80/8 66/73/8 65/83/8 62/69/8
f 72/79/10 69/76/10 66/73/10 73/80/10
f 62/69/9 65/83/9 70/84/9 63/70/9
f 57/68/4 63/81/4 72/79/4 61/66/4
f 59/64/6 73/80/6 62/69/6 56/61/6
f 67/74/1 66/73/1 69/76/1 68/75/1
f 71/78/5 70/77/5 65/72/5 64/71/5
f 71/78/3 64/71/3 67/74/3 68/75/3 34/33/3 35/34/3
usemtl Material.009
f 17/85/11 18/86/11 19/87/11
f 3/88/12 17/85/12 12/89/12
f 3/88/13 18/86/13 17/85/13
f 17/85/14 19/87/14 12/89/14
