# Blender v3.3.0 OBJ File: ''
# www.blender.org
mtllib tower.mtl
o Cube.001
v 1.665886 -1.000000 -1.388110
v 1.665886 -1.000000 -1.597001
v 1.665886 4.422976 -1.596996
v 1.665886 4.422976 -1.388105
v 1.390241 -1.000000 -1.597001
v 1.390241 -1.000000 -1.388110
v 1.665886 -1.000000 1.619963
v 1.390241 -1.000000 1.619963
v 1.390241 -1.000000 1.422466
v 1.665886 -1.000000 1.422466
v 1.390241 4.422976 1.619968
v 1.665886 4.422976 1.619968
v 1.665886 4.422976 1.422471
v 1.390241 4.422976 1.422471
v 1.390241 4.422976 -1.388105
v 1.390241 4.422976 -1.596996
v -1.716437 1.180444 -1.668473
v -1.716437 1.180444 1.691437
v -1.703471 3.302109 1.678832
v -1.703471 3.302109 -1.655865
v -1.446375 2.817974 -1.400452
v 1.469337 2.817974 -1.400452
v 1.469337 3.529253 -1.400449
v -1.446375 3.529253 -1.400449
v 1.469337 2.817974 1.423414
v -1.446375 2.817974 1.423414
v -1.446375 3.529253 1.423417
v 1.469337 3.529253 1.423417
v 1.739399 1.180444 1.691437
v 1.739399 1.180444 -1.668473
v 1.726433 3.302109 -1.655865
v 1.726433 3.302109 1.678832
v -1.642924 -1.000000 -1.388110
v -1.642924 4.422976 -1.388105
v -1.642924 4.422976 -1.596996
v -1.642924 -1.000000 -1.597001
v -1.367279 -1.000000 -1.597001
v -1.367279 -1.000000 -1.388110
v -1.642924 -1.000000 1.619963
v -1.642924 -1.000000 1.422466
v -1.367279 -1.000000 1.422466
v -1.367279 -1.000000 1.619963
v -1.367279 4.422976 1.619968
v -1.367279 4.422976 1.422471
v -1.642924 4.422976 1.422471
v -1.642924 4.422976 1.619968
v -1.367279 4.422976 -1.596996
v -1.367279 4.422976 -1.388105
v 1.469337 2.817974 1.423414
v 1.469337 2.817974 -1.400452
v -1.446375 2.817974 -1.400452
v -1.446375 2.817974 1.423414
v 0.011481 6.456080 0.011486
v 1.881736 4.065343 -1.804799
v -1.856697 4.065343 -1.804799
v 1.881736 4.065341 1.829863
v -1.856697 4.065341 1.829863
v 1.469337 3.529253 -1.400449
v -1.446375 3.529253 -1.400449
v 1.732916 2.774770 1.685135
v -1.709954 2.774770 1.685135
v 1.732916 2.774770 -1.662169
v 1.469337 3.529253 1.423417
v -1.446375 3.529253 1.423417
v -1.709954 2.774770 -1.662169
vt 0.375000 0.500000
vt 0.375000 0.500000
vt 0.625000 0.500000
vt 0.625000 0.500000
vt 0.375000 0.500000
vt 0.375000 0.500000
vt 0.375000 0.750000
vt 0.375000 0.750000
vt 0.375000 0.750000
vt 0.375000 0.750000
vt 0.625000 0.750000
vt 0.625000 0.750000
vt 0.625000 0.750000
vt 0.625000 0.750000
vt 0.625000 0.500000
vt 0.625000 0.500000
vt 0.875000 0.500000
vt 0.625000 0.500000
vt 0.625000 0.500000
vt 0.875000 0.500000
vt 0.625000 0.750000
vt 0.875000 0.750000
vt 0.875000 0.750000
vt 0.625000 0.750000
vt 0.625000 1.000000
vt 0.625000 0.750000
vt 0.625000 1.000000
vt 0.625000 0.500000
vt 0.625000 0.250000
vt 0.625000 0.250000
vt 0.625000 0.000000
vt 0.625000 0.000000
vt 0.375000 0.500000
vt 0.625000 0.500000
vt 0.625000 0.500000
vt 0.375000 0.500000
vt 0.375000 0.500000
vt 0.375000 0.500000
vt 0.375000 0.750000
vt 0.375000 0.750000
vt 0.375000 0.750000
vt 0.375000 0.750000
vt 0.625000 0.750000
vt 0.625000 0.750000
vt 0.625000 0.750000
vt 0.625000 0.750000
vt 0.625000 0.500000
vt 0.625000 0.500000
vt 0.875000 0.750000
vt 0.875000 0.500000
vt 0.625000 0.500000
vt 0.625000 0.750000
vt 0.625000 0.500000
vt 0.625000 0.250000
vt 0.625000 0.250000
vt 0.625000 0.500000
vt 0.625000 1.000000
vt 0.625000 0.750000
vt 0.625000 0.750000
vt 0.625000 1.000000
vt 0.625000 0.000000
vt 0.625000 0.000000
vt 0.000000 0.000000
vt 0.000000 0.000000
vt 0.000000 0.000000
vt 0.000000 0.000000
vt 0.000000 0.000000
vt 0.000000 0.000000
vt 0.000000 0.000000
vt 0.000000 0.000000
vt 0.000000 0.000000
vn 1.0000 -0.0000 0.0000
vn 0.0000 -1.0000 0.0000
vn 0.0000 1.0000 0.0000
vn 0.0000 -0.0000 1.0000
vn -1.0000 -0.0000 0.0000
vn 0.0000 0.0000 -1.0000
vn 0.0000 0.7473 0.6645
vn 0.0000 0.7473 -0.6645
vn 0.6621 0.7494 0.0000
vn -0.6621 0.7494 0.0000
vn 0.0000 0.0040 -1.0000
vn 0.0000 0.0079 -1.0000
vn 0.0000 0.0040 1.0000
vn 0.0000 0.0079 1.0000
vn 1.0000 0.0041 0.0000
vn 1.0000 0.0082 0.0000
vn -1.0000 0.0041 0.0000
vn -1.0000 0.0082 0.0000
vn 0.7756 0.6312 0.0000
vn 0.0000 0.6205 -0.7842
vn -0.7756 0.6312 0.0000
vn 0.0000 0.6205 0.7842
vn 0.0000 0.5024 -0.8646
vn 0.8561 0.5167 0.0000
vn 0.0000 0.5062 0.8624
vn -0.8583 0.5131 0.0000
vn -0.9999 0.0123 0.0000
vn 0.9999 0.0123 0.0000
vn 0.0000 0.0120 0.9999
vn 0.0000 0.0120 -0.9999
usemtl Material.002
s 1
f 1/1/1 2/2/1 3/3/1 4/4/1
f 5/5/2 2/2/2 1/1/2 6/6/2
f 7/7/2 8/8/2 9/9/2 10/10/2
f 11/11/3 12/12/3 13/13/3 14/14/3
f 8/8/4 7/7/4 12/12/4 11/11/4
f 10/10/1 13/13/1 12/12/1 7/7/1
f 6/6/5 15/15/5 16/16/5 5/5/5
f 3/3/3 16/16/3 15/15/3 4/4/3
f 5/5/6 16/16/6 3/3/6 2/2/6
f 9/9/6 14/14/6 13/13/6 10/10/6
f 6/6/4 1/1/4 4/4/4 15/15/4
f 9/9/5 8/8/5 11/11/5 14/14/5
f 21/17/4 22/18/4 23/19/4 24/20/4
f 25/21/6 26/22/6 27/23/6 28/24/6
f 19/25/7 32/26/7 28/24/7 27/27/7
f 31/28/8 20/29/8 24/30/8 23/19/8
f 32/26/9 31/28/9 23/19/9 28/24/9
f 20/29/10 19/31/10 27/32/10 24/30/10
f 22/18/5 25/21/5 28/24/5 23/19/5
f 26/22/1 21/17/1 24/20/1 27/23/1
f 33/33/5 34/34/5 35/35/5 36/36/5
f 37/37/2 38/38/2 33/33/2 36/36/2
f 39/39/2 40/40/2 41/41/2 42/42/2
f 43/43/3 44/44/3 45/45/3 46/46/3
f 42/42/4 43/43/4 46/46/4 39/39/4
f 40/40/5 39/39/5 46/46/5 45/45/5
f 38/38/1 37/37/1 47/47/1 48/48/1
f 35/35/3 34/34/3 48/48/3 47/47/3
f 37/37/6 36/36/6 35/35/6 47/47/6
f 41/41/6 40/40/6 45/45/6 44/44/6
f 38/38/4 48/48/4 34/34/4 33/33/4
f 41/41/1 44/44/1 43/43/1 42/42/1
f 49/49/3 50/50/3 51/51/3 52/52/3 25/21/3 26/22/3
f 30/53/11 17/54/11 65/55/12 62/56/12
f 18/57/13 29/58/13 60/59/14 61/60/14
f 29/58/15 30/53/15 62/56/16 60/59/16
f 17/54/17 18/61/17 61/62/18 65/55/18
usemtl Material.005
s off
f 12/63/19 3/64/19 53/65/19
f 35/66/20 53/65/20 3/64/20
f 46/67/21 53/65/21 35/66/21
f 46/67/22 12/63/22 53/65/22
f 35/66/23 3/64/23 54/68/23 55/69/23
f 3/64/24 12/63/24 56/70/24 54/68/24
f 12/63/25 46/67/25 57/71/25 56/70/25
f 46/67/26 35/66/26 55/69/26 57/71/26
usemtl Material.006
s 1
f 65/55/18 61/62/18 19/31/27 20/29/27
f 60/59/16 62/56/16 31/28/28 32/26/28
f 61/60/14 60/59/14 32/26/29 19/25/29
f 62/56/12 65/55/12 20/29/30 31/28/30
l 52 64
l 52 49
l 59 51
l 58 63
l 63 49
l 59 64
l 50 58
l 58 59
l 64 63
