# Blender v3.3.1 OBJ File: ''
# www.blender.org
mtllib town_hall.mtl
o Cube.001
v 1.665886 3.202411 -1.388110
v 1.665886 3.202411 -1.597001
v 1.665886 6.099456 -1.596999
v 1.665886 6.099456 -1.388108
v 1.390241 3.202411 -1.597001
v 1.390241 3.202411 -1.388110
v 1.665886 3.202411 1.619963
v 1.390241 3.202411 1.619963
v 1.390241 3.202411 1.422466
v 1.665886 3.202411 1.422466
v 1.390241 6.099455 1.619965
v 1.665886 6.099455 1.619965
v 1.665886 6.099456 1.422468
v 1.390241 6.099456 1.422468
v 1.390241 6.099456 -1.388108
v 1.390241 6.099456 -1.596999
v 0.000000 7.009293 0.000002
v -1.642924 6.099456 -1.596999
v -1.642924 6.099455 1.619965
v -1.642924 3.290297 1.619963
v -1.642924 4.285869 1.619964
v -1.642924 4.285870 -1.597000
v -1.642924 3.290298 -1.597001
v 1.665886 4.285870 -1.597000
v 1.665886 3.290298 -1.597001
v 1.665886 4.285869 1.619964
v 1.665886 3.290297 1.619963
v -1.642924 4.997957 1.619964
v -1.642924 4.997958 -1.597000
v -1.446375 4.283630 -1.400452
v 1.469337 4.283630 -1.400452
v 1.469337 4.995718 -1.400451
v -1.446375 4.995718 -1.400451
v 1.469337 4.283630 1.423414
v -1.446375 4.283630 1.423414
v -1.446375 4.995718 1.423415
v 1.469337 4.995718 1.423415
v 1.665886 4.997958 -1.597000
v 1.665886 4.997957 1.619964
v -1.642924 3.202411 -1.388110
v -1.642924 6.099456 -1.388108
v -1.642924 3.202411 -1.597001
v -1.367279 3.202411 -1.597001
v -1.367279 3.202411 -1.388110
v -1.642924 3.202411 1.619963
v -1.642924 3.202411 1.422466
v -1.367279 3.202411 1.422466
v -1.367279 3.202411 1.619963
v -1.367279 6.099455 1.619965
v -1.367279 6.099456 1.422468
v -1.642924 6.099456 1.422468
v -1.367279 6.099456 -1.596999
v -1.367279 6.099456 -1.388108
v 1.665886 3.290297 1.619963
v 1.665886 3.290298 -1.597001
v 1.665886 4.285870 -1.597000
v 1.665886 4.285869 1.619964
v -1.642924 3.290298 -1.597001
v -1.642924 4.285870 -1.597000
v -1.642924 3.290297 1.619963
v -1.642924 4.285869 1.619964
v 1.665886 4.997958 -1.597000
v 1.665886 4.997957 1.619964
v 1.469337 4.283630 -1.400452
v 1.469337 4.995718 -1.400451
v -1.446375 4.995718 -1.400451
v -1.446375 4.283630 -1.400452
v -1.446375 4.283630 1.423414
v -1.446375 4.995718 1.423415
v 1.469337 4.995718 1.423415
v 1.469337 4.283630 1.423414
v -1.642924 4.997957 1.619964
v -1.642924 4.997958 -1.597000
v 1.665886 -0.642731 -1.388111
v 1.665886 -0.642731 -1.597002
v 1.390241 -0.642731 -1.597002
v 1.390241 -0.642731 -1.388111
v 1.665886 -0.642731 1.619962
v 1.665886 -0.642731 1.422465
v -1.642924 -0.642731 -1.597002
v -1.367279 -0.642731 -1.597002
v -1.642924 -0.642731 1.619962
v 1.665886 3.202410 5.994860
v 1.390241 3.202410 5.994860
v -1.642924 3.202410 5.994860
v -1.367279 3.202410 5.994860
v 1.665886 -0.642732 5.994860
v 1.390241 -0.642732 5.994860
v -1.642924 -0.642732 5.994860
v -1.367279 -0.642732 5.994860
v -6.230287 3.202411 1.619963
v -6.230287 3.202411 1.422466
v -6.230287 3.202411 -1.388110
v -6.230287 3.202411 -1.597001
v -6.230287 -0.642731 1.619962
v -6.230287 -0.642731 1.422465
v -6.230287 -0.642731 -1.388111
v -6.230287 -0.642731 -1.597002
v 0.011481 4.799101 4.984551
v 0.011481 4.799101 1.619963
v -4.976868 4.791863 0.017178
v -1.642924 4.791863 0.017178
vt 0.375000 0.500000
vt 0.375000 0.500000
vt 0.625000 0.500000
vt 0.625000 0.500000
vt 0.375000 0.500000
vt 0.375000 0.500000
vt 0.375000 0.500000
vt 0.375000 0.500000
vt 0.375000 0.500000
vt 0.375000 0.500000
vt 0.375000 0.500000
vt 0.625000 0.750000
vt 0.625000 0.750000
vt 0.625000 0.750000
vt 0.625000 0.750000
vt 0.375000 0.750000
vt 0.375000 0.750000
vt 0.375000 0.750000
vt 0.375000 0.500000
vt 0.625000 0.500000
vt 0.625000 0.500000
vt 0.375000 0.750000
vt 0.000000 0.000000
vt 0.000000 0.000000
vt 0.000000 0.000000
vt 0.000000 0.000000
vt 0.000000 0.000000
vt 0.375000 0.000000
vt 0.625000 0.000000
vt 0.625000 0.250000
vt 0.375000 0.250000
vt 0.625000 0.500000
vt 0.375000 0.500000
vt 0.625000 0.750000
vt 0.375000 0.750000
vt 0.625000 1.000000
vt 0.375000 1.000000
vt 0.625000 0.000000
vt 0.625000 0.250000
vt 0.875000 0.500000
vt 0.625000 0.500000
vt 0.625000 0.500000
vt 0.875000 0.500000
vt 0.625000 0.750000
vt 0.875000 0.750000
vt 0.875000 0.750000
vt 0.625000 0.750000
vt 0.625000 0.500000
vt 0.625000 0.750000
vt 0.625000 1.000000
vt 0.625000 1.000000
vt 0.625000 0.250000
vt 0.625000 0.000000
vt 0.375000 0.500000
vt 0.625000 0.500000
vt 0.625000 0.500000
vt 0.375000 0.750000
vt 0.375000 0.750000
vt 0.375000 0.750000
vt 0.375000 0.750000
vt 0.375000 0.750000
vt 0.375000 0.750000
vt 0.625000 0.750000
vt 0.625000 0.750000
vt 0.625000 0.750000
vt 0.625000 0.750000
vt 0.375000 0.750000
vt 0.375000 0.500000
vt 0.375000 0.500000
vt 0.625000 0.500000
vt 0.625000 0.500000
vt 0.375000 0.750000
vt 0.375000 0.000000
vt 0.375000 0.250000
vt 0.625000 0.250000
vt 0.625000 0.000000
vt 0.375000 0.500000
vt 0.625000 0.500000
vt 0.375000 0.750000
vt 0.625000 0.750000
vt 0.375000 1.000000
vt 0.625000 1.000000
vt 0.625000 0.250000
vt 0.625000 0.000000
vt 0.875000 0.500000
vt 0.875000 0.500000
vt 0.625000 0.500000
vt 0.625000 0.500000
vt 0.625000 0.750000
vt 0.625000 0.750000
vt 0.875000 0.750000
vt 0.875000 0.750000
vt 0.625000 0.750000
vt 0.625000 0.500000
vt 0.625000 1.000000
vt 0.625000 1.000000
vt 0.625000 0.250000
vt 0.625000 0.000000
vt 0.375000 0.500000
vt 0.375000 0.500000
vt 0.375000 0.500000
vt 0.375000 0.750000
vt 0.375000 0.750000
vt 0.375000 0.750000
vt 0.375000 0.750000
vt 0.375000 0.750000
vt 0.375000 0.750000
vt 0.375000 0.750000
vt 0.375000 0.500000
vt 0.375000 0.500000
vt 0.375000 0.750000
vt 0.375000 0.750000
vt 0.375000 0.750000
vt 0.375000 0.750000
vt 0.000000 0.000000
vt 0.000000 0.000000
vt 0.000000 0.000000
vt 0.000000 0.000000
vt 0.000000 0.000000
vt 0.000000 0.000000
vn 1.0000 0.0000 0.0000
vn -0.7071 0.0000 -0.7071
vn 0.7071 0.0000 -0.7071
vn 0.0000 0.4472 -0.8944
vn 0.0000 -0.4472 -0.8944
vn -0.5772 -0.5773 -0.5775
vn -0.5774 0.5774 -0.5774
vn 0.0000 1.0000 0.0000
vn 0.0000 -0.0000 1.0000
vn -1.0000 -0.0000 0.0000
vn 0.0000 0.0000 -1.0000
vn -0.4845 0.8748 0.0000
vn 0.4793 0.8776 0.0000
vn 0.0000 0.9999 -0.0114
vn 0.0000 0.9999 0.0114
vn -0.0114 0.9999 0.0000
vn 0.0114 0.9999 0.0000
vn 0.7071 -0.0003 -0.7071
vn 0.8944 0.4472 0.0000
vn 0.8944 -0.4472 0.0000
vn -0.5570 0.6393 -0.5301
vn -0.4082 0.8165 0.4082
vn -0.5774 0.5774 0.5774
vn -0.9350 0.2059 0.2886
vn 0.0000 0.8689 -0.4950
vn 0.0000 0.8719 0.4897
vn 0.0000 -1.0000 0.0000
vn 0.7071 0.0003 -0.7071
vn 0.7071 -0.0000 0.7071
vn -0.7071 -0.0000 0.7071
vn -0.5773 -0.5773 0.5775
vn -0.4083 -0.7071 0.5774
vn 0.5774 0.5774 0.5774
vn 0.9350 0.2059 0.2886
vn 0.4083 -0.7071 0.5774
vn 0.5775 -0.5773 0.5773
vn -0.4083 -0.8165 0.4082
vn 0.5570 0.6394 -0.5301
vn 0.2639 -0.1933 -0.9450
vn -0.5774 -0.7071 -0.4083
vn 0.2639 -0.1933 0.9450
vn -0.5774 -0.7071 0.4083
vn -0.5775 -0.5773 0.5773
vn 0.5348 0.6407 -0.5509
vn 0.5348 0.6407 0.5509
vn -0.2600 0.9656 0.0000
vn 0.0000 0.9519 0.3063
usemtl Material.001
s 1
f 1/1/1 2/2/1 3/3/1 4/4/1
f 5/5/2 2/2/3 75/6/3 76/7/2
f 42/8/4 80/9/5 98/10/6 94/11/7
f 11/12/8 12/13/8 13/14/8 14/15/8
f 8/16/9 7/17/9 12/13/9 11/12/9
f 10/18/1 13/14/1 12/13/1 7/17/1
f 6/19/10 15/20/10 16/21/10 5/5/10
f 3/3/8 16/21/8 15/20/8 4/4/8
f 5/5/11 16/21/11 3/3/11 2/2/11
f 9/22/11 14/15/11 13/14/11 10/18/11
f 17/23/12 18/24/12 19/25/12
f 3/26/13 17/23/13 12/27/13
f 6/19/9 1/1/9 4/4/9 15/20/9
f 9/22/10 8/16/10 11/12/10 14/15/10
f 20/28/10 21/29/10 22/30/10 23/31/10
f 23/31/11 22/30/11 24/32/11 25/33/11
f 25/33/1 24/32/1 26/34/1 27/35/1
f 27/35/9 26/34/9 21/36/9 20/37/9
f 22/30/10 21/29/10 28/38/10 29/39/10
f 30/40/9 31/41/9 32/42/9 33/43/9
f 34/44/11 35/45/11 36/46/11 37/47/11
f 26/34/1 24/32/1 38/48/1 39/49/1
f 28/50/14 39/49/14 37/47/14 36/51/14
f 38/48/15 29/39/15 33/52/15 32/42/15
f 39/49/16 38/48/16 32/42/16 37/47/16
f 29/39/17 28/38/17 36/53/17 33/52/17
f 21/36/9 26/34/9 39/49/9 28/50/9
f 24/32/11 22/30/11 29/39/11 38/48/11
f 31/41/10 34/44/10 37/47/10 32/42/10
f 35/45/1 30/40/1 33/43/1 36/46/1
f 40/54/10 41/55/10 18/56/10 42/8/10
f 10/18/18 7/17/19 78/57/20 79/58/3
f 48/59/21 45/60/22 85/61/23 86/62/24
f 49/63/8 50/64/8 51/65/8 19/66/8
f 48/59/9 49/63/9 19/66/9 45/60/9
f 46/67/10 45/60/10 19/66/10 51/65/10
f 44/68/1 43/69/1 52/70/1 53/71/1
f 18/56/8 41/55/8 53/71/8 52/70/8
f 43/69/11 42/8/11 18/56/11 52/70/11
f 47/72/11 46/67/11 51/65/11 50/64/11
f 3/26/25 18/24/25 17/23/25
f 44/68/9 53/71/9 41/55/9 40/54/9
f 47/72/1 50/64/1 49/63/1 48/59/1
f 54/73/1 55/74/1 56/75/1 57/76/1
f 55/74/11 58/77/11 59/78/11 56/75/11
f 58/77/10 60/79/10 61/80/10 59/78/10
f 60/79/9 54/81/9 57/82/9 61/80/9
f 56/75/1 62/83/1 63/84/1 57/76/1
f 64/85/9 65/86/9 66/87/9 67/88/9
f 68/89/11 69/90/11 70/91/11 71/92/11
f 61/80/10 72/93/10 73/94/10 59/78/10
f 63/95/14 70/96/14 69/90/14 72/93/14
f 73/94/15 66/87/15 65/97/15 62/83/15
f 72/93/17 69/90/17 66/87/17 73/94/17
f 62/83/16 65/97/16 70/98/16 63/84/16
f 57/82/9 63/95/9 72/93/9 61/80/9
f 59/78/11 73/94/11 62/83/11 56/75/11
f 67/88/1 66/87/1 69/90/1 68/89/1
f 71/92/10 70/91/10 65/86/10 64/85/10
f 71/92/8 64/85/8 67/88/8 68/89/8 34/44/8 35/45/8
f 17/23/26 19/25/26 12/27/26
f 76/7/27 75/6/27 74/99/27 77/100/27
f 42/8/4 43/69/3 81/101/28 80/9/5
f 2/2/3 1/1/29 74/99/29 75/6/3
f 1/1/29 6/19/30 77/100/30 74/99/29
f 6/19/30 5/5/2 76/7/2 77/100/30
f 86/62/24 85/61/23 89/102/31 90/103/32
f 83/104/33 84/105/34 88/106/35 87/107/36
f 78/57/20 7/17/19 83/104/33 87/107/36
f 45/60/22 82/108/37 89/102/31 85/61/23
f 7/17/19 8/16/38 84/105/34 83/104/33
f 93/109/39 94/11/7 98/10/6 97/110/40
f 91/111/23 92/112/41 96/113/42 95/114/43
f 40/54/44 42/8/4 94/11/7 93/109/39
f 82/108/37 45/60/22 91/111/23 95/114/43
f 45/60/22 46/67/45 92/112/41 91/111/23
f 46/67/45 102/115/8 101/116/46 92/112/41
f 99/117/47 86/118/24 84/119/34
f 48/59/21 86/118/24 99/117/47 100/120/8
f 8/16/38 100/120/8 99/117/47 84/119/34
f 40/54/44 93/109/39 101/116/46 102/115/8
f 101/116/46 93/109/39 92/112/41
f 86/118/24 90/103/32 88/106/35 84/119/34
f 93/109/39 97/110/40 96/113/42 92/112/41
