# Blender v3.3.0 OBJ File: ''
# www.blender.org
mtllib arm.mtl
o Cylinder.001
v -1.056673 -0.000000 -0.572335
v 1.061129 0.000000 -0.572335
v -1.056673 -0.286168 -0.495657
v 1.061129 -0.286168 -0.495657
v -1.056673 -0.495657 -0.286168
v 1.061129 -0.495657 -0.286168
v -1.056673 -0.572335 0.000000
v 1.061129 -0.572335 0.000000
v -1.056673 -0.495657 0.286168
v 1.061129 -0.495657 0.286168
v -1.056673 -0.286168 0.495657
v 1.061129 -0.286168 0.495657
v -1.056673 -0.000000 0.572335
v 1.061129 0.000000 0.572335
v -1.056673 0.286168 0.495657
v 1.061129 0.286168 0.495657
v -1.056673 0.495657 0.286168
v 1.061129 0.495657 0.286168
v -1.056673 0.572335 0.000000
v 1.061129 0.572335 0.000000
v -1.056673 0.495657 -0.286168
v 1.061129 0.495657 -0.286168
v -1.056673 0.286168 -0.495657
v 1.061129 0.286168 -0.495657
v -0.350739 -0.000000 -0.572335
v 0.355195 0.000000 -0.572335
v 0.355195 -0.286168 -0.495657
v -0.350739 -0.286168 -0.495657
v 0.355195 -0.495657 -0.286168
v -0.350739 -0.495657 -0.286168
v 0.355195 -0.572335 0.000000
v -0.350739 -0.572335 0.000000
v 0.355195 -0.495657 0.286168
v -0.350739 -0.495657 0.286168
v 0.355195 -0.286168 0.495657
v -0.350739 -0.286168 0.495657
v 0.355195 0.000000 0.572335
v -0.350739 -0.000000 0.572335
v 0.355195 0.286168 0.495657
v -0.350739 0.286168 0.495657
v 0.355195 0.495657 0.286168
v -0.350739 0.495657 0.286168
v 0.355195 0.572335 0.000000
v -0.350739 0.572335 0.000000
v 0.355195 0.495657 -0.286168
v -0.350739 0.495657 -0.286168
v 0.355195 0.286168 -0.495657
v -0.350739 0.286168 -0.495657
v -0.157068 -0.000000 -11.980932
v 0.161525 -0.000000 -11.980932
v 0.161524 -0.129150 -11.946327
v -0.157068 -0.129150 -11.946327
v 0.161524 0.129149 -11.946327
v -0.157069 0.129149 -11.946327
v 0.355195 -0.286168 2.955776
v -0.350739 -0.286168 2.955776
v 0.355195 0.000000 3.032454
v -0.350739 -0.000000 3.032454
v 0.355195 0.286168 2.955776
v -0.350739 0.286168 2.955776
vt 1.000000 0.833333
vt 1.000000 1.000000
vt 0.916667 1.000000
vt 0.916667 0.833333
vt 0.833333 1.000000
vt 0.833333 0.833333
vt 0.750000 1.000000
vt 0.750000 0.833333
vt 0.666667 1.000000
vt 0.666667 0.833333
vt 0.583333 1.000000
vt 0.583333 0.833333
vt 0.500000 1.000000
vt 0.500000 0.833333
vt 0.416667 1.000000
vt 0.416667 0.833333
vt 0.333333 1.000000
vt 0.333333 0.833333
vt 0.250000 1.000000
vt 0.250000 0.833333
vt 0.166667 1.000000
vt 0.166667 0.833333
vt 0.370000 0.457846
vt 0.250000 0.490000
vt 0.130000 0.457846
vt 0.042154 0.370000
vt 0.010000 0.250000
vt 0.042154 0.130000
vt 0.130000 0.042154
vt 0.250000 0.010000
vt 0.370000 0.042154
vt 0.457846 0.130000
vt 0.490000 0.250000
vt 0.457846 0.370000
vt 0.083333 1.000000
vt 0.083333 0.833333
vt 0.000000 1.000000
vt 0.000000 0.833333
vt 0.750000 0.490000
vt 0.870000 0.457846
vt 0.957846 0.370000
vt 0.990000 0.250000
vt 0.957846 0.130000
vt 0.870000 0.042154
vt 0.750000 0.010000
vt 0.630000 0.042154
vt 0.542154 0.130000
vt 0.510000 0.250000
vt 0.542154 0.370000
vt 0.630000 0.457846
vt 0.083333 0.500000
vt 0.083333 0.666667
vt 0.000000 0.666667
vt 0.000000 0.500000
vt 0.916667 0.666667
vt 0.916667 0.666667
vt 0.916667 0.833333
vt 0.166667 0.500000
vt 0.166667 0.666667
vt 0.250000 0.500000
vt 0.250000 0.666667
vt 0.333333 0.500000
vt 0.333333 0.666667
vt 0.416667 0.500000
vt 0.416667 0.666667
vt 0.500000 0.500000
vt 0.500000 0.666667
vt 0.583333 0.666667
vt 0.583333 0.666667
vt 0.500000 0.666667
vt 0.583333 0.500000
vt 0.583333 0.833333
vt 0.666667 0.500000
vt 0.666667 0.666667
vt 0.750000 0.500000
vt 0.750000 0.666667
vt 0.833333 0.500000
vt 0.833333 0.666667
vt 0.916667 0.500000
vt 1.000000 0.500000
vt 1.000000 0.666667
vt 1.000000 0.833333
vt 0.083333 0.666667
vt 0.083333 0.833333
vt 0.000000 0.833333
vt 0.000000 0.666667
vt 1.000000 0.666667
vt 0.500000 0.833333
vt 0.416667 0.833333
vt 0.416667 0.666667
vn 0.0000 -0.2588 -0.9659
vn 0.0000 -0.7071 -0.7071
vn 0.0000 -0.9659 -0.2588
vn 0.0000 -0.9659 0.2588
vn 0.0000 -0.7071 0.7071
vn 0.0000 -0.2588 0.9659
vn -0.0000 0.2588 0.9659
vn -0.0000 0.7071 0.7071
vn -0.0000 0.9659 0.2588
vn -0.0000 0.9659 -0.2588
vn 1.0000 0.0000 0.0000
vn -0.0000 0.7071 -0.7071
vn -0.0000 0.2588 -0.9659
vn -1.0000 0.0000 0.0000
vn 0.0000 -0.9999 -0.0137
vn 0.0000 -1.0000 0.0000
vn 0.9998 -0.0045 -0.0170
vn 0.9998 0.0045 -0.0170
vn -0.0000 0.9999 -0.0137
vn -0.9998 -0.0045 -0.0170
vn -0.9998 0.0045 -0.0170
vn -0.0000 1.0000 0.0000
usemtl Material.008
s off
f 26/1/1 2/2/1 4/3/1 27/4/1
f 27/4/2 4/3/2 6/5/2 29/6/2
f 29/6/3 6/5/3 8/7/3 31/8/3
f 31/8/4 8/7/4 10/9/4 33/10/4
f 33/10/5 10/9/5 12/11/5 35/12/5
f 35/12/6 12/11/6 14/13/6 37/14/6
f 37/14/7 14/13/7 16/15/7 39/16/7
f 39/16/8 16/15/8 18/17/8 41/18/8
f 41/18/9 18/17/9 20/19/9 43/20/9
f 43/20/10 20/19/10 22/21/10 45/22/10
f 4/23/11 2/24/11 24/25/11 22/26/11 20/27/11 18/28/11 16/29/11 14/30/11 12/31/11 10/32/11 8/33/11 6/34/11
f 45/22/12 22/21/12 24/35/12 47/36/12
f 47/36/13 24/35/13 2/37/13 26/38/13
f 1/39/14 3/40/14 5/41/14 7/42/14 9/43/14 11/44/14 13/45/14 15/46/14 17/47/14 19/48/14 21/49/14 23/50/14
f 23/51/13 48/52/13 25/53/13 1/54/13
f 27/4/15 28/55/15 52/56/15 51/57/15
f 21/58/12 46/59/12 48/52/12 23/51/12
f 46/59/12 45/22/12 47/36/12 48/52/12
f 19/60/10 44/61/10 46/59/10 21/58/10
f 44/61/10 43/20/10 45/22/10 46/59/10
f 17/62/9 42/63/9 44/61/9 19/60/9
f 42/63/9 41/18/9 43/20/9 44/61/9
f 15/64/8 40/65/8 42/63/8 17/62/8
f 40/65/8 39/16/8 41/18/8 42/63/8
f 13/66/7 38/67/7 40/65/7 15/64/7
f 38/67/14 36/68/14 56/69/14 58/70/14
f 11/71/6 36/68/6 38/67/6 13/66/6
f 36/68/16 35/12/16 55/72/16 56/69/16
f 9/73/5 34/74/5 36/68/5 11/71/5
f 34/74/5 33/10/5 35/12/5 36/68/5
f 7/75/4 32/76/4 34/74/4 9/73/4
f 32/76/4 31/8/4 33/10/4 34/74/4
f 5/77/3 30/78/3 32/76/3 7/75/3
f 30/78/3 29/6/3 31/8/3 32/76/3
f 3/79/2 28/55/2 30/78/2 5/77/2
f 28/55/2 27/4/2 29/6/2 30/78/2
f 1/80/1 25/81/1 28/55/1 3/79/1
f 26/1/17 27/4/17 51/57/17 50/82/17
f 54/83/13 53/84/13 50/85/13 49/86/13
f 49/87/1 50/82/1 51/57/1 52/56/1
f 47/36/18 26/38/18 50/85/18 53/84/18
f 48/52/19 47/36/19 53/84/19 54/83/19
f 28/55/20 25/81/20 49/87/20 52/56/20
f 25/53/21 48/52/21 54/83/21 49/86/21
f 58/70/7 57/88/7 59/89/7 60/90/7
f 56/69/6 55/72/6 57/88/6 58/70/6
f 40/65/14 38/67/14 58/70/14 60/90/14
f 35/12/11 37/14/11 57/88/11 55/72/11
f 39/16/22 40/65/22 60/90/22 59/89/22
f 37/14/11 39/16/11 59/89/11 57/88/11
