# Blender v3.3.0 OBJ File: ''
# www.blender.org
mtllib body.mtl
o Cube_Cube.001
v -1.626890 0.186076 2.119560
v -1.626890 0.861376 2.119560
v -1.626890 0.186076 -2.145812
v -1.626890 0.861376 -2.145812
v 1.680167 0.186076 2.119560
v 1.680167 0.861376 2.119560
v 1.680167 0.186076 -2.145812
v 1.680167 0.861376 -2.145812
v -1.626890 0.186076 1.405100
v -1.626890 0.861376 1.405100
v 1.680167 0.186076 1.405100
v 1.680167 0.861376 1.405100
v -1.626890 0.861376 -1.461112
v 1.680167 0.186076 -1.461112
v -1.626890 0.186076 -1.461112
v 1.680167 0.861376 -1.461112
v 1.125175 0.186076 -2.145812
v -1.088816 0.186076 -2.145812
v -1.088816 0.861376 -2.145812
v 1.125175 0.861376 -2.145812
v -1.088816 0.186076 2.119560
v 1.125175 0.186076 2.119560
v 1.125175 0.861376 2.119560
v -1.088816 0.861376 2.119560
v -1.088816 0.861376 1.405100
v 1.125175 0.861376 1.405100
v -1.088816 0.861376 -1.461112
v 1.125175 0.861376 -1.461112
v -0.944822 5.808997 1.349476
v -0.944822 5.808997 0.828974
v 0.570815 5.808386 0.828974
v 0.959455 5.814628 0.828974
v 0.959455 5.814628 1.349476
v 0.959455 5.814628 1.890819
v -0.568030 5.812251 1.890819
v -0.944822 5.808997 1.890819
v 0.570815 5.808386 1.349476
v -0.568030 5.812251 0.828974
v 0.570815 5.808386 1.890819
v -0.568030 5.812251 1.349476
vt 0.375000 0.209869
vt 0.625000 0.209869
vt 0.625000 0.250000
vt 0.375000 0.250000
vt 0.375000 0.416667
vt 0.625000 0.416667
vt 0.625000 0.500000
vt 0.375000 0.500000
vt 0.375000 0.708124
vt 0.625000 0.708124
vt 0.625000 0.750000
vt 0.375000 0.750000
vt 0.375000 0.916667
vt 0.625000 0.916667
vt 0.625000 1.000000
vt 0.375000 1.000000
vt 0.708333 0.540131
vt 0.625000 0.540131
vt 0.625000 0.540131
vt 0.708333 0.540131
vt 0.791667 0.540131
vt 0.875000 0.540131
vt 0.875000 0.708124
vt 0.791667 0.708124
vt 0.375000 0.540131
vt 0.375000 0.000000
vt 0.625000 0.000000
vt 0.625000 0.041876
vt 0.375000 0.041876
vt 0.708333 0.708124
vt 0.708333 0.708124
vt 0.625000 0.708124
vt 0.708333 0.500000
vt 0.708333 0.500000
vt 0.791667 0.500000
vt 0.625000 0.750000
vt 0.791667 0.750000
vt 0.708333 0.750000
vt 0.625000 0.833333
vt 0.375000 0.833333
vt 0.625000 0.333333
vt 0.375000 0.333333
vt 0.791667 0.708124
vt 0.875000 0.708124
vt 0.875000 0.750000
vt 0.791667 0.750000
vt 0.791667 0.500000
vt 0.875000 0.500000
vt 0.875000 0.540131
vt 0.791667 0.540131
vt 0.625000 0.500000
vt 0.708333 0.750000
vt 0.625000 0.209869
vt 0.625000 0.250000
vt 0.625000 0.833333
vt 0.625000 0.916667
vt 0.625000 1.000000
vt 0.625000 0.416667
vt 0.625000 0.000000
vt 0.625000 0.041876
vt 0.625000 0.333333
vn -1.0000 0.0000 0.0000
vn 0.0000 0.0000 -1.0000
vn 1.0000 0.0000 0.0000
vn 0.0000 0.0000 1.0000
vn 0.0033 -0.4934 0.8698
vn 0.0000 1.0000 0.0000
vn 0.0001 -0.0112 -0.9999
vn -0.9938 -0.1114 0.0000
vn 0.9896 0.1440 0.0000
vn -0.0086 1.0000 0.0000
vn -0.0161 0.9999 0.0000
vn 0.9945 -0.1046 0.0000
vn -0.9906 0.1366 0.0000
vn -0.0003 0.0461 0.9989
vn -0.0002 0.0462 0.9989
vn 0.0000 -0.0112 -0.9999
vn -0.0034 0.5148 -0.8573
vn -0.0018 0.5153 -0.8570
vn 0.0018 -0.4940 0.8695
usemtl Material.006
s off
f 15/1/1 13/2/1 4/3/1 3/4/1
f 17/5/2 20/6/2 8/7/2 7/8/2
f 11/9/3 12/10/3 6/11/3 5/12/3
f 21/13/4 24/14/4 2/15/4 1/16/4
f 28/17/5 16/18/5 33/19/5 37/20/5
f 27/21/6 13/22/6 10/23/6 25/24/6
f 14/25/3 16/18/3 12/10/3 11/9/3
f 1/26/1 2/27/1 10/28/1 9/29/1
f 7/8/3 8/7/3 16/18/3 14/25/3
f 12/10/7 26/30/7 37/31/7 33/32/7
f 9/29/1 10/28/1 13/2/1 15/1/1
f 20/33/8 28/17/8 37/20/8 31/34/8
f 20/33/6 19/35/6 27/21/6 28/17/6
f 16/18/6 28/17/6 26/30/6 12/10/6
f 6/11/9 12/10/9 33/32/9 34/36/9
f 26/30/6 25/24/6 24/37/6 23/38/6
f 5/12/4 6/11/4 23/39/4 22/40/4
f 22/40/4 23/39/4 24/14/4 21/13/4
f 3/4/2 4/3/2 19/41/2 18/42/2
f 18/42/2 19/41/2 20/6/2 17/5/2
f 40/43/10 29/44/10 36/45/10 35/46/10
f 38/47/10 30/48/10 29/49/10 40/50/10
f 32/51/11 31/34/11 37/20/11 33/19/11
f 33/32/11 37/31/11 39/52/11 34/36/11
f 27/21/12 19/35/12 38/47/12 40/50/12
f 4/3/13 13/2/13 29/53/13 30/54/13
f 23/39/14 6/11/14 34/36/14 39/55/14
f 2/15/15 24/14/15 35/56/15 36/57/15
f 25/24/16 10/23/16 29/44/16 40/43/16
f 26/30/8 23/38/8 39/52/8 37/31/8
f 8/7/17 20/6/17 31/58/17 32/51/17
f 10/28/13 2/27/13 36/59/13 29/60/13
f 19/41/18 4/3/18 30/54/18 38/61/18
f 24/37/12 25/24/12 40/43/12 35/46/12
f 13/22/19 27/21/19 40/50/19 29/49/19
f 16/18/9 8/7/9 32/51/9 33/19/9
