# Blender v3.3.0 OBJ File: ''
# www.blender.org
mtllib counterweight.mtl
o Cube.001_Cube.002
v -0.546955 0.465085 -0.066014
v -0.546955 0.465085 -0.608245
v -0.546955 0.312255 -0.762309
v 0.182318 0.398398 -0.969099
v 0.182318 0.671875 -0.693413
v 0.546955 0.465085 -0.608245
v 0.546955 0.312255 -0.762309
v 0.546955 0.465085 0.763843
v 0.546955 0.465085 1.105698
v 0.546955 0.279155 1.348141
v -0.182318 0.381167 1.554931
v -0.182318 0.671875 1.175863
v -0.546955 0.465085 1.105698
v -0.546955 0.279155 1.348141
v 0.182318 -0.646030 0.763843
v 0.546955 -0.439240 0.763843
v 0.546955 -0.439240 1.109055
v 0.182318 -0.646030 1.175863
v 0.546955 0.465085 -0.066014
v 0.194646 1.733932 -0.056704
v 0.194646 1.733932 0.166570
v -0.182318 -0.646030 1.175863
v -0.182318 -0.372552 1.554931
v -0.546955 -0.266752 1.348141
v -0.546955 -0.439240 1.109055
v -0.182318 -0.000000 1.554931
v -0.546955 -0.000000 1.348141
v 0.546955 -0.266752 1.348141
v 0.546955 -0.000000 1.348141
v 0.182318 -0.646030 -0.693413
v 0.182318 -0.372552 -0.969099
v 0.546955 -0.286409 -0.762309
v 0.546955 -0.439240 -0.608244
v 0.182318 0.000000 -0.969099
v 0.546955 0.000000 -0.762309
v -0.546955 -0.439240 -0.066014
v -0.546955 -0.286409 -0.762309
v -0.546955 -0.439240 -0.608244
v -0.546955 0.000000 -0.762309
v -0.546955 -0.439240 0.763843
v 0.546955 -0.439240 -0.066014
v 0.064882 1.733932 -0.056704
v -0.182318 0.671875 -0.066014
v -0.546955 0.465085 0.763843
v -0.182318 0.671875 0.763843
v 0.182318 -0.646030 -0.066014
v -0.182318 -0.646030 -0.066014
v -0.182318 -0.646030 0.763843
v -0.182318 -0.646030 -0.693413
v 0.182318 0.671875 -0.066014
v 0.182318 0.671875 0.763843
v -0.182318 0.671875 -0.693413
v -0.194646 1.733932 -0.056704
v -0.064882 1.733932 -0.056704
v -0.182318 0.398398 -0.969099
v -0.182318 0.000000 -0.969099
v -0.182318 -0.372552 -0.969099
v 0.182318 0.381167 1.554931
v 0.182318 -0.000000 1.554931
v 0.182318 -0.372552 1.554931
v -0.064882 1.733932 0.608520
v -0.194646 1.733932 0.608520
v 0.182318 0.671875 1.175863
v -0.064882 1.733932 0.461893
v -0.194646 1.733932 0.461893
v -0.194646 1.733932 0.166570
v -0.064882 1.733932 0.166570
v 0.064882 1.733932 0.166570
v 0.194646 1.733932 0.461893
v 0.064882 1.733932 0.461893
v 0.064882 1.733932 0.608520
v 0.194646 1.733932 0.608520
v 0.546955 0.671875 -0.693413
v 0.546955 0.671875 -0.066014
v -0.546955 0.381167 1.554931
v -0.546955 -0.000000 1.554931
v 0.546955 -0.646030 1.175863
v 0.546955 -0.372552 1.554931
v -0.546955 0.671875 -0.693413
v -0.546955 0.398398 -0.969099
v -0.546955 -0.646030 1.175863
v -0.546955 -0.646030 0.763843
v 0.546955 -0.646030 -0.693413
v 0.546955 -0.646030 -0.066014
v -0.546955 0.671875 1.175863
v -0.546955 0.671875 0.763843
v -0.546955 -0.372552 1.554931
v 0.546955 0.398398 -0.969099
v 0.546955 0.671875 1.175863
v 0.546955 0.381167 1.554931
v 0.546955 -0.646030 0.763843
v 0.546955 -0.372552 -0.969099
v 0.546955 0.000000 -0.969099
v -0.546955 0.671875 -0.066014
v 0.546955 0.671875 0.763843
v -0.546955 -0.646030 -0.066014
v -0.546955 -0.646030 -0.693413
v 0.546955 -0.000000 1.554931
v -0.546955 -0.372552 -0.969099
v -0.546955 0.000000 -0.969099
vt 0.562500 0.416667
vt 0.625000 0.416667
vt 0.625000 0.500000
vt 0.562500 0.500000
vt 0.562500 0.916667
vt 0.625000 0.916667
vt 0.625000 1.000000
vt 0.562500 1.000000
vt 0.291667 0.666667
vt 0.375000 0.666667
vt 0.375000 0.750000
vt 0.291667 0.750000
vt 0.625000 0.583333
vt 0.625000 0.500000
vt 0.625000 0.583333
vt 0.375000 0.916667
vt 0.437500 0.916667
vt 0.437500 1.000000
vt 0.375000 1.000000
vt 0.375000 0.416667
vt 0.437500 0.416667
vt 0.437500 0.500000
vt 0.375000 0.500000
vt 0.625000 0.416667
vt 0.791667 0.583333
vt 0.875000 0.583333
vt 0.875000 0.666667
vt 0.791667 0.666667
vt 0.291667 0.500000
vt 0.375000 0.583333
vt 0.291667 0.583333
vt 0.125000 0.583333
vt 0.208333 0.583333
vt 0.208333 0.666667
vt 0.125000 0.666667
vt 0.125000 0.500000
vt 0.208333 0.500000
vt 0.708333 0.583333
vt 0.708333 0.666667
vt 0.625000 0.666667
vt 0.625000 0.333333
vt 0.625000 0.250000
vt 0.625000 0.250000
vt 0.625000 0.333333
vt 0.708333 0.500000
vt 0.791667 0.500000
vt 0.375000 0.250000
vt 0.437500 0.250000
vt 0.437500 0.333333
vt 0.375000 0.333333
vt 0.437500 0.750000
vt 0.437500 0.833333
vt 0.375000 0.833333
vt 0.625000 0.916667
vt 0.625000 1.000000
vt 0.791667 0.750000
vt 0.708333 0.750000
vt 0.208333 0.750000
vt 0.125000 0.750000
vt 0.562500 0.750000
vt 0.625000 0.750000
vt 0.625000 0.833333
vt 0.562500 0.833333
vt 0.562500 0.250000
vt 0.562500 0.333333
vt 0.791667 0.666667
vt 0.875000 0.666667
vt 0.875000 0.750000
vt 0.791667 0.750000
vt 0.791667 0.500000
vt 0.875000 0.500000
vt 0.875000 0.583333
vt 0.791667 0.583333
vt 0.708333 0.500000
vt 0.708333 0.583333
vt 0.625000 0.666667
vt 0.708333 0.666667
vt 0.708333 0.750000
vt 0.625000 0.750000
vt 0.625000 0.833333
vt 0.625000 0.083333
vt 0.625000 0.000000
vt 0.625000 0.000000
vt 0.625000 0.083333
vt 0.625000 0.166667
vt 0.625000 0.166667
vt 0.585712 0.582099
vt 0.583989 0.520368
vt 0.534318 0.926178
vt 0.472540 0.909058
vt 0.500000 1.000000
vt 0.415980 0.723960
vt 0.452098 0.736809
vt 0.555391 0.290746
vt 0.604631 0.317616
vt 0.253264 0.770521
vt 0.230960 0.675099
vt 0.416292 0.520366
vt 0.414513 0.582094
vt 0.582791 0.418469
vt 0.572086 0.807825
vt 0.397162 0.898055
vt 0.552691 0.513401
vt 0.547836 0.736672
vt 0.584911 0.723752
vt 0.414673 0.674420
vt 0.448045 0.513400
vt 0.498692 0.516130
vt 0.500000 0.500000
vt 0.711907 0.492363
vt 0.585738 0.674479
vt 0.257800 0.523138
vt 0.389789 0.315414
vt 0.499144 0.733814
vt 0.500000 0.750000
vt 0.440048 0.289461
vt 0.494941 0.297081
vt 0.500000 0.250000
vt 0.500000 0.916667
vt 0.500000 0.416667
vt 0.500000 0.333333
vt 0.500000 0.833333
vn 0.0000 0.7099 -0.7043
vn 0.0000 0.7935 0.6085
vn 0.0000 -1.0000 -0.0000
vn 0.9491 0.3149 0.0000
vn 0.0000 -0.8110 0.5851
vn 0.0000 -0.7099 -0.7043
vn 0.0000 0.5142 -0.8577
vn 0.0000 1.0000 0.0000
vn 0.0000 0.4712 0.8820
vn -0.9939 -0.1099 0.0000
vn 0.9939 -0.1099 0.0000
vn 0.0000 -0.2139 0.9769
vn -0.9491 0.3149 0.0000
vn 0.0000 -0.2735 -0.9619
vn 1.0000 0.0000 0.0000
vn -1.0000 0.0000 0.0000
vn 0.0000 -0.0000 1.0000
vn 0.0000 0.0000 -1.0000
usemtl Material.007
s 1
f 4/1/1 5/2/1 73/3/1 88/4/1
f 11/5/2 12/6/2 85/7/2 75/8/2
f 15/9/3 91/10/3 77/11/3 18/12/3
f 74/13/4 73/3/4 20/14/4 21/15/4
f 22/16/5 23/17/5 87/18/5 81/19/5
f 30/20/6 31/21/6 92/22/6 83/23/6
f 73/3/7 5/2/7 42/24/7 20/14/7
f 43/25/8 94/26/8 86/27/8 45/28/8
f 30/29/3 83/23/3 84/30/3 46/31/3
f 46/31/3 84/30/3 91/10/3 15/9/3
f 96/32/3 47/33/3 48/34/3 82/35/3
f 97/36/3 49/37/3 47/33/3 96/32/3
f 49/37/3 30/29/3 46/31/3 47/33/3
f 74/13/8 50/38/8 51/39/8 95/40/8
f 52/41/7 79/42/7 53/43/7 54/44/7
f 5/45/8 52/46/8 43/25/8 50/38/8
f 97/47/6 99/48/6 57/49/6 49/50/6
f 49/50/6 57/49/6 31/21/6 30/20/6
f 77/11/5 78/51/5 60/52/5 18/53/5
f 18/53/5 60/52/5 23/17/5 22/16/5
f 85/7/9 12/6/9 61/54/9 62/55/9
f 51/39/8 45/28/8 12/56/8 63/57/8
f 82/35/3 48/34/3 22/58/3 81/59/3
f 48/34/3 15/9/3 18/12/3 22/58/3
f 90/60/2 89/61/2 63/62/2 58/63/2
f 58/63/2 63/62/2 12/6/2 11/5/2
f 80/64/1 79/42/1 52/41/1 55/65/1
f 55/65/1 52/41/1 5/2/1 4/1/1
f 64/66/8 65/67/8 62/68/8 61/69/8
f 54/70/8 53/71/8 66/72/8 67/73/8
f 20/14/8 42/74/8 68/75/8 21/15/8
f 69/76/8 70/77/8 71/78/8 72/79/8
f 51/39/10 63/57/10 71/78/10 70/77/10
f 5/45/10 50/38/10 68/75/10 42/74/10
f 12/56/11 45/28/11 64/66/11 61/69/11
f 94/26/12 43/25/12 67/73/12 66/72/12
f 43/25/11 52/46/11 54/70/11 67/73/11
f 89/61/4 95/40/4 69/76/4 72/79/4
f 63/62/9 89/61/9 72/79/9 71/80/9
f 86/81/13 85/82/13 62/83/13 65/84/13
f 50/38/12 74/13/12 21/15/12 68/75/12
f 45/28/14 86/27/14 65/67/14 64/66/14
f 79/42/13 94/85/13 66/86/13 53/43/13
f 95/40/14 51/39/14 70/77/14 69/76/14
f 19/87/15 6/88/15 73/3/15 74/13/15
f 14/89/16 27/90/16 76/91/16 75/8/16
f 17/92/15 28/93/15 78/51/15 77/11/15
f 3/94/16 2/95/16 79/42/16 80/64/16
f 25/96/16 40/97/16 82/35/16 81/59/16
f 33/98/15 41/99/15 84/30/15 83/23/15
f 44/100/16 13/101/16 85/7/16 86/81/16
f 24/102/16 25/96/16 81/59/16 87/18/16
f 6/88/15 7/103/15 88/4/15 73/3/15
f 27/90/16 24/102/16 87/18/16 76/91/16
f 10/104/15 9/105/15 89/61/15 90/60/15
f 41/99/15 16/106/15 91/10/15 84/30/15
f 13/101/16 14/89/16 75/8/16 85/7/16
f 32/107/15 33/98/15 83/23/15 92/22/15
f 35/108/15 32/107/15 92/22/15 93/109/15
f 2/95/16 1/110/16 94/26/16 79/42/16
f 9/105/15 8/111/15 95/40/15 89/61/15
f 16/106/15 17/92/15 77/11/15 91/10/15
f 8/111/15 19/87/15 74/13/15 95/40/15
f 36/112/16 38/113/16 97/47/16 96/32/16
f 1/110/16 44/100/16 86/81/16 94/26/16
f 28/93/15 29/114/15 98/115/15 78/51/15
f 38/113/16 37/116/16 99/48/16 97/47/16
f 37/116/16 39/117/16 100/118/16 99/48/16
f 40/97/16 36/112/16 96/32/16 82/35/16
f 39/117/16 3/94/16 80/64/16 100/118/16
f 7/103/15 35/108/15 93/109/15 88/4/15
f 29/114/15 10/104/15 90/60/15 98/115/15
usemtl Material.002
f 23/17/17 26/119/17 76/91/17 87/18/17
f 26/119/17 11/5/17 75/8/17 76/91/17
f 31/21/18 34/120/18 93/109/18 92/22/18
f 34/120/18 4/1/18 88/4/18 93/109/18
f 14/89/16 13/101/16 44/100/16 1/110/16 2/95/16 3/94/16 39/117/16 37/116/16 38/113/16 36/112/16 40/97/16 25/96/16 24/102/16 27/90/16
f 19/87/15 8/111/15 9/105/15 10/104/15 29/114/15 28/93/15 17/92/15 16/106/15 41/99/15 33/98/15 32/107/15 35/108/15 7/103/15 6/88/15
f 47/33/3 46/31/3 15/9/3 48/34/3
f 50/38/8 43/25/8 45/28/8 51/39/8
f 100/118/18 80/64/18 55/65/18 56/121/18
f 56/121/18 55/65/18 4/1/18 34/120/18
f 99/48/18 100/118/18 56/121/18 57/49/18
f 57/49/18 56/121/18 34/120/18 31/21/18
f 98/115/17 90/60/17 58/63/17 59/122/17
f 59/122/17 58/63/17 11/5/17 26/119/17
f 78/51/17 98/115/17 59/122/17 60/52/17
f 60/52/17 59/122/17 26/119/17 23/17/17
