# Blender v3.3.0 OBJ File: ''
# www.blender.org
mtllib static_body.mtl
o Cube.001_Cube.002
v -0.546955 4.873540 4.612862
v -0.546955 6.191445 4.612862
v -0.546955 4.873540 2.743585
v -0.546955 6.191445 2.743585
v 0.546955 4.873540 4.612862
v 0.546955 6.191445 4.612862
v 0.546955 4.873540 2.743585
v 0.546955 6.191445 2.743585
v -0.546955 5.147018 4.991930
v -0.546955 5.519570 4.991930
v -0.546955 5.900737 4.991930
v -0.546955 5.917967 2.467900
v -0.546955 5.519570 2.467900
v -0.546955 5.147018 2.467900
v 0.546955 5.917967 2.467900
v 0.546955 5.519570 2.467900
v 0.546955 5.147018 2.467900
v 0.546955 5.900737 4.991930
v 0.546955 5.519570 4.991930
v 0.546955 5.147018 4.991930
v -0.546955 4.873540 3.370985
v -0.546955 4.873540 4.200841
v -0.546955 6.191445 4.200841
v -0.546955 6.191445 3.370985
v 0.546955 4.873540 4.200841
v 0.546955 4.873540 3.370985
v 0.546955 6.191445 3.370985
v 0.546955 6.191445 4.200841
v 0.546955 5.147018 3.370985
v 0.546955 5.147018 4.200841
v 0.546955 5.523878 3.370985
v 0.546955 5.519570 4.200841
v 0.546955 5.913660 3.370985
v 0.546955 5.900737 4.200841
v -0.546955 5.147018 4.200841
v -0.546955 5.147018 3.370985
v -0.546955 5.519570 4.200841
v -0.546955 5.523878 3.370985
v -0.546955 5.900737 4.200841
v -0.546955 5.913660 3.370985
v 0.182318 4.873540 2.743585
v -0.182318 4.873540 2.743585
v -0.182318 6.191445 2.743585
v 0.182318 6.191445 2.743585
v -0.182318 4.873540 4.612862
v 0.182318 4.873540 4.612862
v 0.182318 6.191445 4.612862
v -0.182318 6.191445 4.612862
v 0.182318 5.147018 4.991930
v -0.182318 5.147018 4.991930
v 0.182318 5.519570 4.991930
v -0.182318 5.519570 4.991930
v 0.182318 5.900737 4.991930
v -0.182318 5.900737 4.991930
v -0.182318 5.147018 2.467900
v 0.182318 5.147018 2.467900
v -0.182318 5.519570 2.467900
v 0.182318 5.519570 2.467900
v -0.182318 5.917967 2.467900
v 0.182318 5.917967 2.467900
v -0.182318 6.191445 3.370985
v 0.182318 6.191445 3.370985
v -0.182318 6.191445 4.200841
v 0.182318 6.191445 4.200841
v 0.182318 4.873540 3.370985
v -0.182318 4.873540 3.370985
v 0.182318 4.873540 4.200841
v -0.182318 4.873540 4.200841
v -0.194646 7.253502 3.603569
v -0.194646 7.253502 3.380295
v 0.064882 7.253502 3.380295
v 0.194646 7.253502 3.380295
v 0.194646 7.253502 3.898892
v 0.194646 7.253502 4.045518
v -0.064882 7.253502 4.045518
v -0.194646 7.253502 4.045518
v -0.194646 7.253502 3.898892
v 0.194646 7.253502 3.603569
v 0.064882 7.253502 3.603569
v 0.064882 7.253502 3.898892
v -0.064882 7.253502 3.380295
v 0.064882 7.253502 4.045518
v -0.064882 7.253502 3.603569
v -0.064882 7.253502 3.898892
v -0.000000 -0.411649 -4.230673
v -0.000000 0.562860 -3.484832
v 2.115337 -0.411649 -3.663871
v 1.742416 0.562860 -3.017953
v 3.663871 -0.411649 -2.115336
v 3.017953 0.562860 -1.742416
v 4.230673 -0.411649 0.000000
v 3.484832 0.562860 0.000000
v 3.663871 -0.411649 2.115337
v 3.017953 0.562860 1.742416
v 2.115337 -0.411649 3.663871
v 1.742416 0.562860 3.017954
v -0.000000 -0.411649 4.230674
v -0.000000 0.562860 3.484833
v -2.115337 -0.411649 3.663871
v -1.742416 0.562860 3.017954
v -3.663871 -0.411649 2.115337
v -3.017953 0.562860 1.742416
v -4.230673 -0.411649 0.000000
v -3.484832 0.562860 0.000000
v -3.663871 -0.411649 -2.115336
v -3.017953 0.562860 -1.742416
v -2.115337 -0.411649 -3.663871
v -1.742416 0.562860 -3.017953
v -1.626890 0.186076 2.119560
v -1.626890 0.861375 2.119560
v -1.626890 0.186076 -2.145812
v -1.626890 0.861375 -2.145812
v 1.680167 0.186076 2.119560
v 1.680167 0.861375 2.119560
v 1.680167 0.186076 -2.145812
v 1.680167 0.861375 -2.145812
v -1.626890 0.186076 1.405100
v -1.626890 0.861375 1.405100
v 1.680167 0.186076 1.405100
v 1.680167 0.861375 1.405100
v -1.626890 0.861375 -1.461112
v 1.680167 0.186076 -1.461112
v -1.626890 0.186076 -1.461112
v 1.680167 0.861375 -1.461112
v 1.125175 0.186076 -2.145812
v -1.088816 0.186076 -2.145812
v -1.088816 0.861375 -2.145812
v 1.125175 0.861375 -2.145812
v -1.088816 0.186076 2.119560
v 1.125175 0.186076 2.119560
v 1.125175 0.861375 2.119560
v -1.088816 0.861375 2.119560
v -1.088816 0.861375 1.405100
v 1.125175 0.861375 1.405100
v -1.088816 0.861375 -1.461112
v 1.125175 0.861375 -1.461112
v -0.944822 5.808996 1.349477
v -0.944822 5.808996 0.828974
v 0.570815 5.808386 0.828974
v 0.959455 5.814627 0.828974
v 0.959455 5.814627 1.349477
v 0.959455 5.814627 1.890819
v -0.568030 5.812250 1.890819
v -0.944822 5.808996 1.890819
v 0.570815 5.808386 1.349477
v -0.568030 5.812250 0.828974
v 0.570815 5.808386 1.890819
v -0.568030 5.812250 1.349477
v -1.056673 5.601542 0.924255
v 1.061129 5.601542 0.924255
v -1.056673 5.393737 1.135415
v 1.061129 5.393737 1.135415
v -1.056673 5.319353 1.422188
v 1.061129 5.319353 1.422188
v -1.056673 5.398320 1.707732
v 1.061129 5.398320 1.707732
v -1.056673 5.609480 1.915537
v 1.061129 5.609480 1.915537
v -1.056673 5.896253 1.989922
v 1.061129 5.896253 1.989922
v -1.056673 6.181798 1.910954
v 1.061129 6.181798 1.910954
v -1.056673 6.389602 1.699794
v 1.061129 6.389602 1.699794
v -1.056673 6.463986 1.413021
v 1.061129 6.463987 1.413021
v -1.056673 6.385019 1.127477
v 1.061129 6.385019 1.127477
v -1.056673 6.173859 0.919672
v 1.061129 6.173859 0.919672
v -1.056673 5.887086 0.845288
v 1.061129 5.887086 0.845288
v -0.350739 5.601542 0.924255
v 0.355195 5.601542 0.924255
v 0.355195 5.393737 1.135415
v -0.350739 5.393737 1.135415
v 0.355195 5.319353 1.422188
v -0.350739 5.319353 1.422188
v 0.355195 5.398320 1.707732
v -0.350739 5.398320 1.707732
v 0.355195 5.609480 1.915537
v -0.350739 5.609480 1.915537
v 0.355195 5.896253 1.989922
v -0.350739 5.896253 1.989922
v 0.355195 6.181798 1.910954
v -0.350739 6.181798 1.910954
v 0.355195 6.389602 1.699794
v -0.350739 6.389602 1.699794
v 0.355195 6.463987 1.413021
v -0.350739 6.463987 1.413021
v 0.355195 6.385019 1.127477
v -0.350739 6.385019 1.127477
v 0.355195 6.173859 0.919672
v -0.350739 6.173859 0.919672
v 0.355195 5.887086 0.845288
v -0.350739 5.887086 0.845288
v -0.157070 -0.181694 -8.909883
v 0.161523 -0.181694 -8.909883
v 0.161523 -0.275478 -8.814586
v -0.157070 -0.275478 -8.814586
v 0.161523 -0.052826 -8.945522
v -0.157070 -0.052826 -8.945522
v 0.355195 7.143334 4.110528
v -0.350739 7.143334 4.110528
v 0.355195 7.428879 4.031561
v -0.350739 7.428879 4.031561
v 0.355195 7.636683 3.820401
v -0.350739 7.636683 3.820401
vt 0.562500 0.166667
vt 0.625000 0.166667
vt 0.625000 0.250000
vt 0.562500 0.250000
vt 0.562500 0.416667
vt 0.625000 0.416667
vt 0.625000 0.500000
vt 0.562500 0.500000
vt 0.562500 0.666667
vt 0.625000 0.666667
vt 0.625000 0.750000
vt 0.562500 0.750000
vt 0.562500 0.916667
vt 0.625000 0.916667
vt 0.625000 1.000000
vt 0.562500 1.000000
vt 0.291667 0.666667
vt 0.375000 0.666667
vt 0.375000 0.750000
vt 0.291667 0.750000
vt 0.625000 0.583333
vt 0.625000 0.500000
vt 0.625000 0.583333
vt 0.375000 0.916667
vt 0.437500 0.916667
vt 0.437500 1.000000
vt 0.375000 1.000000
vt 0.500000 0.916667
vt 0.500000 1.000000
vt 0.437500 0.666667
vt 0.437500 0.750000
vt 0.500000 0.666667
vt 0.500000 0.750000
vt 0.375000 0.416667
vt 0.437500 0.416667
vt 0.437500 0.500000
vt 0.375000 0.500000
vt 0.500000 0.416667
vt 0.500000 0.500000
vt 0.375000 0.166667
vt 0.437500 0.166667
vt 0.437500 0.250000
vt 0.375000 0.250000
vt 0.500000 0.166667
vt 0.500000 0.250000
vt 0.500000 0.000000
vt 0.562500 0.000000
vt 0.562500 0.083333
vt 0.500000 0.083333
vt 0.437500 0.000000
vt 0.437500 0.083333
vt 0.375000 0.000000
vt 0.375000 0.083333
vt 0.562500 0.583333
vt 0.500000 0.583333
vt 0.437500 0.583333
vt 0.375000 0.583333
vt 0.625000 0.416667
vt 0.791667 0.583333
vt 0.875000 0.583333
vt 0.875000 0.666667
vt 0.791667 0.666667
vt 0.291667 0.500000
vt 0.291667 0.583333
vt 0.625000 0.000000
vt 0.625000 0.083333
vt 0.125000 0.583333
vt 0.208333 0.583333
vt 0.208333 0.666667
vt 0.125000 0.666667
vt 0.125000 0.500000
vt 0.208333 0.500000
vt 0.708333 0.583333
vt 0.708333 0.666667
vt 0.625000 0.333333
vt 0.625000 0.250000
vt 0.625000 0.333333
vt 0.708333 0.500000
vt 0.791667 0.500000
vt 0.562500 0.333333
vt 0.500000 0.333333
vt 0.437500 0.333333
vt 0.375000 0.333333
vt 0.562500 0.833333
vt 0.500000 0.833333
vt 0.437500 0.833333
vt 0.375000 0.833333
vt 0.625000 0.916667
vt 0.625000 1.000000
vt 0.791667 0.750000
vt 0.708333 0.750000
vt 0.208333 0.750000
vt 0.125000 0.750000
vt 0.625000 0.833333
vt 0.791667 0.666667
vt 0.875000 0.666667
vt 0.875000 0.750000
vt 0.791667 0.750000
vt 0.791667 0.500000
vt 0.875000 0.500000
vt 0.875000 0.583333
vt 0.791667 0.583333
vt 0.708333 0.500000
vt 0.708333 0.583333
vt 0.625000 0.666667
vt 0.708333 0.666667
vt 0.708333 0.750000
vt 0.625000 0.750000
vt 0.625000 0.833333
vt 0.625000 0.000000
vt 0.625000 0.083333
vt 0.625000 0.166667
vt 1.000000 0.500000
vt 1.000000 1.000000
vt 0.916667 1.000000
vt 0.916667 0.500000
vt 0.833333 1.000000
vt 0.833333 0.500000
vt 0.750000 1.000000
vt 0.750000 0.500000
vt 0.666667 1.000000
vt 0.666667 0.500000
vt 0.583333 1.000000
vt 0.583333 0.500000
vt 0.500000 1.000000
vt 0.500000 0.500000
vt 0.416667 1.000000
vt 0.416667 0.500000
vt 0.333333 1.000000
vt 0.333333 0.500000
vt 0.250000 1.000000
vt 0.250000 0.500000
vt 0.166667 1.000000
vt 0.166667 0.500000
vt 0.370000 0.457846
vt 0.250000 0.490000
vt 0.130000 0.457846
vt 0.042154 0.370000
vt 0.010000 0.250000
vt 0.042154 0.130000
vt 0.130000 0.042154
vt 0.250000 0.010000
vt 0.370000 0.042154
vt 0.457846 0.130000
vt 0.490000 0.250000
vt 0.457846 0.370000
vt 0.083333 1.000000
vt 0.083333 0.500000
vt 0.000000 1.000000
vt 0.000000 0.500000
vt 0.375000 0.209869
vt 0.625000 0.209869
vt 0.625000 0.250000
vt 0.375000 0.250000
vt 0.375000 0.416667
vt 0.625000 0.416667
vt 0.625000 0.500000
vt 0.375000 0.500000
vt 0.375000 0.708124
vt 0.625000 0.708124
vt 0.625000 0.750000
vt 0.375000 0.750000
vt 0.375000 0.916667
vt 0.625000 0.916667
vt 0.625000 1.000000
vt 0.375000 1.000000
vt 0.708333 0.540131
vt 0.625000 0.540131
vt 0.625000 0.540131
vt 0.708333 0.540131
vt 0.791667 0.540131
vt 0.875000 0.540131
vt 0.875000 0.708124
vt 0.791667 0.708124
vt 0.375000 0.540131
vt 0.375000 0.000000
vt 0.625000 0.000000
vt 0.625000 0.041876
vt 0.375000 0.041876
vt 0.708333 0.708124
vt 0.708333 0.708124
vt 0.625000 0.708124
vt 0.708333 0.500000
vt 0.708333 0.500000
vt 0.791667 0.500000
vt 0.625000 0.750000
vt 0.791667 0.750000
vt 0.708333 0.750000
vt 0.625000 0.833333
vt 0.375000 0.833333
vt 0.625000 0.333333
vt 0.375000 0.333333
vt 0.791667 0.708124
vt 0.875000 0.708124
vt 0.875000 0.750000
vt 0.791667 0.750000
vt 0.791667 0.500000
vt 0.875000 0.500000
vt 0.875000 0.540131
vt 0.791667 0.540131
vt 0.625000 0.500000
vt 0.708333 0.750000
vt 0.625000 0.209869
vt 0.625000 0.250000
vt 0.625000 0.833333
vt 0.625000 0.916667
vt 0.625000 1.000000
vt 0.625000 0.416667
vt 0.625000 0.000000
vt 0.625000 0.041876
vt 0.625000 0.333333
vt 1.000000 0.833333
vt 1.000000 1.000000
vt 0.916667 1.000000
vt 0.916667 0.833333
vt 0.833333 1.000000
vt 0.833333 0.833333
vt 0.750000 1.000000
vt 0.750000 0.833333
vt 0.666667 1.000000
vt 0.666667 0.833333
vt 0.583333 1.000000
vt 0.583333 0.833333
vt 0.500000 1.000000
vt 0.500000 0.833333
vt 0.416667 1.000000
vt 0.416667 0.833333
vt 0.333333 1.000000
vt 0.333333 0.833333
vt 0.250000 1.000000
vt 0.250000 0.833333
vt 0.166667 1.000000
vt 0.166667 0.833333
vt 0.370000 0.457846
vt 0.250000 0.490000
vt 0.130000 0.457846
vt 0.042154 0.370000
vt 0.010000 0.250000
vt 0.042154 0.130000
vt 0.130000 0.042154
vt 0.250000 0.010000
vt 0.370000 0.042154
vt 0.457846 0.130000
vt 0.490000 0.250000
vt 0.457846 0.370000
vt 0.083333 1.000000
vt 0.083333 0.833333
vt 0.000000 1.000000
vt 0.000000 0.833333
vt 0.750000 0.490000
vt 0.870000 0.457846
vt 0.957846 0.370000
vt 0.990000 0.250000
vt 0.957846 0.130000
vt 0.870000 0.042154
vt 0.750000 0.010000
vt 0.630000 0.042154
vt 0.542154 0.130000
vt 0.510000 0.250000
vt 0.542154 0.370000
vt 0.630000 0.457846
vt 0.083333 0.500000
vt 0.083333 0.666667
vt 0.000000 0.666667
vt 0.000000 0.500000
vt 0.916667 0.666667
vt 0.916667 0.666667
vt 0.916667 0.833333
vt 0.166667 0.500000
vt 0.166667 0.666667
vt 0.250000 0.500000
vt 0.250000 0.666667
vt 0.333333 0.500000
vt 0.333333 0.666667
vt 0.416667 0.500000
vt 0.416667 0.666667
vt 0.500000 0.500000
vt 0.500000 0.666667
vt 0.583333 0.666667
vt 0.583333 0.666667
vt 0.500000 0.666667
vt 0.583333 0.500000
vt 0.583333 0.833333
vt 0.666667 0.500000
vt 0.666667 0.666667
vt 0.750000 0.500000
vt 0.750000 0.666667
vt 0.833333 0.500000
vt 0.833333 0.666667
vt 0.916667 0.500000
vt 1.000000 0.500000
vt 1.000000 0.666667
vt 1.000000 0.833333
vt 0.083333 0.666667
vt 0.083333 0.833333
vt 0.000000 0.833333
vt 0.000000 0.666667
vt 1.000000 0.666667
vt 0.500000 0.833333
vt 0.416667 0.833333
vt 0.416667 0.666667
vn -1.0000 0.0000 0.0000
vn 0.0000 0.7099 -0.7043
vn 1.0000 0.0000 0.0000
vn 0.0000 0.7935 0.6086
vn 0.0000 -1.0000 0.0000
vn 0.9491 0.3149 0.0000
vn 0.0000 -0.8110 0.5851
vn 0.0000 0.0000 1.0000
vn 0.0000 -0.7099 -0.7043
vn 0.0000 0.0000 -1.0000
vn 0.0000 0.5142 -0.8577
vn 0.0000 1.0000 0.0000
vn 0.0000 0.4712 0.8820
vn 0.0000 0.7935 0.6085
vn -0.9939 -0.1099 0.0000
vn 0.9939 -0.1099 0.0000
vn 0.0000 -0.2139 0.9769
vn -0.9491 0.3149 0.0000
vn 0.0000 -0.2735 -0.9619
vn 0.2081 0.5945 -0.7767
vn 0.5686 0.5945 -0.5686
vn 0.7767 0.5945 -0.2081
vn 0.7767 0.5945 0.2081
vn 0.5686 0.5945 0.5686
vn 0.2081 0.5945 0.7767
vn -0.2081 0.5945 0.7767
vn -0.5686 0.5945 0.5686
vn -0.7767 0.5945 0.2081
vn -0.7767 0.5945 -0.2081
vn -0.5686 0.5945 -0.5686
vn -0.2081 0.5945 -0.7767
vn 0.0033 -0.4934 0.8698
vn 0.0001 -0.0112 -0.9999
vn -0.9938 -0.1114 0.0000
vn 0.9896 0.1440 0.0000
vn -0.0086 1.0000 0.0000
vn -0.0161 0.9999 0.0000
vn 0.9945 -0.1046 0.0000
vn -0.9906 0.1366 0.0000
vn -0.0003 0.0461 0.9989
vn -0.0002 0.0462 0.9989
vn 0.0000 -0.0112 -0.9999
vn -0.0034 0.5148 -0.8573
vn -0.0018 0.5153 -0.8570
vn 0.0018 -0.4940 0.8695
vn -0.0000 -0.7127 -0.7014
vn -0.0000 -0.9680 -0.2511
vn 0.0000 -0.9638 0.2665
vn 0.0000 -0.7014 0.7127
vn 0.0000 -0.2511 0.9680
vn 0.0000 0.2665 0.9638
vn 0.0000 0.7127 0.7014
vn 0.0000 0.9680 0.2511
vn 0.0000 0.9638 -0.2665
vn 0.0000 0.7014 -0.7127
vn 0.0000 0.2511 -0.9680
vn 0.0000 -0.2665 -0.9638
vn 0.0000 -0.8689 0.4951
vn 0.0000 -0.8620 0.5069
vn 0.9998 -0.0125 -0.0123
vn 0.9998 -0.0047 -0.0169
vn 0.0000 0.8550 -0.5187
vn -0.9998 -0.0125 -0.0123
vn -0.9998 -0.0047 -0.0169
vn 0.0000 0.8620 -0.5069
usemtl Material.009
s off
f 40/1/1 24/2/1 4/3/1 12/4/1
f 60/5/2 44/6/2 8/7/2 15/8/2
f 34/9/3 28/10/3 6/11/3 18/12/3
f 54/13/4 48/14/4 2/15/4 11/16/4
f 67/17/5 25/18/5 5/19/5 46/20/5
f 27/21/6 8/7/6 72/22/6 78/23/6
f 45/24/7 50/25/7 9/26/7 1/27/7
f 50/25/8 52/28/8 10/29/8 9/26/8
f 52/28/8 54/13/8 11/16/8 10/29/8
f 25/18/3 30/30/3 20/31/3 5/19/3
f 30/30/3 32/32/3 19/33/3 20/31/3
f 32/32/3 34/9/3 18/12/3 19/33/3
f 41/34/9 56/35/9 17/36/9 7/37/9
f 56/35/10 58/38/10 16/39/10 17/36/10
f 58/38/10 60/5/10 15/8/10 16/39/10
f 21/40/1 36/41/1 14/42/1 3/43/1
f 36/41/1 38/44/1 13/45/1 14/42/1
f 38/44/1 40/1/1 12/4/1 13/45/1
f 10/46/1 11/47/1 39/48/1 37/49/1
f 37/49/1 39/48/1 40/1/1 38/44/1
f 9/50/1 10/46/1 37/49/1 35/51/1
f 35/51/1 37/49/1 38/44/1 36/41/1
f 1/52/1 9/50/1 35/51/1 22/53/1
f 22/53/1 35/51/1 36/41/1 21/40/1
f 16/39/3 15/8/3 33/54/3 31/55/3
f 31/55/3 33/54/3 34/9/3 32/32/3
f 17/36/3 16/39/3 31/55/3 29/56/3
f 29/56/3 31/55/3 32/32/3 30/30/3
f 7/37/3 17/36/3 29/56/3 26/57/3
f 26/57/3 29/56/3 30/30/3 25/18/3
f 8/7/11 44/6/11 71/58/11 72/22/11
f 61/59/12 24/60/12 23/61/12 63/62/12
f 41/63/5 7/37/5 26/57/5 65/64/5
f 65/64/5 26/57/5 25/18/5 67/17/5
f 15/8/3 8/7/3 27/21/3 33/54/3
f 33/54/3 27/21/3 28/10/3 34/9/3
f 11/47/1 2/65/1 23/66/1 39/48/1
f 39/48/1 23/66/1 24/2/1 40/1/1
f 21/67/5 66/68/5 68/69/5 22/70/5
f 66/68/5 65/64/5 67/17/5 68/69/5
f 3/71/5 42/72/5 66/68/5 21/67/5
f 42/72/5 41/63/5 65/64/5 66/68/5
f 27/21/12 62/73/12 64/74/12 28/10/12
f 62/73/12 61/59/12 63/62/12 64/74/12
f 43/75/11 4/3/11 70/76/11 81/77/11
f 44/78/12 43/79/12 61/59/12 62/73/12
f 13/45/10 12/4/10 59/80/10 57/81/10
f 57/81/10 59/80/10 60/5/10 58/38/10
f 14/42/10 13/45/10 57/81/10 55/82/10
f 55/82/10 57/81/10 58/38/10 56/35/10
f 3/43/9 14/42/9 55/82/9 42/83/9
f 42/83/9 55/82/9 56/35/9 41/34/9
f 19/33/8 18/12/8 53/84/8 51/85/8
f 51/85/8 53/84/8 54/13/8 52/28/8
f 20/31/8 19/33/8 51/85/8 49/86/8
f 49/86/8 51/85/8 52/28/8 50/25/8
f 5/19/7 20/31/7 49/86/7 46/87/7
f 46/87/7 49/86/7 50/25/7 45/24/7
f 2/15/13 48/14/13 75/88/13 76/89/13
f 64/74/12 63/62/12 48/90/12 47/91/12
f 22/70/5 68/69/5 45/92/5 1/93/5
f 68/69/5 67/17/5 46/20/5 45/92/5
f 18/12/4 6/11/4 47/94/4 53/84/4
f 53/84/14 47/94/14 48/14/14 54/13/14
f 12/4/2 4/3/2 43/75/2 59/80/2
f 59/80/2 43/75/2 44/6/2 60/5/2
f 84/95/12 77/96/12 76/97/12 75/98/12
f 81/99/12 70/100/12 69/101/12 83/102/12
f 72/22/12 71/103/12 79/104/12 78/23/12
f 73/105/12 80/106/12 82/107/12 74/108/12
f 64/74/15 47/91/15 82/107/15 80/106/15
f 44/78/15 62/73/15 79/104/15 71/103/15
f 48/90/16 63/62/16 84/95/16 75/98/16
f 24/60/17 61/59/17 83/102/17 69/101/17
f 61/59/16 43/79/16 81/99/16 83/102/16
f 6/11/6 28/10/6 73/105/6 74/108/6
f 47/94/13 6/11/13 74/108/13 82/109/13
f 23/66/18 2/65/18 76/110/18 77/111/18
f 62/73/17 27/21/17 78/23/17 79/104/17
f 63/62/19 23/61/19 77/96/19 84/95/19
f 4/3/18 24/2/18 69/112/18 70/76/18
f 28/10/19 64/74/19 80/106/19 73/105/19
f 85/113/20 86/114/20 88/115/20 87/116/20
f 87/116/21 88/115/21 90/117/21 89/118/21
f 89/118/22 90/117/22 92/119/22 91/120/22
f 91/120/23 92/119/23 94/121/23 93/122/23
f 93/122/24 94/121/24 96/123/24 95/124/24
f 95/124/25 96/123/25 98/125/25 97/126/25
f 97/126/26 98/125/26 100/127/26 99/128/26
f 99/128/27 100/127/27 102/129/27 101/130/27
f 101/130/28 102/129/28 104/131/28 103/132/28
f 103/132/29 104/131/29 106/133/29 105/134/29
f 88/135/12 86/136/12 108/137/12 106/138/12 104/139/12 102/140/12 100/141/12 98/142/12 96/143/12 94/144/12 92/145/12 90/146/12
f 105/134/30 106/133/30 108/147/30 107/148/30
f 107/148/31 108/147/31 86/149/31 85/150/31
f 123/151/1 121/152/1 112/153/1 111/154/1
f 125/155/10 128/156/10 116/157/10 115/158/10
f 119/159/3 120/160/3 114/161/3 113/162/3
f 129/163/8 132/164/8 110/165/8 109/166/8
f 136/167/32 124/168/32 141/169/32 145/170/32
f 135/171/12 121/172/12 118/173/12 133/174/12
f 122/175/3 124/168/3 120/160/3 119/159/3
f 109/176/1 110/177/1 118/178/1 117/179/1
f 115/158/3 116/157/3 124/168/3 122/175/3
f 120/160/33 134/180/33 145/181/33 141/182/33
f 117/179/1 118/178/1 121/152/1 123/151/1
f 128/183/34 136/167/34 145/170/34 139/184/34
f 128/183/12 127/185/12 135/171/12 136/167/12
f 124/168/12 136/167/12 134/180/12 120/160/12
f 114/161/35 120/160/35 141/182/35 142/186/35
f 134/180/12 133/174/12 132/187/12 131/188/12
f 113/162/8 114/161/8 131/189/8 130/190/8
f 130/190/8 131/189/8 132/164/8 129/163/8
f 111/154/10 112/153/10 127/191/10 126/192/10
f 126/192/10 127/191/10 128/156/10 125/155/10
f 148/193/36 137/194/36 144/195/36 143/196/36
f 146/197/36 138/198/36 137/199/36 148/200/36
f 140/201/37 139/184/37 145/170/37 141/169/37
f 141/182/37 145/181/37 147/202/37 142/186/37
f 135/171/38 127/185/38 146/197/38 148/200/38
f 112/153/39 121/152/39 137/203/39 138/204/39
f 131/189/40 114/161/40 142/186/40 147/205/40
f 110/165/41 132/164/41 143/206/41 144/207/41
f 133/174/42 118/173/42 137/194/42 148/193/42
f 134/180/34 131/188/34 147/202/34 145/181/34
f 116/157/43 128/156/43 139/208/43 140/201/43
f 118/178/39 110/177/39 144/209/39 137/210/39
f 127/191/44 112/153/44 138/204/44 146/211/44
f 132/187/38 133/174/38 148/193/38 143/196/38
f 121/172/45 135/171/45 148/200/45 137/199/45
f 124/168/35 116/157/35 140/201/35 141/169/35
f 174/212/46 150/213/46 152/214/46 175/215/46
f 175/215/47 152/214/47 154/216/47 177/217/47
f 177/217/48 154/216/48 156/218/48 179/219/48
f 179/219/49 156/218/49 158/220/49 181/221/49
f 181/221/50 158/220/50 160/222/50 183/223/50
f 183/223/51 160/222/51 162/224/51 185/225/51
f 185/225/52 162/224/52 164/226/52 187/227/52
f 187/227/53 164/226/53 166/228/53 189/229/53
f 189/229/54 166/228/54 168/230/54 191/231/54
f 191/231/55 168/230/55 170/232/55 193/233/55
f 152/234/3 150/235/3 172/236/3 170/237/3 168/238/3 166/239/3 164/240/3 162/241/3 160/242/3 158/243/3 156/244/3 154/245/3
f 193/233/56 170/232/56 172/246/56 195/247/56
f 195/247/57 172/246/57 150/248/57 174/249/57
f 149/250/1 151/251/1 153/252/1 155/253/1 157/254/1 159/255/1 161/256/1 163/257/1 165/258/1 167/259/1 169/260/1 171/261/1
f 171/262/57 196/263/57 173/264/57 149/265/57
f 175/215/58 176/266/58 200/267/58 199/268/58
f 169/269/56 194/270/56 196/263/56 171/262/56
f 194/270/56 193/233/56 195/247/56 196/263/56
f 167/271/55 192/272/55 194/270/55 169/269/55
f 192/272/55 191/231/55 193/233/55 194/270/55
f 165/273/54 190/274/54 192/272/54 167/271/54
f 190/274/54 189/229/54 191/231/54 192/272/54
f 163/275/53 188/276/53 190/274/53 165/273/53
f 188/276/53 187/227/53 189/229/53 190/274/53
f 161/277/52 186/278/52 188/276/52 163/275/52
f 186/278/1 184/279/1 204/280/1 206/281/1
f 159/282/51 184/279/51 186/278/51 161/277/51
f 184/279/59 183/223/59 203/283/59 204/280/59
f 157/284/50 182/285/50 184/279/50 159/282/50
f 182/285/50 181/221/50 183/223/50 184/279/50
f 155/286/49 180/287/49 182/285/49 157/284/49
f 180/287/49 179/219/49 181/221/49 182/285/49
f 153/288/48 178/289/48 180/287/48 155/286/48
f 178/289/48 177/217/48 179/219/48 180/287/48
f 151/290/47 176/266/47 178/289/47 153/288/47
f 176/266/47 175/215/47 177/217/47 178/289/47
f 149/291/46 173/292/46 176/266/46 151/290/46
f 174/212/60 175/215/60 199/268/60 198/293/60
f 202/294/57 201/295/57 198/296/57 197/297/57
f 197/298/46 198/293/46 199/268/46 200/267/46
f 195/247/61 174/249/61 198/296/61 201/295/61
f 196/263/62 195/247/62 201/295/62 202/294/62
f 176/266/63 173/292/63 197/298/63 200/267/63
f 173/264/64 196/263/64 202/294/64 197/297/64
f 206/281/52 205/299/52 207/300/52 208/301/52
f 204/280/51 203/283/51 205/299/51 206/281/51
f 188/276/1 186/278/1 206/281/1 208/301/1
f 183/223/3 185/225/3 205/299/3 203/283/3
f 187/227/65 188/276/65 208/301/65 207/300/65
f 185/225/3 187/227/3 207/300/3 205/299/3
