# Blender v3.3.0 OBJ File: ''
# www.blender.org
mtllib demolish.mtl
o Cube
v 0.878959 0.878959 -0.031726
v 0.878959 -0.878959 -0.031726
v 0.878959 0.878959 0.034363
v 0.878959 -0.878959 0.034363
v -0.878959 0.878959 -0.031726
v -0.878959 -0.878959 -0.031726
v -0.878959 0.878959 0.034363
v -0.878959 -0.878959 0.034363
v 1.000000 -1.000000 -0.308608
v -1.000000 -1.000000 -0.308608
v 1.000000 1.000000 -0.308608
v -1.000000 -1.000000 0.329345
v -1.000000 1.000000 0.329345
v 1.000000 1.000000 0.329345
v 1.000000 -1.000000 0.329345
v -1.000000 1.000000 -0.308608
v 0.878959 -0.878959 -0.308608
v -0.878959 -0.878959 -0.308608
v 0.878959 0.878959 -0.308608
v -0.878959 -0.878959 0.329345
v -0.878959 0.878959 0.329345
v 0.878959 0.878959 0.329345
v 0.878959 -0.878959 0.329345
v -0.878959 0.878959 -0.308608
v 0.000000 0.434966 -0.326508
v 0.000000 0.183074 -0.578400
v 0.000000 -0.085056 -0.670599
v 0.000000 -0.362682 -0.578400
v 0.000000 -0.614574 -0.326508
v 0.446864 0.446713 -0.069111
v 0.537668 0.330472 -0.109961
v 0.595983 -0.085056 -0.326508
v 0.516136 -0.362682 -0.280408
v 0.297992 -0.614574 -0.154462
v 0.446863 0.446713 0.068676
v 0.537668 0.330472 0.109526
v 0.595983 -0.085056 0.361674
v 0.516136 -0.362682 0.315575
v 0.297992 -0.614574 0.189629
v -0.000000 0.434966 0.361674
v -0.000000 0.183074 0.613567
v -0.000000 -0.085056 0.705765
v -0.000000 -0.362682 0.613567
v -0.000000 -0.614574 0.361674
v 0.000000 0.527165 0.017583
v -0.297992 0.434966 0.189629
v -0.516137 0.183074 0.315575
v -0.595983 -0.085056 0.361674
v -0.516137 -0.362682 0.315575
v -0.297992 -0.614574 0.189629
v -0.297991 0.434966 -0.154462
v -0.516136 0.183074 -0.280408
v -0.595983 -0.085056 -0.326508
v -0.516136 -0.362682 -0.280408
v -0.297991 -0.614574 -0.154462
v 0.000000 -0.706773 0.017583
v 0.306783 0.448154 -0.154462
v 0.516136 0.183074 -0.280408
v 0.306783 0.448154 0.189629
v 0.516136 0.183074 0.315575
v 0.686070 0.577879 -0.046180
v 0.725651 0.518891 -0.073030
v 0.686070 0.577879 0.055018
v 0.725651 0.518891 0.081868
v 0.625880 0.542997 0.058990
v 0.625880 0.542997 -0.044683
v 0.677729 0.469544 0.083425
v 0.677729 0.469544 -0.072170
vt 0.625000 0.500000
vt 0.875000 0.500000
vt 0.875000 0.750000
vt 0.625000 0.750000
vt 0.390130 0.765130
vt 0.609870 0.765130
vt 0.609870 0.984870
vt 0.390130 0.984870
vt 0.375000 0.000000
vt 0.625000 0.000000
vt 0.625000 0.250000
vt 0.375000 0.250000
vt 0.125000 0.500000
vt 0.375000 0.500000
vt 0.375000 0.750000
vt 0.125000 0.750000
vt 0.390130 0.265130
vt 0.609870 0.265130
vt 0.609870 0.484870
vt 0.390130 0.484870
vt 0.390130 0.265130
vt 0.390130 0.484870
vt 0.609870 0.484870
vt 0.390130 0.984870
vt 0.609870 0.984870
vt 0.625000 1.000000
vt 0.375000 1.000000
vt 0.609870 0.765130
vt 0.390130 0.765130
vt 0.609870 0.265130
vt 0.666667 0.166667
vt 0.666667 0.333333
vt 0.500000 0.333333
vt 0.500000 0.166667
vt 0.666667 0.500000
vt 0.666667 0.666667
vt 0.500000 0.666667
vt 0.500000 0.500000
vt 0.666667 0.833333
vt 0.583333 1.000000
vt 0.500000 0.833333
vt 0.583333 0.000000
vt 0.333333 0.666667
vt 0.333333 0.500000
vt 0.416667 1.000000
vt 0.333333 0.833333
vt 0.416667 0.000000
vt 0.333333 0.166667
vt 0.333333 0.333333
vt 0.250000 1.000000
vt 0.166667 0.833333
vt 0.250000 0.000000
vt 0.166667 0.166667
vt 0.166667 0.500000
vt 0.166667 0.333333
vt 0.166667 0.666667
vt 0.083333 0.000000
vt 0.000000 0.166667
vt 0.000000 0.500000
vt 0.000000 0.333333
vt 0.000000 0.833333
vt 0.000000 0.666667
vt 0.083333 1.000000
vt 0.916667 0.000000
vt 1.000000 0.166667
vt 0.833333 0.166667
vt 1.000000 0.333333
vt 1.000000 0.500000
vt 0.833333 0.500000
vt 0.833333 0.333333
vt 1.000000 0.666667
vt 1.000000 0.833333
vt 0.833333 0.833333
vt 0.833333 0.666667
vt 0.916667 1.000000
vt 0.750000 0.000000
vt 0.750000 1.000000
vt 0.447928 0.766886
vt 0.452695 0.733114
vt 0.380639 0.733114
vt 0.385405 0.766886
vt 0.447928 0.766886
vt 0.452695 0.733114
vt 0.380639 0.733114
vt 0.385405 0.766886
vt 0.385405 0.766886
vt 0.447928 0.766886
vt 0.452695 0.733114
vt 0.380639 0.733114
vn 0.0000 1.0000 0.0000
vn 0.0000 0.0000 1.0000
vn -1.0000 0.0000 0.0000
vn 0.0000 -1.0000 0.0000
vn 1.0000 0.0000 0.0000
vn 0.0000 0.0000 -1.0000
vn 0.3780 -0.6547 -0.6547
vn 0.4792 0.2854 -0.8300
vn 0.1031 0.9608 -0.2574
vn 0.1478 -0.9553 -0.2560
vn 0.4805 -0.2764 -0.8323
vn 0.3728 0.6412 -0.6707
vn 0.9584 0.2854 0.0000
vn 0.2494 0.9684 0.0000
vn 0.2956 -0.9553 0.0000
vn 0.9610 -0.2764 0.0000
vn 0.7559 -0.6547 0.0000
vn 0.1031 0.9608 0.2574
vn 0.1478 -0.9553 0.2560
vn 0.4805 -0.2764 0.8323
vn 0.3728 0.6412 0.6707
vn 0.3780 -0.6547 0.6547
vn 0.4792 0.2854 0.8300
vn -0.1478 -0.9553 0.2560
vn -0.4805 -0.2764 0.8323
vn -0.3780 0.6547 0.6547
vn -0.3780 -0.6547 0.6547
vn -0.4792 0.2854 0.8300
vn -0.1478 0.9553 0.2560
vn -0.2956 -0.9553 -0.0000
vn -0.9610 -0.2764 -0.0000
vn -0.7559 0.6547 -0.0000
vn -0.7559 -0.6547 -0.0000
vn -0.9584 0.2854 -0.0000
vn -0.2956 0.9553 0.0000
vn -0.1478 -0.9553 -0.2560
vn -0.4805 -0.2764 -0.8323
vn -0.3780 0.6547 -0.6547
vn -0.3780 -0.6547 -0.6547
vn -0.4792 0.2854 -0.8300
vn -0.1478 0.9553 -0.2560
vn 0.4435 0.6286 -0.6389
vn 0.5228 0.6518 0.5493
vn 0.9895 -0.1445 0.0000
vn 0.0103 0.9999 0.0000
vn -0.0432 0.3097 -0.9499
vn 0.7046 -0.7096 0.0000
vn -0.0875 0.2647 0.9604
vn -0.4737 0.8807 -0.0000
vn -0.5014 0.8652 0.0000
vn 0.8304 0.5572 0.0000
vn -0.1552 0.2617 0.9526
vn 0.7174 -0.6967 0.0000
vn -0.2102 0.2433 -0.9469
usemtl Material
s off
f 11/1/1 16/2/1 13/3/1 14/4/1
f 4/5/2 3/6/2 7/7/2 8/8/2
f 12/9/3 13/10/3 16/11/3 10/12/3
f 10/13/4 9/14/4 15/15/4 12/16/4
f 9/14/5 11/1/5 14/4/5 15/15/5
f 6/17/6 5/18/6 1/19/6 2/20/6
f 18/21/6 17/22/6 9/14/6 10/12/6
f 17/22/6 19/23/6 11/1/6 9/14/6
f 20/24/2 21/25/2 13/26/2 12/27/2
f 22/28/2 23/29/2 15/15/2 14/4/2
f 24/30/6 18/21/6 10/12/6 16/11/6
f 21/25/2 22/28/2 14/4/2 13/26/2
f 23/29/2 20/24/2 12/27/2 15/15/2
f 19/23/6 24/30/6 16/11/6 11/1/6
f 6/17/1 2/20/1 17/22/1 18/21/1
f 2/20/3 1/19/3 19/23/3 17/22/3
f 8/8/5 7/7/5 21/25/5 20/24/5
f 3/6/3 4/5/3 23/29/3 22/28/3
f 5/18/5 6/17/5 18/21/5 24/30/5
f 7/7/4 3/6/4 22/28/4 21/25/4
f 4/5/1 8/8/1 20/24/1 23/29/1
f 1/19/4 5/18/4 24/30/4 19/23/4
usemtl Material.002
f 29/31/7 28/32/7 33/33/7 34/34/7
f 27/35/8 26/36/8 58/37/8 32/38/8
f 25/39/9 45/40/9 57/41/9
f 56/42/10 29/31/10 34/34/10
f 28/32/11 27/35/11 32/38/11 33/33/11
f 26/36/12 25/39/12 57/41/12 58/37/12
f 32/38/13 58/37/13 60/43/13 37/44/13
f 57/41/14 45/45/14 59/46/14
f 56/47/15 34/34/15 39/48/15
f 33/33/16 32/38/16 37/44/16 38/49/16
f 34/34/17 33/33/17 38/49/17 39/48/17
f 59/46/18 45/50/18 40/51/18
f 56/52/19 39/48/19 44/53/19
f 38/49/20 37/44/20 42/54/20 43/55/20
f 60/43/21 59/46/21 40/51/21 41/56/21
f 39/48/22 38/49/22 43/55/22 44/53/22
f 37/44/23 60/43/23 41/56/23 42/54/23
f 56/57/24 44/53/24 50/58/24
f 43/55/25 42/54/25 48/59/25 49/60/25
f 41/56/26 40/51/26 46/61/26 47/62/26
f 44/53/27 43/55/27 49/60/27 50/58/27
f 42/54/28 41/56/28 47/62/28 48/59/28
f 40/51/29 45/63/29 46/61/29
f 56/64/30 50/65/30 55/66/30
f 49/67/31 48/68/31 53/69/31 54/70/31
f 47/71/32 46/72/32 51/73/32 52/74/32
f 50/65/33 49/67/33 54/70/33 55/66/33
f 48/68/34 47/71/34 52/74/34 53/69/34
f 46/72/35 45/75/35 51/73/35
f 56/76/36 55/66/36 29/31/36
f 54/70/37 53/69/37 27/35/37 28/32/37
f 52/74/38 51/73/38 25/39/38 26/36/38
f 55/66/39 54/70/39 28/32/39 29/31/39
f 53/69/40 52/74/40 26/36/40 27/35/40
f 51/73/41 45/77/41 25/39/41
f 30/78/42 31/79/42 58/37/42 57/41/42
f 36/80/43 35/81/43 59/46/43 60/43/43
f 31/79/44 36/80/44 60/43/44 58/37/44
f 35/81/45 30/78/45 57/41/45 59/46/45
usemtl Material.003
f 31/79/46 30/78/46 66/82/46 68/83/46
f 36/80/47 31/79/47 68/83/47 67/84/47
f 35/81/48 36/80/48 67/84/48 65/85/48
f 30/78/49 35/81/49 65/85/49 66/82/49
usemtl Material.004
f 66/82/50 65/85/50 63/86/50 61/87/50
f 62/88/51 61/87/51 63/86/51 64/89/51
f 65/85/52 67/84/52 64/89/52 63/86/52
f 67/84/53 68/83/53 62/88/53 64/89/53
f 68/83/54 66/82/54 61/87/54 62/88/54
