# Blender v3.3.0 OBJ File: 'untitled.blend'
# www.blender.org
mtllib info.mtl
o Cube
v 0.878959 0.878959 -0.031726
v 0.878959 -0.878959 -0.031726
v 0.878959 0.878959 0.034363
v 0.878959 -0.878959 0.034363
v -0.878959 0.878959 -0.031726
v -0.878959 -0.878959 -0.031726
v -0.878959 0.878959 0.034363
v -0.878959 -0.878959 0.034363
v 1.000000 -1.000000 -0.308608
v -1.000000 -1.000000 -0.308608
v 1.000000 1.000000 -0.308608
v -1.000000 -1.000000 0.329345
v -1.000000 1.000000 0.329345
v 1.000000 1.000000 0.329345
v 1.000000 -1.000000 0.329345
v -1.000000 1.000000 -0.308608
v 0.878959 -0.878959 -0.308608
v -0.878959 -0.878959 -0.308608
v 0.878959 0.878959 -0.308608
v -0.878959 -0.878959 0.329345
v -0.878959 0.878959 0.329345
v 0.878959 0.878959 0.329345
v 0.878959 -0.878959 0.329345
v -0.878959 0.878959 -0.308608
v -0.197857 -0.621717 0.198195
v -0.197857 0.676408 0.198195
v -0.197857 -0.621717 -0.190282
v -0.197857 0.676408 -0.190282
v 0.179627 -0.621717 0.198195
v 0.179627 0.676408 0.198195
v 0.179627 -0.621717 -0.190282
v 0.179627 0.676408 -0.190282
v -0.197857 0.475393 0.198195
v -0.197857 0.475393 -0.190282
v 0.179627 0.475393 -0.190282
v 0.179627 0.475393 0.198195
v -0.197857 0.426848 -0.190282
v 0.179627 0.426848 -0.190282
v 0.179627 0.426848 0.198195
v -0.197857 0.426848 0.198195
vt 0.625000 0.500000
vt 0.875000 0.500000
vt 0.875000 0.750000
vt 0.625000 0.750000
vt 0.390130 0.765130
vt 0.609870 0.765130
vt 0.609870 0.984870
vt 0.390130 0.984870
vt 0.375000 0.000000
vt 0.625000 0.000000
vt 0.625000 0.250000
vt 0.375000 0.250000
vt 0.125000 0.500000
vt 0.375000 0.500000
vt 0.375000 0.750000
vt 0.125000 0.750000
vt 0.390130 0.265130
vt 0.609870 0.265130
vt 0.609870 0.484870
vt 0.390130 0.484870
vt 0.390130 0.265130
vt 0.390130 0.484870
vt 0.609870 0.484870
vt 0.390130 0.984870
vt 0.609870 0.984870
vt 0.625000 1.000000
vt 0.375000 1.000000
vt 0.609870 0.765130
vt 0.390130 0.765130
vt 0.609870 0.265130
vt 0.586287 0.000000
vt 0.625000 0.000000
vt 0.625000 0.250000
vt 0.586287 0.250000
vt 0.625000 0.500000
vt 0.586287 0.500000
vt 0.625000 0.750000
vt 0.586287 0.750000
vt 0.625000 1.000000
vt 0.586287 1.000000
vt 0.125000 0.500000
vt 0.375000 0.500000
vt 0.375000 0.750000
vt 0.125000 0.750000
vt 0.875000 0.500000
vt 0.875000 0.750000
vt 0.375000 0.000000
vt 0.576938 0.000000
vt 0.576938 0.250000
vt 0.375000 0.250000
vt 0.576938 0.500000
vt 0.576938 0.750000
vt 0.576938 1.000000
vt 0.375000 1.000000
vn 0.0000 1.0000 0.0000
vn 0.0000 0.0000 1.0000
vn -1.0000 0.0000 0.0000
vn 0.0000 -1.0000 0.0000
vn 1.0000 0.0000 0.0000
vn 0.0000 0.0000 -1.0000
usemtl Material
s off
f 11/1/1 16/2/1 13/3/1 14/4/1
f 4/5/2 3/6/2 7/7/2 8/8/2
f 12/9/3 13/10/3 16/11/3 10/12/3
f 10/13/4 9/14/4 15/15/4 12/16/4
f 9/14/5 11/1/5 14/4/5 15/15/5
f 6/17/6 5/18/6 1/19/6 2/20/6
f 18/21/6 17/22/6 9/14/6 10/12/6
f 17/22/6 19/23/6 11/1/6 9/14/6
f 20/24/2 21/25/2 13/26/2 12/27/2
f 22/28/2 23/29/2 15/15/2 14/4/2
f 24/30/6 18/21/6 10/12/6 16/11/6
f 21/25/2 22/28/2 14/4/2 13/26/2
f 23/29/2 20/24/2 12/27/2 15/15/2
f 19/23/6 24/30/6 16/11/6 11/1/6
f 6/17/1 2/20/1 17/22/1 18/21/1
f 2/20/3 1/19/3 19/23/3 17/22/3
f 8/8/5 7/7/5 21/25/5 20/24/5
f 3/6/3 4/5/3 23/29/3 22/28/3
f 5/18/5 6/17/5 18/21/5 24/30/5
f 7/7/4 3/6/4 22/28/4 21/25/4
f 4/5/1 8/8/1 20/24/1 23/29/1
f 1/19/4 5/18/4 24/30/4 19/23/4
usemtl Material.007
f 33/31/3 26/32/3 28/33/3 34/34/3
f 34/34/6 28/33/6 32/35/6 35/36/6
f 35/36/5 32/35/5 30/37/5 36/38/5
f 36/38/2 30/37/2 26/39/2 33/40/2
f 27/41/4 31/42/4 29/43/4 25/44/4
f 32/35/1 28/45/1 26/46/1 30/37/1
f 25/47/3 40/48/3 37/49/3 27/50/3
f 27/50/6 37/49/6 38/51/6 31/42/6
f 31/42/5 38/51/5 39/52/5 29/43/5
f 29/43/2 39/52/2 40/53/2 25/54/2
