# Blender v3.3.1 OBJ File: ''
# www.blender.org
mtllib banner_outline.mtl
o Cube.001
v 0.000000 -1.000000 -0.010000
v 0.580224 -0.421458 -0.010000
v 0.580224 -0.421458 0.010000
v 0.000000 -1.000000 0.010000
v 1.000000 0.000000 -0.010000
v 1.000000 1.000000 -0.010000
v 1.000000 1.000000 0.010000
v 1.000000 -0.000000 0.010000
v 0.000000 1.000000 -0.010000
v 0.000000 1.000000 0.010000
v -0.580224 -0.421458 0.010000
v -0.580224 -0.421458 -0.010000
v -1.000000 0.000000 -0.010000
v -1.000000 -0.000000 0.010000
v -1.000000 1.000000 0.010000
v -1.000000 1.000000 -0.010000
v -0.000000 -1.161240 -0.013193
v 0.657202 -0.505943 -0.013193
v 0.657202 -0.505943 0.009461
v -0.000000 -1.161240 0.009461
v 1.132669 -0.028571 -0.013192
v 1.132669 1.104098 -0.013192
v 1.132669 1.104098 0.009461
v 1.132669 -0.028571 0.009461
v -0.000000 1.104098 -0.013192
v -0.000000 1.104098 0.009461
v -0.657202 -0.505943 0.009461
v -0.657202 -0.505943 -0.013193
v -1.132669 -0.028571 -0.013192
v -1.132669 -0.028571 0.009461
v -1.132669 1.104098 0.009461
v -1.132669 1.104098 -0.013192
vt 0.250000 0.500000
vt 0.250000 0.750000
vt 0.375000 0.750000
vt 0.375000 0.500000
vt 0.500000 0.500000
vt 0.500000 0.750000
vt 0.625000 0.750000
vt 0.625000 0.500000
vt 0.750000 0.750000
vt 0.750000 0.500000
vt 0.375000 0.500000
vt 0.375000 0.750000
vt 0.500000 0.500000
vt 0.625000 0.500000
vt 0.625000 0.750000
vt 0.500000 0.750000
vt 0.250000 0.500000
vt 0.375000 0.500000
vt 0.375000 0.750000
vt 0.250000 0.750000
vt 0.500000 0.500000
vt 0.625000 0.500000
vt 0.625000 0.750000
vt 0.500000 0.750000
vt 0.750000 0.500000
vt 0.750000 0.750000
vt 0.375000 0.750000
vt 0.375000 0.500000
vt 0.500000 0.500000
vt 0.500000 0.750000
vt 0.625000 0.750000
vt 0.625000 0.500000
vn -0.7061 0.7081 0.0000
vn -0.7073 0.7069 0.0000
vn -1.0000 0.0000 0.0000
vn -0.7085 0.7057 0.0000
vn 0.0000 -1.0000 0.0000
vn 0.7061 0.7081 0.0000
vn 0.7073 0.7069 0.0000
vn 1.0000 0.0000 0.0000
vn 0.7085 0.7057 0.0000
vn 0.7061 -0.7081 0.0000
vn 0.7073 -0.7069 0.0000
vn 0.7085 -0.7057 0.0000
vn 0.0000 1.0000 0.0000
vn -0.7061 -0.7081 0.0000
vn -0.7073 -0.7069 0.0000
vn -0.7085 -0.7057 0.0000
vn 0.0000 0.0052 1.0000
vn 0.0198 0.0198 -0.9996
vn 0.0197 0.0198 -0.9996
vn -0.0033 -0.0033 1.0000
vn -0.0198 0.0198 -0.9996
vn -0.0198 0.0197 -0.9996
vn 0.0198 0.0197 -0.9996
vn -0.0041 -0.0000 1.0000
vn -0.0241 0.0000 -0.9997
vn 0.0241 0.0000 -0.9997
vn 0.0033 -0.0033 1.0000
vn 0.0000 -0.0307 -0.9995
vn 0.0041 -0.0000 1.0000
vn -0.0197 0.0198 -0.9996
usemtl Material.001
s 1
f 1/1/1 4/2/1 3/3/2 2/4/2
f 5/5/3 8/6/3 7/7/3 6/8/3
f 2/4/2 3/3/2 8/6/4 5/5/4
f 6/8/5 7/7/5 10/9/5 9/10/5
f 1/1/6 12/11/7 11/12/7 4/2/6
f 13/13/8 16/14/8 15/15/8 14/16/8
f 12/11/7 13/13/9 14/16/9 11/12/7
f 16/14/5 9/10/5 10/9/5 15/15/5
f 17/17/10 18/18/11 19/19/11 20/20/10
f 21/21/8 22/22/8 23/23/8 24/24/8
f 18/18/11 21/21/12 24/24/12 19/19/11
f 22/22/13 25/25/13 26/26/13 23/23/13
f 17/17/14 20/20/14 27/27/15 28/28/15
f 29/29/3 30/30/3 31/31/3 32/32/3
f 28/28/15 27/27/15 30/30/16 29/29/16
f 32/32/13 31/31/13 26/26/13 25/25/13
f 15/15/17 10/9/17 26/26/17 31/31/17
f 12/11/18 1/1/19 17/17/19 28/28/18
f 11/12/20 14/16/20 30/30/20 27/27/20
f 2/4/21 5/5/22 21/21/22 18/18/21
f 13/13/23 12/11/18 28/28/18 29/29/23
f 14/16/24 15/15/24 31/31/24 30/30/24
f 5/5/25 6/8/25 22/22/25 21/21/25
f 16/14/26 13/13/26 29/29/26 32/32/26
f 8/6/27 3/3/27 19/19/27 24/24/27
f 9/10/28 16/14/28 32/32/28 25/25/28
f 7/7/29 8/6/29 24/24/29 23/23/29
f 3/3/27 4/2/27 20/20/27 19/19/27
f 6/8/28 9/10/28 25/25/28 22/22/28
f 1/1/30 2/4/21 18/18/21 17/17/30
f 4/2/20 11/12/20 27/27/20 20/20/20
f 10/9/17 7/7/17 23/23/17 26/26/17
