# Blender v3.3.0 OBJ File: ''
# www.blender.org
mtllib axe.mtl
o Cylinder.001
v -0.003131 0.537320 -0.059247
v -0.156321 0.538267 0.000000
v 0.153276 0.605745 0.000000
v -0.013371 0.441082 -0.013371
v -0.018909 0.441082 0.000000
v 0.000000 0.441082 -0.018909
v 0.018909 0.441082 0.000000
v 0.013371 0.441082 -0.013371
v 0.168560 0.391300 0.000000
v 0.248578 0.515461 0.000000
v -0.003131 0.537320 0.059247
v -0.013371 0.441082 0.013371
v 0.000000 0.441082 0.018909
v 0.013371 0.441082 0.013371
v -0.021714 -0.218917 -0.000000
v -0.015354 -0.218917 -0.015354
v 0.000000 -0.218917 -0.021714
v 0.015354 -0.218917 -0.015354
v 0.021713 -0.218917 -0.000000
v -0.015354 -0.218917 0.015354
v 0.000000 -0.218917 0.021714
v 0.015354 -0.218917 0.015354
v 0.004436 0.597149 0.000000
vt 0.875000 1.000000
vt 1.000000 1.000000
vt 0.937500 1.000000
vt 0.875000 1.000000
vt 0.875000 1.000000
vt 1.000000 1.000000
vt 0.000000 0.000000
vt 0.000000 0.000000
vt 0.000000 0.000000
vt 0.500000 1.000000
vt 0.625000 1.000000
vt 0.625000 1.000000
vt 0.500000 1.000000
vt 0.000000 0.000000
vt 0.500000 1.000000
vt 0.500000 1.000000
vt 0.875000 1.000000
vt 0.875000 1.000000
vt 0.000000 0.000000
vt 0.000000 0.000000
vt 0.000000 0.000000
vt 0.625000 1.000000
vt 0.625000 1.000000
vt 0.000000 0.000000
vt 1.000000 0.500000
vt 0.875000 0.500000
vt 0.750000 1.000000
vt 0.750000 0.500000
vt 0.625000 0.500000
vt 0.500000 0.500000
vt 0.875000 0.500000
vt 0.750000 0.500000
vt 0.750000 1.000000
vt 0.625000 0.500000
vn -0.1537 0.7050 -0.6923
vn -0.3757 -0.4404 -0.8154
vn -0.3553 -0.3711 -0.8579
vn -0.1005 -0.5382 -0.8368
vn 0.3583 -0.3510 -0.8651
vn 0.2304 0.0164 -0.9729
vn -0.1537 0.7050 0.6923
vn -0.3757 -0.4404 0.8154
vn -0.3553 -0.3711 0.8579
vn -0.1005 -0.5382 0.8368
vn 0.3583 -0.3510 0.8651
vn 0.2304 0.0164 0.9729
vn -0.9239 0.0039 -0.3827
vn -0.3827 0.0039 -0.9239
vn 0.3827 0.0039 -0.9239
vn 0.9239 0.0039 -0.3826
vn -0.9239 0.0039 0.3827
vn -0.3827 0.0039 0.9239
vn 0.3827 0.0039 0.9239
vn 0.9239 0.0039 0.3826
usemtl Material.003
s 1
f 1/1/1 2/2/1 23/3/1 3/4/1
f 4/5/2 5/6/2 2/2/2 1/1/2
f 4/7/3 1/8/3 6/9/3
f 7/10/4 8/11/4 1/12/4 9/13/4
f 1/8/5 8/14/5 6/9/5
f 9/13/6 1/12/6 3/15/6 10/16/6
f 11/17/7 3/4/7 23/3/7 2/2/7
f 12/18/8 11/17/8 2/2/8 5/6/8
f 12/19/9 13/20/9 11/21/9
f 7/10/10 9/13/10 11/22/10 14/23/10
f 11/21/11 13/20/11 14/24/11
f 9/13/12 10/16/12 3/15/12 11/22/12
usemtl Material.004
f 15/25/13 5/6/13 4/5/13 16/26/13
f 16/26/14 4/5/14 6/27/14 17/28/14
f 17/28/15 6/27/15 8/11/15 18/29/15
f 18/29/16 8/11/16 7/10/16 19/30/16
f 15/25/17 20/31/17 12/18/17 5/6/17
f 20/31/18 21/32/18 13/33/18 12/18/18
f 21/32/19 22/34/19 14/23/19 13/33/19
f 22/34/20 19/30/20 7/10/20 14/23/20
