# Blender v3.3.0 OBJ File: ''
# www.blender.org
mtllib bow.mtl
o Cube_Cube.001
v -0.025000 -0.500000 0.025000
v -0.025000 0.500000 0.025000
v -0.025000 -0.500000 -0.025000
v -0.025000 0.500000 -0.025000
v 0.025000 -0.500000 0.025000
v 0.025000 0.500000 0.025000
v 0.025000 -0.500000 -0.025000
v 0.025000 0.500000 -0.025000
v 0.201299 0.000000 0.025000
v 0.201299 0.000000 -0.025000
v 0.251299 0.000000 -0.025000
v 0.251299 0.000000 0.025000
v 0.161736 0.250000 0.025000
v 0.161736 0.250000 -0.025000
v 0.211736 0.250000 -0.025000
v 0.211736 0.250000 0.025000
v 0.085776 0.375000 0.025000
v 0.085776 0.375000 -0.025000
v 0.135776 0.375000 -0.025000
v 0.135776 0.375000 0.025000
v 0.201299 0.125000 -0.025000
v 0.251299 0.125000 -0.025000
v 0.251299 0.125000 0.025000
v 0.201299 0.125000 0.025000
v 0.161736 -0.251724 -0.025000
v 0.211736 -0.251724 -0.025000
v 0.211736 -0.251724 0.025000
v 0.161736 -0.251724 0.025000
v 0.201299 -0.125862 0.025000
v 0.201299 -0.125862 -0.025000
v 0.251299 -0.125862 -0.025000
v 0.251299 -0.125862 0.025000
v 0.085776 -0.375862 -0.025000
v 0.135776 -0.375862 -0.025000
v 0.135776 -0.375862 0.025000
v 0.085776 -0.375862 0.025000
v -0.011985 -0.500000 -0.010000
v -0.014505 0.500000 -0.010000
v -0.003325 -0.500000 -0.005000
v -0.005845 0.500000 -0.005000
v -0.003325 -0.500000 0.005000
v -0.005845 0.500000 0.005000
v -0.011985 -0.500000 0.010000
v -0.014505 0.500000 0.010000
v -0.020645 -0.500000 0.005000
v -0.023166 0.500000 0.005000
v -0.020645 -0.500000 -0.005000
v -0.023166 0.500000 -0.005000
vt 0.593750 0.250000
vt 0.625000 0.250000
vt 0.625000 0.500000
vt 0.593750 0.500000
vt 0.625000 0.750000
vt 0.593750 0.750000
vt 0.625000 1.000000
vt 0.593750 1.000000
vt 0.125000 0.500000
vt 0.375000 0.500000
vt 0.375000 0.750000
vt 0.125000 0.750000
vt 0.875000 0.500000
vt 0.875000 0.750000
vt 0.468535 0.750000
vt 0.500000 0.750000
vt 0.500000 1.000000
vt 0.468535 1.000000
vt 0.468535 0.500000
vt 0.500000 0.500000
vt 0.468535 0.250000
vt 0.500000 0.250000
vt 0.531250 0.750000
vt 0.562500 0.750000
vt 0.562500 1.000000
vt 0.531250 1.000000
vt 0.531250 0.500000
vt 0.562500 0.500000
vt 0.531250 0.250000
vt 0.562500 0.250000
vt 0.406035 0.250000
vt 0.437069 0.250000
vt 0.437069 0.500000
vt 0.406035 0.500000
vt 0.437069 0.750000
vt 0.406035 0.750000
vt 0.437069 1.000000
vt 0.406035 1.000000
vt 0.375000 1.000000
vt 0.375000 0.250000
vt 0.457846 0.370000
vt 0.250000 0.490000
vt 0.042154 0.370000
vt 0.042154 0.130000
vt 0.250000 0.010000
vt 0.457846 0.130000
vt 0.750000 0.490000
vt 0.957846 0.370000
vt 0.957846 0.130000
vt 0.750000 0.010000
vt 0.542154 0.130000
vt 0.542154 0.370000
vt 1.000000 0.500000
vt 1.000000 1.000000
vt 0.833333 1.000000
vt 0.833333 0.500000
vt 0.666667 1.000000
vt 0.666667 0.500000
vt 0.500000 1.000000
vt 0.500000 0.500000
vt 0.333333 1.000000
vt 0.333333 0.500000
vt 0.166667 1.000000
vt 0.166667 0.500000
vt -0.000000 1.000000
vt -0.000000 0.500000
vn 0.0000 0.0000 -1.0000
vn 0.7484 0.6632 0.0000
vn 0.0000 0.0000 1.0000
vn 0.0000 -1.0000 0.0000
vn 0.0000 1.0000 0.0000
vn 1.0000 0.0000 0.0000
vn 0.9534 0.3017 0.0000
vn 0.8546 0.5193 0.0000
vn 0.8530 -0.5219 0.0000
vn 0.9540 -0.2999 0.0000
vn 0.7461 -0.6658 0.0000
vn 0.5000 0.0013 -0.8660
vn 1.0000 0.0025 0.0000
vn 0.5000 0.0013 0.8660
vn -0.5000 -0.0013 0.8660
vn -1.0000 -0.0025 0.0000
vn -0.5000 -0.0013 -0.8660
usemtl Material.003
s off
f 18/1/1 4/2/1 8/3/1 19/4/1
f 19/4/2 8/3/2 6/5/2 20/6/2
f 20/6/3 6/5/3 2/7/3 17/8/3
f 3/9/4 7/10/4 5/11/4 1/12/4
f 8/3/5 4/13/5 2/14/5 6/5/5
f 32/15/3 12/16/3 9/17/3 29/18/3
f 31/19/6 11/20/6 12/16/6 32/15/6
f 30/21/1 10/22/1 11/20/1 31/19/1
f 23/23/3 16/24/3 13/25/3 24/26/3
f 22/27/7 15/28/7 16/24/7 23/23/7
f 21/29/1 14/30/1 15/28/1 22/27/1
f 16/24/3 20/6/3 17/8/3 13/25/3
f 15/28/8 19/4/8 20/6/8 16/24/8
f 14/30/1 18/1/1 19/4/1 15/28/1
f 10/22/1 21/29/1 22/27/1 11/20/1
f 11/20/6 22/27/6 23/23/6 12/16/6
f 12/16/3 23/23/3 24/26/3 9/17/3
f 33/31/1 25/32/1 26/33/1 34/34/1
f 34/34/9 26/33/9 27/35/9 35/36/9
f 35/36/3 27/35/3 28/37/3 36/38/3
f 25/32/1 30/21/1 31/19/1 26/33/1
f 26/33/10 31/19/10 32/15/10 27/35/10
f 27/35/3 32/15/3 29/18/3 28/37/3
f 5/11/3 35/36/3 36/38/3 1/39/3
f 7/10/11 34/34/11 35/36/11 5/11/11
f 3/40/1 33/31/1 34/34/1 7/10/1
f 40/41/5 38/42/5 48/43/5 46/44/5 44/45/5 42/46/5
f 37/47/4 39/48/4 41/49/4 43/50/4 45/51/4 47/52/4
usemtl Material.004
f 37/53/12 38/54/12 40/55/12 39/56/12
f 39/56/13 40/55/13 42/57/13 41/58/13
f 41/58/14 42/57/14 44/59/14 43/60/14
f 43/60/15 44/59/15 46/61/15 45/62/15
f 45/62/16 46/61/16 48/63/16 47/64/16
f 47/64/17 48/63/17 38/65/17 37/66/17
