# Blender v3.3.0 OBJ File: ''
# www.blender.org
mtllib bow.mtl
o Cube_Cube.001
v 0.085776 0.375000 -0.025000
v -0.025000 0.500000 -0.025000
v 0.025000 0.500000 -0.025000
v 0.135776 0.375000 -0.025000
v 0.025000 0.500000 0.025000
v 0.135776 0.375000 0.025000
v -0.025000 0.500000 0.025000
v 0.085776 0.375000 0.025000
v -0.025000 -0.500000 -0.025000
v 0.025000 -0.500000 -0.025000
v 0.025000 -0.500000 0.025000
v -0.025000 -0.500000 0.025000
v 0.251299 -0.125862 0.025000
v 0.251299 -0.000000 0.025000
v 0.201299 -0.000000 0.025000
v 0.201299 -0.125862 0.025000
v 0.251299 -0.125862 -0.025000
v 0.251299 0.000000 -0.025000
v 0.201299 -0.125862 -0.025000
v 0.201299 0.000000 -0.025000
v 0.251299 0.125000 0.025000
v 0.211736 0.250000 0.025000
v 0.161736 0.250000 0.025000
v 0.201299 0.125000 0.025000
v 0.251299 0.125000 -0.025000
v 0.211736 0.250000 -0.025000
v 0.201299 0.125000 -0.025000
v 0.161736 0.250000 -0.025000
v 0.085776 -0.375862 -0.025000
v 0.161736 -0.251724 -0.025000
v 0.211736 -0.251724 -0.025000
v 0.135776 -0.375862 -0.025000
v 0.211736 -0.251724 0.025000
v 0.135776 -0.375862 0.025000
v 0.161736 -0.251724 0.025000
v 0.085776 -0.375862 0.025000
v -0.005845 0.500000 -0.005000
v -0.023166 0.500000 -0.005000
v -0.023166 0.500000 0.005000
v -0.005845 0.500000 0.005000
v -0.003325 -0.500000 -0.005000
v -0.003325 -0.500000 0.005000
v -0.020645 -0.500000 0.005000
v -0.020645 -0.500000 -0.005000
vt 0.000000 0.000000
vt 0.000000 0.000000
vt 0.000000 0.000000
vt 0.000000 0.000000
vt 0.000000 0.000000
vt 0.000000 0.000000
vt 0.000000 0.000000
vt 0.000000 0.000000
vt 0.000000 0.000000
vt 0.000000 0.000000
vt 0.000000 0.000000
vt 0.000000 0.000000
vt 0.000000 0.000000
vt 0.000000 0.000000
vt 0.000000 0.000000
vt 0.000000 0.000000
vt 0.000000 0.000000
vt 0.000000 0.000000
vt 0.593750 0.250000
vt 0.625000 0.250000
vt 0.625000 0.500000
vt 0.593750 0.500000
vt 0.625000 0.750000
vt 0.593750 0.750000
vt 0.625000 1.000000
vt 0.593750 1.000000
vt 0.125000 0.500000
vt 0.375000 0.500000
vt 0.375000 0.750000
vt 0.125000 0.750000
vt 0.875000 0.500000
vt 0.875000 0.750000
vt 0.468535 0.750000
vt 0.500000 0.750000
vt 0.500000 1.000000
vt 0.468535 1.000000
vt 0.468535 0.500000
vt 0.500000 0.500000
vt 0.468535 0.250000
vt 0.500000 0.250000
vt 0.531250 0.750000
vt 0.562500 0.750000
vt 0.562500 1.000000
vt 0.531250 1.000000
vt 0.531250 0.500000
vt 0.562500 0.500000
vt 0.531250 0.250000
vt 0.562500 0.250000
vt 0.406035 0.250000
vt 0.437069 0.250000
vt 0.437069 0.500000
vt 0.406035 0.500000
vt 0.437069 0.750000
vt 0.406035 0.750000
vt 0.437069 1.000000
vt 0.406035 1.000000
vt 0.375000 1.000000
vt 0.375000 0.250000
vt 0.957846 0.370000
vt 0.957846 0.130000
vt 0.542154 0.130000
vt 0.542154 0.370000
vt 0.833333 0.500000
vt 0.833333 1.000000
vt 0.666667 1.000000
vt 0.666667 0.500000
vt 0.042154 0.370000
vt 0.333333 1.000000
vt 0.333333 0.500000
vt 0.457846 0.130000
vt 0.166667 0.500000
vt 0.166667 1.000000
vn -0.7484 -0.6632 0.0000
vn -0.8546 -0.5193 0.0000
vn -0.7461 0.6658 0.0000
vn -0.8530 0.5219 0.0000
vn -0.9540 0.2999 0.0000
vn -1.0000 0.0000 0.0000
vn -0.9534 -0.3018 0.0000
vn 0.0000 0.0000 -1.0000
vn 0.7484 0.6632 0.0000
vn 0.0000 -0.0000 1.0000
vn 0.0000 -1.0000 0.0000
vn 0.0000 1.0000 0.0000
vn 1.0000 -0.0000 0.0000
vn 0.9534 0.3018 0.0000
vn 0.8546 0.5193 0.0000
vn 0.8530 -0.5219 0.0000
vn 0.9540 -0.2999 0.0000
vn 0.7461 -0.6658 0.0000
vn 1.0000 0.0025 0.0000
vn 0.0000 0.0000 0.0000
vn -1.0000 -0.0025 0.0000
usemtl Material.003
s off
f 8/1/1 2/2/1 1/3/1
f 8/1/1 7/4/1 2/2/1
f 23/5/2 1/3/2 28/6/2
f 23/5/2 8/1/2 1/3/2
f 12/7/3 29/8/3 9/9/3
f 12/7/3 36/10/3 29/8/3
f 36/10/4 30/11/4 29/8/4
f 36/10/4 35/12/4 30/11/4
f 35/12/5 19/13/5 30/11/5
f 35/12/5 16/14/5 19/13/5
f 16/14/6 20/15/6 19/13/6
f 16/14/6 15/16/6 20/15/6
f 15/16/6 27/17/6 20/15/6
f 15/16/6 24/18/6 27/17/6
f 24/18/7 28/6/7 27/17/7
f 24/18/7 23/5/7 28/6/7
s 1
f 1/19/8 2/20/8 3/21/8 4/22/8
f 4/22/9 3/21/9 5/23/9 6/24/9
f 6/24/10 5/23/10 7/25/10 8/26/10
f 9/27/11 10/28/11 11/29/11 12/30/11
f 3/21/12 2/31/12 7/32/12 5/23/12
f 13/33/10 14/34/10 15/35/10 16/36/10
f 17/37/13 18/38/13 14/34/13 13/33/13
f 19/39/8 20/40/8 18/38/8 17/37/8
f 21/41/10 22/42/10 23/43/10 24/44/10
f 25/45/14 26/46/14 22/42/14 21/41/14
f 27/47/8 28/48/8 26/46/8 25/45/8
f 22/42/10 6/24/10 8/26/10 23/43/10
f 26/46/15 4/22/15 6/24/15 22/42/15
f 28/48/8 1/19/8 4/22/8 26/46/8
f 20/40/8 27/47/8 25/45/8 18/38/8
f 18/38/13 25/45/13 21/41/13 14/34/13
f 14/34/10 21/41/10 24/44/10 15/35/10
f 29/49/8 30/50/8 31/51/8 32/52/8
f 32/52/16 31/51/16 33/53/16 34/54/16
f 34/54/10 33/53/10 35/55/10 36/56/10
f 30/50/8 19/39/8 17/37/8 31/51/8
f 31/51/17 17/37/17 13/33/17 33/53/17
f 33/53/10 13/33/10 16/36/10 35/55/10
f 11/29/10 34/54/10 36/56/10 12/57/10
f 10/28/18 32/52/18 34/54/18 11/29/18
f 9/58/8 29/49/8 32/52/8 10/28/8
f 41/59/11 42/60/11 43/61/11 44/62/11
usemtl Material.004
f 41/63/19 37/64/19 40/65/19 42/66/19
f 38/67/20 39/68/20 43/69/20 42/66/20 40/70/20 37/64/20 41/63/20 44/71/20
f 43/69/21 39/68/21 38/72/21 44/71/21
