# Blender v3.3.0 OBJ File: ''
# www.blender.org
mtllib crossbow.mtl
o Cube_Cube.001
v 0.017301 -0.226451 0.492004
v 0.017301 -0.070495 0.492004
v -0.015786 -0.226451 0.492004
v -0.015786 -0.070495 0.492004
v 0.119903 -0.058020 -0.549668
v 0.119903 -0.004376 -0.549668
v -0.118668 -0.058020 -0.549668
v -0.118668 -0.004376 -0.549668
v -0.049382 -0.093505 -0.148055
v -0.049382 -0.004143 -0.148055
v 0.050618 -0.093505 -0.148055
v 0.050618 -0.004143 -0.148055
v -0.049382 -0.004143 -0.437500
v 0.050618 -0.058765 -0.437500
v -0.049382 -0.058765 -0.437500
v 0.050618 -0.004143 -0.437500
v -0.049382 -0.148380 0.080470
v 0.050618 -0.048380 0.080470
v -0.049382 -0.048380 0.080470
v 0.050618 -0.148380 0.080470
v 0.375618 0.025000 -0.277333
v 0.500618 0.025000 -0.166557
v 0.500618 0.025000 -0.216557
v 0.375618 0.025000 -0.327333
v 0.500618 -0.025000 -0.216557
v 0.375618 -0.025000 -0.327333
v 0.500618 -0.025000 -0.166557
v 0.375618 -0.025000 -0.277333
v -0.499382 0.025000 -0.166557
v -0.499382 0.025000 -0.216557
v -0.499382 -0.025000 -0.216557
v -0.499382 -0.025000 -0.166557
v -0.125244 -0.025000 -0.442856
v 0.000618 -0.025000 -0.442856
v 0.000618 -0.025000 -0.392856
v -0.125244 -0.025000 -0.392856
v -0.125244 0.025000 -0.442856
v 0.000618 0.025000 -0.442856
v -0.125244 0.025000 -0.392856
v 0.000618 0.025000 -0.392856
v 0.125618 -0.025000 -0.442856
v 0.250618 -0.025000 -0.403293
v 0.250618 -0.025000 -0.353293
v 0.125618 -0.025000 -0.392856
v 0.125618 0.025000 -0.442856
v 0.250618 0.025000 -0.403293
v 0.125618 0.025000 -0.392856
v 0.250618 0.025000 -0.353293
v -0.375244 0.025000 -0.277333
v -0.251106 0.025000 -0.353293
v -0.251106 0.025000 -0.403293
v -0.375244 0.025000 -0.327333
v -0.251106 -0.025000 -0.403293
v -0.375244 -0.025000 -0.327333
v -0.251106 -0.025000 -0.353293
v -0.375244 -0.025000 -0.277333
v 0.500618 0.005000 -0.185712
v 0.500618 0.010000 -0.177052
v 0.500618 0.005000 -0.168391
v 0.500618 -0.005000 -0.168391
v 0.500618 -0.010000 -0.177052
v 0.500618 -0.005000 -0.185712
v -0.499382 0.010000 -0.179572
v -0.499382 0.005000 -0.188232
v -0.499382 -0.005000 -0.188232
v -0.499382 -0.010000 -0.179572
v -0.499382 -0.005000 -0.170912
v -0.499382 0.005000 -0.170912
vt 0.375000 0.000000
vt 0.625000 0.000000
vt 0.625000 0.250000
vt 0.375000 0.250000
vt 0.375000 0.484375
vt 0.625000 0.484375
vt 0.625000 0.500000
vt 0.375000 0.500000
vt 0.625000 0.750000
vt 0.375000 0.750000
vt 0.375000 0.937500
vt 0.625000 0.937500
vt 0.625000 1.000000
vt 0.375000 1.000000
vt 0.359375 0.500000
vt 0.359375 0.750000
vt 0.812500 0.500000
vt 0.875000 0.500000
vt 0.875000 0.750000
vt 0.812500 0.750000
vt 0.187500 0.500000
vt 0.250000 0.500000
vt 0.250000 0.750000
vt 0.187500 0.750000
vt 0.375000 0.312500
vt 0.625000 0.312500
vt 0.625000 0.375000
vt 0.375000 0.375000
vt 0.375000 0.765625
vt 0.625000 0.765625
vt 0.625000 0.875000
vt 0.750000 0.500000
vt 0.640625 0.500000
vt 0.640625 0.750000
vt 0.125000 0.500000
vt 0.125000 0.750000
vt 0.750000 0.750000
vt 0.375000 0.875000
vt 0.593750 0.250000
vt 0.625000 0.250000
vt 0.625000 0.500000
vt 0.593750 0.500000
vt 0.625000 0.750000
vt 0.593750 0.750000
vt 0.625000 1.000000
vt 0.593750 1.000000
vt 0.125000 0.500000
vt 0.375000 0.500000
vt 0.375000 0.750000
vt 0.125000 0.750000
vt 0.875000 0.500000
vt 0.875000 0.750000
vt 0.468535 0.750000
vt 0.500000 0.750000
vt 0.500000 1.000000
vt 0.468535 1.000000
vt 0.468535 0.500000
vt 0.500000 0.500000
vt 0.468535 0.250000
vt 0.500000 0.250000
vt 0.531250 0.750000
vt 0.562500 0.750000
vt 0.562500 1.000000
vt 0.531250 1.000000
vt 0.531250 0.500000
vt 0.562500 0.500000
vt 0.531250 0.250000
vt 0.562500 0.250000
vt 0.406035 0.250000
vt 0.437069 0.250000
vt 0.437069 0.500000
vt 0.406035 0.500000
vt 0.437069 0.750000
vt 0.406035 0.750000
vt 0.437069 1.000000
vt 0.406035 1.000000
vt 0.375000 1.000000
vt 0.375000 0.250000
vt 0.457846 0.370000
vt 0.250000 0.490000
vt 0.042154 0.370000
vt 0.042154 0.130000
vt 0.250000 0.010000
vt 0.457846 0.130000
vt 0.750000 0.490000
vt 0.957846 0.370000
vt 0.957846 0.130000
vt 0.750000 0.010000
vt 0.542154 0.130000
vt 0.542154 0.370000
vt 1.000000 0.500000
vt 1.000000 1.000000
vt 0.833333 1.000000
vt 0.833333 0.500000
vt 0.666667 1.000000
vt 0.666667 0.500000
vt 0.500000 1.000000
vt 0.500000 0.500000
vt 0.333333 1.000000
vt 0.333333 0.500000
vt 0.166667 1.000000
vt 0.166667 0.500000
vt -0.000000 1.000000
vt -0.000000 0.500000
vn 0.0000 0.0000 1.0000
vn -0.8508 0.0000 0.5255
vn 0.0000 0.0000 -1.0000
vn 0.9967 0.0000 0.0807
vn 0.0000 -1.0000 -0.0066
vn 0.0000 0.9986 0.0537
vn 0.0000 -0.9724 -0.2335
vn -1.0000 0.0000 0.0000
vn 1.0000 0.0000 -0.0000
vn 0.8508 0.0000 0.5255
vn 0.0000 1.0000 -0.0021
vn 0.0000 -0.9929 -0.1192
vn -0.9967 0.0000 0.0814
vn 0.0000 -0.9825 -0.1864
vn 0.0000 0.9818 0.1900
vn 0.0000 1.0000 -0.0000
vn 0.8805 0.4740 0.0000
vn 0.7116 0.6254 -0.3202
vn 0.4311 0.6875 -0.5844
vn 0.7116 -0.6254 -0.3202
vn 0.4311 -0.6875 -0.5844
vn 0.8805 -0.4740 0.0000
vn -0.0000 -1.0000 0.0000
vn -0.8813 0.4725 0.0000
vn -0.7120 0.6256 -0.3189
vn -0.7120 -0.6256 -0.3189
vn -0.8813 -0.4725 0.0000
vn -0.1120 -0.6745 -0.7297
vn -0.0000 -0.7071 -0.7071
vn -0.1120 0.6745 -0.7297
vn 0.0000 0.7071 -0.7071
vn 0.1127 -0.6743 -0.7298
vn 0.3027 -0.6812 -0.6666
vn 0.1127 0.6743 -0.7298
vn 0.3027 0.6812 -0.6666
vn -0.3033 0.6807 -0.6669
vn -0.4330 0.6875 -0.5830
vn -0.3033 -0.6807 -0.6669
vn -0.4330 -0.6875 -0.5830
vn 0.6108 0.3962 -0.6855
vn 0.6100 0.7924 0.0006
vn 0.6092 0.3962 0.6870
vn 0.6092 -0.3962 0.6870
vn 0.6100 -0.7924 0.0006
vn 0.6108 -0.3962 -0.6855
vn -0.6100 0.7924 -0.0006
vn -0.6092 0.3962 -0.6870
vn -0.6092 -0.3962 -0.6870
vn -0.6100 -0.7924 -0.0006
vn -0.6108 -0.3962 0.6855
vn -0.6108 0.3962 0.6855
usemtl Material.003
s off
f 1/1/1 2/2/1 4/3/1 3/4/1
f 15/5/2 13/6/2 8/7/2 7/8/2
f 7/8/3 8/7/3 6/9/3 5/10/3
f 20/11/4 18/12/4 2/13/4 1/14/4
f 15/15/5 7/8/5 5/10/5 14/16/5
f 19/17/6 4/18/6 2/19/6 18/20/6
f 17/21/7 9/22/7 11/23/7 20/24/7
f 17/25/8 19/26/8 10/27/8 9/28/8
f 11/23/9 14/29/9 16/30/9 12/31/9
f 10/32/8 13/6/8 15/5/8 9/28/8
f 5/10/10 6/9/10 16/30/10 14/29/10
f 8/7/11 13/33/11 16/34/11 6/9/11
f 9/22/12 15/15/12 14/29/12 11/23/12
f 3/4/13 4/3/13 19/26/13 17/25/13
f 3/35/14 17/21/14 20/24/14 1/36/14
f 10/32/15 19/17/15 18/20/15 12/37/15
f 11/38/9 12/31/9 18/12/9 20/11/9
f 12/37/16 16/34/16 13/6/16 10/32/16
s 1
f 21/39/16 22/40/17 23/41/18 24/42/19
f 24/42/19 23/41/18 25/43/20 26/44/21
f 26/44/21 25/43/20 27/45/22 28/46/23
f 29/47/24 30/48/25 31/49/26 32/50/27
f 23/41/18 22/51/17 27/52/22 25/43/20
f 33/53/28 34/54/29 35/55/23 36/56/23
f 37/57/30 38/58/31 34/54/29 33/53/28
f 39/59/16 40/60/16 38/58/31 37/57/30
f 41/61/32 42/62/33 43/63/23 44/64/23
f 45/65/34 46/66/35 42/62/33 41/61/32
f 47/67/16 48/68/16 46/66/35 45/65/34
f 42/62/33 26/44/21 28/46/23 43/63/23
f 46/66/35 24/42/19 26/44/21 42/62/33
f 48/68/16 21/39/16 24/42/19 46/66/35
f 40/60/16 47/67/16 45/65/34 38/58/31
f 38/58/31 45/65/34 41/61/32 34/54/29
f 34/54/29 41/61/32 44/64/23 35/55/23
f 49/69/16 50/70/16 51/71/36 52/72/37
f 52/72/37 51/71/36 53/73/38 54/74/39
f 54/74/39 53/73/38 55/75/23 56/76/23
f 50/70/16 39/59/16 37/57/30 51/71/36
f 51/71/36 37/57/30 33/53/28 53/73/38
f 53/73/38 33/53/28 36/56/23 55/75/23
f 31/49/26 54/74/39 56/76/23 32/77/27
f 30/48/25 52/72/37 54/74/39 31/49/26
f 29/78/24 49/69/16 52/72/37 30/48/25
f 57/79/40 58/80/41 59/81/42 60/82/43 61/83/44 62/84/45
f 63/85/46 64/86/47 65/87/48 66/88/49 67/89/50 68/90/51
usemtl Material.004
f 63/91/46 58/92/41 57/93/40 64/94/47
f 64/94/47 57/93/40 62/95/45 65/96/48
f 65/96/48 62/95/45 61/97/44 66/98/49
f 66/98/49 61/97/44 60/99/43 67/100/50
f 67/100/50 60/99/43 59/101/42 68/102/51
f 68/102/51 59/101/42 58/103/41 63/104/46
