# Blender v3.3.0 OBJ File: ''
# www.blender.org
mtllib mace.mtl
o Cylinder.001
v -0.013371 0.441082 -0.013371
v -0.018909 0.441082 0.000000
v 0.000000 0.441082 -0.018909
v 0.018909 0.441082 0.000000
v 0.013371 0.441082 -0.013371
v -0.013371 0.441082 0.013371
v 0.000000 0.441082 0.018909
v 0.013371 0.441082 0.013371
v -0.021714 -0.218917 -0.000000
v -0.015354 -0.218917 -0.015354
v 0.000000 -0.218917 -0.021714
v 0.015354 -0.218917 -0.015354
v 0.021713 -0.218917 -0.000000
v -0.015354 -0.218917 0.015354
v 0.000000 -0.218917 0.021714
v 0.015354 -0.218917 0.015354
v 0.000000 0.622668 0.000000
v 0.000000 0.494201 0.074526
v 0.000000 0.501811 0.075540
v -0.053416 0.501811 0.053416
v -0.052699 0.494201 0.052699
v 0.052699 0.494201 -0.052699
v 0.053416 0.501811 -0.053416
v 0.074526 0.494201 0.000000
v 0.075540 0.501811 0.000000
v -0.053416 0.501811 -0.053416
v -0.052699 0.494201 -0.052699
v 0.000000 0.501811 -0.075540
v 0.000000 0.494201 -0.074526
v -0.074526 0.494201 0.000000
v -0.075540 0.501811 0.000000
v 0.053416 0.501811 0.053416
v 0.052699 0.494201 0.052699
v -0.046619 0.462873 -0.112551
v -0.116077 0.462402 0.048079
v 0.045650 0.463184 0.110211
v 0.116431 0.462355 -0.048226
vt 0.000000 0.000000
vt 0.000000 0.000000
vt 0.000000 0.000000
vt 0.000000 0.000000
vt 0.000000 0.000000
vt 0.000000 0.000000
vt 0.000000 0.000000
vt 0.000000 0.000000
vt 0.000000 0.000000
vt 0.500000 1.000000
vt 0.620842 1.000000
vt 0.500000 1.000000
vt 1.000000 1.000000
vt 0.875000 1.000000
vt 0.875000 1.000000
vt 1.000000 1.000000
vt 0.625000 1.000000
vt 0.500000 1.000000
vt 0.500000 1.000000
vt 0.625000 1.000000
vt 0.750000 1.000000
vt 0.629158 1.000000
vt 0.750000 1.000000
vt 0.750000 1.000000
vt 0.870842 1.000000
vt 0.750000 1.000000
vt 0.750000 1.000000
vt 0.875000 1.000000
vt 0.875000 1.000000
vt 1.000000 1.000000
vt 0.879158 1.000000
vt 1.000000 1.000000
vt 0.625000 1.000000
vt 0.750000 1.000000
vt 0.750000 1.000000
vt 0.625000 1.000000
vt 0.754158 1.000000
vt 0.875000 1.000000
vt 0.995842 1.000000
vt 0.875000 1.000000
vt 0.504158 1.000000
vt 0.625000 1.000000
vt 0.875000 1.000000
vt 0.620842 1.000000
vt 0.745842 1.000000
vt 0.745842 1.000000
vt 0.625000 1.000000
vt 0.750000 1.000000
vt 0.750000 1.000000
vt 0.870842 1.000000
vt 0.875000 1.000000
vt 1.000000 1.000000
vt 0.995842 1.000000
vt 0.879158 1.000000
vt 0.629158 1.000000
vt 0.625000 1.000000
vt 0.754158 1.000000
vt 0.500000 1.000000
vt 0.504158 1.000000
vt 0.625000 1.000000
vt 1.000000 0.500000
vt 0.875000 0.500000
vt 0.750000 0.500000
vt 0.625000 0.500000
vt 0.500000 0.500000
vt 0.875000 0.500000
vt 0.750000 0.500000
vt 0.625000 0.500000
vn -0.8001 0.5001 -0.3314
vn 0.3314 0.5001 -0.8001
vn 0.8001 0.5001 0.3314
vn -0.3314 0.5001 0.8001
vn 0.7418 -0.1620 -0.6508
vn 0.9533 -0.2186 -0.2085
vn -0.0000 1.0000 -0.0001
vn -0.6907 -0.7232 -0.0000
vn -0.4884 -0.7232 0.4884
vn 0.4884 -0.7232 0.4884
vn 0.6907 -0.7232 -0.0000
vn 0.6581 -0.1634 0.7350
vn 0.2135 -0.2269 0.9502
vn -0.0001 1.0000 -0.0000
vn -0.6552 -0.1628 -0.7377
vn -0.2115 -0.2236 -0.9515
vn 0.0000 -0.7232 0.6907
vn -0.4884 -0.7232 -0.4884
vn -0.7415 -0.1620 0.6511
vn -0.9531 -0.2191 0.2088
vn -0.0001 1.0000 -0.0001
vn 0.4884 -0.7232 -0.4884
vn 0.0000 -0.7232 -0.6907
vn 0.2046 -0.4920 0.8462
vn -0.7476 -0.4896 0.4488
vn -0.5105 0.3953 0.7636
vn -0.1774 0.3963 0.9008
vn -0.8461 -0.4905 0.2086
vn -0.4537 -0.4920 -0.7431
vn -0.7624 0.3962 -0.5116
vn -0.9009 0.3957 -0.1785
vn 0.7623 0.3963 0.5117
vn 0.9009 0.3953 0.1790
vn 0.8460 -0.4896 -0.2113
vn 0.4540 -0.4921 0.7428
vn -0.0236 -0.9994 0.0242
vn 0.1772 0.3963 -0.9009
vn 0.0339 -0.9994 -0.0065
vn 0.5108 0.3957 -0.7632
vn 0.7458 -0.4905 -0.4507
vn -0.0083 -1.0000 0.0016
vn -0.2042 -0.4921 -0.8462
vn -0.0225 -0.9997 -0.0120
vn -0.9239 0.0039 -0.3827
vn -0.3827 0.0039 -0.9239
vn 0.3827 0.0039 -0.9239
vn 0.9239 0.0039 -0.3826
vn -0.9239 0.0039 0.3827
vn -0.3827 0.0039 0.9239
vn 0.3827 0.0039 0.9239
vn 0.9239 0.0039 0.3826
usemtl Material.003
s off
f 17/1/1 26/2/1 31/3/1
f 23/4/2 28/5/2 17/1/2
f 32/6/3 25/7/3 17/1/3
f 20/8/4 19/9/4 17/1/4
s 1
f 25/10/5 23/11/6 17/12/7
f 2/13/8 6/14/9 21/15/9 30/16/8
f 8/17/10 4/18/11 24/19/11 33/20/10
f 19/21/12 32/22/13 17/23/14
f 28/24/15 26/25/16 17/23/14
f 7/26/17 8/17/10 33/20/10 18/27/17
f 1/28/18 2/13/8 30/16/8 27/29/18
f 31/30/19 20/31/20 17/32/21
f 5/33/22 3/34/23 29/35/23 22/36/22
f 4/18/11 5/33/22 22/36/22 24/19/11
f 6/14/9 7/26/17 18/27/17 21/15/9
f 3/34/23 1/28/18 27/29/18 29/35/23
f 21/15/24 18/27/25 19/37/26 20/38/27
f 27/29/28 30/16/29 31/39/30 26/40/31
f 25/41/32 32/42/33 33/20/34 24/19/35
f 21/15/24 20/38/27 35/43/36
f 23/11/37 25/10/32 37/44/38
f 28/45/39 29/35/40 34/46/41
f 28/45/39 23/47/37 22/36/42 29/35/40
f 18/27/25 33/20/34 36/48/43
f 29/35/40 27/29/28 34/49/41
f 26/25/31 28/24/39 34/50/41
f 27/29/28 26/40/31 34/51/41
f 30/16/29 21/15/24 35/52/36
f 31/39/30 30/16/29 35/53/36
f 20/31/27 31/30/30 35/54/36
f 32/22/33 19/21/26 36/55/43
f 33/20/34 32/42/33 36/56/43
f 19/37/26 18/27/25 36/57/43
f 24/19/35 22/36/42 37/58/38
f 25/41/32 24/19/35 37/59/38
f 22/36/42 23/47/37 37/60/38
usemtl Material.004
f 9/61/44 2/13/44 1/28/44 10/62/44
f 10/62/45 1/28/45 3/34/45 11/63/45
f 11/63/46 3/34/46 5/33/46 12/64/46
f 12/64/47 5/33/47 4/18/47 13/65/47
f 9/61/48 14/66/48 6/14/48 2/13/48
f 14/66/49 15/67/49 7/26/49 6/14/49
f 15/67/50 16/68/50 8/17/50 7/26/50
f 16/68/51 13/65/51 4/18/51 8/17/51
