# Blender v3.3.1 OBJ File: ''
# www.blender.org
mtllib shield.mtl
o Cube_Cube.001
v -0.036867 -0.227382 0.023259
v -0.172870 0.219220 0.014317
v -0.036867 -0.227922 -0.034194
v -0.172870 0.218680 -0.020624
v 0.000000 0.144929 -0.094340
v 0.000000 0.145529 -0.010703
v -0.190774 0.107056 -0.034194
v -0.190774 0.107596 0.023259
v 0.001205 -0.236263 -0.034194
v 0.000000 0.248346 -0.020624
v 0.001205 -0.235723 0.023259
v 0.000000 0.248886 0.010741
v -0.138562 -0.091834 -0.034194
v -0.138562 -0.091294 0.023259
v 0.000000 -0.125645 -0.015815
v 0.000000 -0.126185 -0.081208
v -0.138562 -0.091294 0.023259
v -0.190774 0.107596 0.023259
v 0.000000 0.145529 -0.010703
v 0.000000 -0.125645 -0.015815
v 0.036867 -0.227382 0.023259
v 0.172870 0.219220 0.014317
v 0.036867 -0.227922 -0.034194
v 0.172870 0.218680 -0.020624
v 0.190774 0.107056 -0.034194
v 0.190774 0.107596 0.023259
v -0.001205 -0.236263 -0.034194
v -0.001205 -0.235723 0.023259
v 0.138562 -0.091834 -0.034194
v 0.138562 -0.091294 0.023259
v 0.138562 -0.091294 0.023259
v 0.190774 0.107596 0.023259
vt 0.500000 0.000000
vt 0.625000 0.000000
vt 0.625000 0.250000
vt 0.500000 0.250000
vt 0.375000 0.000000
vt 0.437500 0.000000
vt 0.437500 0.250000
vt 0.375000 0.250000
vt 0.500000 0.875000
vt 0.625000 0.875000
vt 0.625000 1.000000
vt 0.500000 1.000000
vt 0.375000 0.875000
vt 0.437500 0.875000
vt 0.437500 1.000000
vt 0.375000 1.000000
vt 0.750000 0.500000
vt 0.875000 0.500000
vt 0.875000 0.750000
vt 0.750000 0.750000
vt 0.437500 0.875000
vt 0.500000 0.875000
vt 0.500000 1.000000
vt 0.437500 1.000000
vt 0.125000 0.500000
vt 0.250000 0.500000
vt 0.250000 0.750000
vt 0.125000 0.750000
vt 0.625000 0.375000
vt 0.500000 0.375000
vt 0.437500 0.375000
vt 0.375000 0.375000
vt 0.000000 0.000000
vt 0.000000 0.000000
vt 0.000000 0.000000
vt 0.500000 0.000000
vt 0.500000 0.250000
vt 0.625000 0.250000
vt 0.625000 0.000000
vt 0.375000 0.000000
vt 0.375000 0.250000
vt 0.437500 0.250000
vt 0.437500 0.000000
vt 0.500000 1.000000
vt 0.625000 1.000000
vt 0.375000 0.875000
vt 0.375000 1.000000
vt 0.437500 1.000000
vt 0.875000 0.750000
vt 0.875000 0.500000
vt 0.437500 1.000000
vt 0.500000 1.000000
vt 0.125000 0.500000
vt 0.125000 0.750000
vt 0.250000 0.750000
vt 0.250000 0.500000
vt 0.375000 0.375000
vt 0.000000 0.000000
vt 0.000000 0.000000
vt 0.000000 0.000000
vt 0.000000 0.000000
vt 0.000000 0.000000
vt 0.000000 0.000000
vt 0.000000 0.000000
vt 0.000000 0.000000
vt 0.000000 0.000000
vn -0.9874 0.1584 -0.0019
vn -0.8010 -0.5986 0.0056
vn 0.1148 -0.0672 0.9911
vn 0.2679 0.2593 0.9279
vn -0.1693 0.9854 -0.0161
vn 0.2163 0.0134 0.9762
vn -0.2140 -0.9768 0.0092
vn -0.2195 0.3826 -0.8975
vn -0.3128 -0.3027 -0.9003
vn 0.0000 0.0000 1.0000
vn 0.9874 0.1584 -0.0019
vn 0.8010 -0.5986 0.0056
vn -0.1148 -0.0672 0.9911
vn -0.2679 0.2593 0.9279
vn 0.1693 0.9854 -0.0161
vn -0.2163 0.0134 0.9762
vn 0.2140 -0.9768 0.0092
vn 0.2195 0.3826 -0.8975
vn 0.3128 -0.3027 -0.9003
vn -0.3083 -0.0608 -0.9494
vn -0.9672 -0.2539 0.0024
vn 0.3083 -0.0608 -0.9494
vn 0.9672 -0.2539 0.0024
usemtl Material.001
s off
f 8/1/1 2/2/1 4/3/1 7/4/1
f 1/5/2 14/6/2 13/7/2 3/8/2
f 6/9/3 12/10/3 2/11/3 8/12/3
f 11/13/4 15/14/4 14/15/4 1/16/4
f 10/17/5 4/18/5 2/19/5 12/20/5
f 20/21/6 19/22/6 18/23/6 17/24/6
f 3/25/7 9/26/7 11/27/7 1/28/7
f 7/4/8 4/3/8 10/29/8 5/30/8
f 3/8/9 13/7/9 16/31/9 9/32/9
f 17/24/10 18/23/10 8/12/10 14/15/10
f 18/23/10 19/22/10 6/9/10 8/12/10
f 19/22/10 20/21/10 15/14/10 6/9/10
f 20/21/10 17/24/10 14/15/10 15/14/10
f 17/33/10 18/34/10 14/35/10
f 26/36/11 25/37/11 24/38/11 22/39/11
f 21/40/12 23/41/12 29/42/12 30/43/12
f 6/9/13 26/44/13 22/45/13 12/10/13
f 28/46/14 21/47/14 30/48/14 15/14/14
f 10/17/15 12/20/15 22/49/15 24/50/15
f 20/21/16 31/51/16 32/52/16 19/22/16
f 23/53/17 21/54/17 28/55/17 27/56/17
f 25/37/18 5/30/18 10/29/18 24/38/18
f 23/41/19 27/57/19 16/31/19 29/42/19
f 31/51/10 30/48/10 26/44/10 32/52/10
f 32/52/10 26/44/10 6/9/10 19/22/10
f 20/21/10 15/14/10 30/48/10 31/51/10
f 31/58/10 30/59/10 32/60/10
usemtl Material.002
f 13/7/20 7/4/20 5/30/20 16/31/20
f 14/35/21 7/61/21 13/62/21
f 8/63/21 7/61/21 14/35/21
f 29/42/22 16/31/22 5/30/22 25/37/22
f 30/59/23 29/64/23 25/65/23
f 26/66/23 30/59/23 25/65/23
