# Blender v3.3.0 OBJ File: ''
# www.blender.org
mtllib spear.mtl
o Cylinder
v 0.021316 1.890697 -0.003131
v 0.000000 1.890839 -0.079409
v 0.000000 2.116473 0.000000
v 0.028284 1.794460 -0.028284
v 0.000000 1.794460 -0.040000
v 0.040000 1.794460 0.000000
v 0.000000 1.794460 0.040000
v 0.028284 1.794460 0.028284
v 0.000000 1.890839 0.079409
v -0.021316 1.890697 -0.003131
v -0.028284 1.794460 -0.028284
v -0.040000 1.794460 0.000000
v -0.028284 1.794460 0.028284
v 0.000000 -0.519291 -0.040000
v 0.028284 -0.519291 -0.028284
v 0.040000 -0.519291 -0.000000
v 0.028284 -0.519291 0.028284
v 0.000000 -0.519291 0.040000
v -0.028284 -0.519291 -0.028284
v -0.040000 -0.519291 -0.000000
v -0.028284 -0.519291 0.028284
vt 0.875000 1.000000
vt 1.000000 1.000000
vt 0.875000 1.000000
vt 0.875000 1.000000
vt 1.000000 1.000000
vt 0.000000 0.000000
vt 0.000000 0.000000
vt 0.000000 0.000000
vt 0.500000 1.000000
vt 0.625000 1.000000
vt 0.625000 1.000000
vt 0.500000 1.000000
vt 0.000000 0.000000
vt 0.500000 1.000000
vt 0.875000 1.000000
vt 0.875000 1.000000
vt 0.000000 0.000000
vt 0.000000 0.000000
vt 0.000000 0.000000
vt 0.625000 1.000000
vt 0.625000 1.000000
vt 0.000000 0.000000
vt 1.000000 0.500000
vt 0.875000 0.500000
vt 0.750000 1.000000
vt 0.750000 0.500000
vt 0.625000 0.500000
vt 0.500000 0.500000
vt 0.875000 0.500000
vt 0.750000 0.500000
vt 0.750000 1.000000
vt 0.625000 0.500000
vn 0.9589 0.0942 -0.2678
vn 0.8711 -0.0048 -0.4910
vn 0.9113 0.1646 -0.3775
vn 0.8849 0.0127 0.4656
vn 0.9073 0.1884 0.3758
vn 0.9645 0.0876 0.2489
vn -0.9589 0.0942 -0.2678
vn -0.8711 -0.0048 -0.4910
vn -0.9113 0.1646 -0.3775
vn -0.8849 0.0127 0.4656
vn -0.9073 0.1884 0.3758
vn -0.9645 0.0876 0.2489
vn 0.3827 0.0000 -0.9239
vn 0.9239 0.0000 -0.3827
vn 0.9239 -0.0000 0.3827
vn 0.3827 -0.0000 0.9239
vn -0.3827 0.0000 -0.9239
vn -0.9239 0.0000 -0.3827
vn -0.9239 -0.0000 0.3827
vn -0.3827 -0.0000 0.9239
usemtl Material.001
s 1
f 1/1/1 2/2/1 3/3/1
f 4/4/2 5/5/2 2/2/2 1/1/2
f 4/6/3 1/7/3 6/8/3
f 7/9/4 8/10/4 1/11/4 9/12/4
f 1/7/5 8/13/5 6/8/5
f 9/12/6 1/11/6 3/14/6
f 10/15/7 3/3/7 2/2/7
f 11/16/8 10/15/8 2/2/8 5/5/8
f 11/17/9 12/18/9 10/19/9
f 7/9/10 9/12/10 10/20/10 13/21/10
f 10/19/11 12/18/11 13/22/11
f 9/12/12 3/14/12 10/20/12
usemtl Material.002
f 14/23/13 5/5/13 4/4/13 15/24/13
f 15/24/14 4/4/14 6/25/14 16/26/14
f 16/26/15 6/25/15 8/10/15 17/27/15
f 17/27/16 8/10/16 7/9/16 18/28/16
f 14/23/17 19/29/17 11/16/17 5/5/17
f 19/29/18 20/30/18 12/31/18 11/16/18
f 20/30/19 21/32/19 13/21/19 12/31/19
f 21/32/20 18/28/20 7/9/20 13/21/20
