# Blender v3.3.1 OBJ File: ''
# www.blender.org
mtllib spear.mtl
o Cylinder
v 0.000000 -0.692712 -0.040000
v 0.000000 0.854089 -0.040000
v 0.028284 -0.692712 -0.028284
v 0.028284 0.854089 -0.028284
v 0.040000 -0.692712 0.000000
v 0.040000 0.854089 0.000000
v 0.028284 -0.692712 0.028284
v 0.028284 0.854089 0.028284
v 0.000000 -0.692712 0.040000
v 0.000000 0.854089 0.040000
v -0.028284 -0.692712 0.028284
v -0.028284 0.854089 0.028284
v -0.040000 -0.692712 0.000000
v -0.040000 0.854089 0.000000
v -0.028284 -0.692712 -0.028284
v -0.028284 0.854089 -0.028284
v -0.000000 0.950468 -0.079409
v 0.056151 0.950468 -0.056151
v 0.079409 0.950468 0.000000
v 0.056151 0.950468 0.056151
v -0.000000 0.950468 0.079409
v -0.056151 0.950468 0.056151
v -0.079409 0.950468 0.000000
v -0.056151 0.950468 -0.056151
v -0.000000 1.176102 0.000000
vt 0.375000 1.000000
vt 0.500000 1.000000
vt 0.500000 1.000000
vt 0.375000 1.000000
vt 0.875000 1.000000
vt 1.000000 1.000000
vt 0.875000 1.000000
vt 0.000000 1.000000
vt 0.125000 1.000000
vt 0.125000 1.000000
vt 0.000000 1.000000
vt 0.875000 1.000000
vt 1.000000 1.000000
vt 0.625000 1.000000
vt 0.750000 1.000000
vt 0.750000 1.000000
vt 0.625000 1.000000
vt 0.250000 1.000000
vt 0.250000 1.000000
vt 0.000000 1.000000
vt 0.250000 1.000000
vt 0.500000 1.000000
vt 0.750000 1.000000
vt 0.125000 1.000000
vt 0.375000 1.000000
vt 0.625000 1.000000
vt 1.000000 0.500000
vt 0.875000 0.500000
vt 0.750000 0.500000
vt 0.625000 0.500000
vt 0.500000 0.500000
vt 0.375000 0.500000
vt 0.250000 0.500000
vt 0.125000 0.500000
vt 0.000000 0.500000
vt 0.750000 0.490000
vt 0.919706 0.419706
vt 0.990000 0.250000
vt 0.919706 0.080294
vt 0.750000 0.010000
vt 0.580294 0.080294
vt 0.510000 0.250000
vt 0.580294 0.419706
vn -0.3580 -0.3534 0.8643
vn 0.3639 0.3092 -0.8786
vn -0.3580 -0.3534 -0.8643
vn 0.3580 -0.3534 -0.8643
vn 0.8643 -0.3534 0.3580
vn -0.8643 -0.3534 0.3580
vn 0.3580 -0.3534 0.8643
vn -0.8643 -0.3534 -0.3580
vn 0.8643 -0.3534 -0.3580
vn -0.3639 0.3092 -0.8786
vn -0.8786 0.3092 0.3639
vn 0.3639 0.3092 0.8786
vn 0.8786 0.3092 -0.3639
vn -0.8786 0.3092 -0.3639
vn -0.3639 0.3092 0.8786
vn 0.8786 0.3092 0.3639
vn 0.3827 0.0000 -0.9239
vn 0.9239 0.0000 -0.3827
vn 0.9239 0.0000 0.3827
vn 0.3827 0.0000 0.9239
vn -0.3827 0.0000 0.9239
vn -0.9239 0.0000 0.3827
vn -0.9239 0.0000 -0.3827
vn -0.3827 0.0000 -0.9239
vn 0.0000 -1.0000 0.0000
usemtl Material.001
s off
f 12/1/1 10/2/1 21/3/1 22/4/1
f 18/5/2 17/6/2 25/7/2
f 2/8/3 16/9/3 24/10/3 17/11/3
f 4/12/4 2/13/4 17/6/4 18/5/4
f 8/14/5 6/15/5 19/16/5 20/17/5
f 14/18/6 12/1/6 22/4/6 23/19/6
f 10/2/7 8/14/7 20/17/7 21/3/7
f 16/9/8 14/18/8 23/19/8 24/10/8
f 6/15/9 4/12/9 18/5/9 19/16/9
f 17/11/10 24/10/10 25/20/10
f 23/19/11 22/4/11 25/21/11
f 21/3/12 20/17/12 25/22/12
f 19/16/13 18/5/13 25/23/13
f 24/10/14 23/19/14 25/24/14
f 22/4/15 21/3/15 25/25/15
f 20/17/16 19/16/16 25/26/16
usemtl Material.002
f 1/27/17 2/13/17 4/12/17 3/28/17
f 3/28/18 4/12/18 6/15/18 5/29/18
f 5/29/19 6/15/19 8/14/19 7/30/19
f 7/30/20 8/14/20 10/2/20 9/31/20
f 9/31/21 10/2/21 12/1/21 11/32/21
f 11/32/22 12/1/22 14/18/22 13/33/22
f 13/33/23 14/18/23 16/9/23 15/34/23
f 15/34/24 16/9/24 2/8/24 1/35/24
f 1/36/25 3/37/25 5/38/25 7/39/25 9/40/25 11/41/25 13/42/25 15/43/25
