# Blender v3.3.0 OBJ File: ''
# www.blender.org
mtllib warhammer.mtl
o Cylinder.001
v -0.018909 0.618871 0.000000
v -0.013371 0.618871 0.013371
v 0.013371 0.618871 0.013371
v 0.018909 0.618871 0.000000
v 0.000000 0.618871 0.018909
v -0.013371 0.618871 -0.013371
v 0.013371 0.618871 -0.013371
v 0.000000 0.618871 -0.018909
v -0.021714 -0.654109 -0.000000
v -0.015354 -0.654109 -0.015354
v 0.000000 -0.654109 -0.021714
v 0.015354 -0.654109 -0.015354
v 0.021713 -0.654109 -0.000000
v -0.015354 -0.654109 0.015354
v 0.000000 -0.654109 0.021714
v 0.015354 -0.654109 0.015354
v 0.000000 0.589043 0.192550
v -0.023445 0.611440 0.137106
v -0.023445 0.637187 0.137106
v 0.023714 0.611440 0.137106
v 0.023714 0.637187 0.137106
v -0.052600 0.602024 -0.148607
v -0.052600 0.693829 -0.148607
v 0.052870 0.602024 -0.148607
v 0.052870 0.693829 -0.148607
v 0.039867 0.688951 -0.037665
v 0.039867 0.618558 -0.037665
v 0.030188 0.688760 0.071697
v 0.030188 0.618238 0.071697
v -0.039597 0.688951 -0.037665
v -0.039597 0.618558 -0.037665
v -0.029918 0.688760 0.071697
v -0.029918 0.618238 0.071697
v 0.041141 0.689428 -0.048530
v 0.041141 0.616938 -0.048530
v -0.040871 0.616938 -0.048530
v -0.040871 0.689428 -0.048530
v -0.030646 0.618262 0.060286
v -0.030646 0.688774 0.060286
v 0.030916 0.688774 0.060286
v 0.030916 0.618262 0.060286
v 0.051245 0.693220 -0.134745
v -0.050976 0.604090 -0.134745
v 0.051245 0.604090 -0.134745
v -0.050976 0.693220 -0.134745
vt 0.625000 0.500000
vt 0.875000 0.500000
vt 0.875000 0.750000
vt 0.625000 0.750000
vt 0.375000 0.250000
vt 0.625000 0.250000
vt 0.375000 0.250000
vt 0.375000 0.250000
vt 0.625000 0.250000
vt 0.375000 1.000000
vt 0.625000 1.000000
vt 0.375000 1.000000
vt 0.375000 0.750000
vt 0.625000 0.750000
vt 0.625000 0.750000
vt 0.375000 0.750000
vt 0.375000 0.500000
vt 0.125000 0.500000
vt 0.375000 0.500000
vt 0.375000 0.500000
vt 0.125000 0.500000
vt 0.125000 0.518797
vt 0.375000 0.518797
vt 0.375000 0.750000
vt 0.125000 0.750000
vt 0.375000 0.750000
vt 0.375000 1.000000
vt 0.625000 1.000000
vt 0.625000 0.231203
vt 0.625000 0.000000
vt 0.625000 0.500000
vt 0.393797 0.500000
vt 0.375000 0.750000
vt 0.625000 0.750000
vt 0.625000 0.981203
vt 0.375000 0.981203
vt 0.375000 0.000000
vt 0.375000 0.231203
vt 0.625000 0.500000
vt 0.375000 0.500000
vt 0.375000 0.500000
vt 0.625000 0.500000
vt 0.625000 0.750000
vt 0.375000 0.750000
vt 0.375000 0.750000
vt 0.625000 0.750000
vt 0.125000 0.750000
vt 0.375000 0.750000
vt 0.375000 0.750000
vt 0.125000 0.750000
vt 0.625000 0.000000
vt 0.375000 0.000000
vt 0.375000 0.000000
vt 0.625000 0.000000
vt 0.375000 0.000000
vt 0.625000 0.000000
vt 0.375000 0.750000
vt 0.125000 0.750000
vt 0.375000 0.750000
vt 0.375000 0.500000
vt 0.625000 0.500000
vt 0.375000 0.500000
vt 1.000000 0.500000
vt 1.000000 1.000000
vt 0.875000 1.000000
vt 0.875000 0.500000
vt 0.750000 1.000000
vt 0.750000 0.500000
vt 0.625000 1.000000
vt 0.625000 0.500000
vt 0.500000 1.000000
vt 0.500000 0.500000
vt 0.875000 0.500000
vt 0.875000 1.000000
vt 0.750000 0.500000
vt 0.750000 1.000000
vt 0.625000 0.500000
vt 0.625000 1.000000
vn 0.0000 -0.0000 -1.0000
vn 0.9799 0.0395 0.1958
vn 0.9806 0.0284 0.1941
vn 0.9707 0.1029 0.2172
vn 0.9951 0.0000 0.0985
vn 0.0052 -0.8765 -0.4814
vn -0.0051 -0.8765 -0.4815
vn 0.0002 -0.8764 -0.4816
vn 0.0000 0.7853 0.6192
vn -0.9814 0.0285 0.1901
vn -0.9806 0.0395 0.1918
vn -0.9715 0.1031 0.2133
vn -0.9951 0.0000 0.0985
vn -0.9959 -0.0000 0.0910
vn -0.0074 0.8271 0.5620
vn 0.0075 0.8271 0.5620
vn 0.0002 0.8273 0.5618
vn 0.0000 -0.9946 -0.1034
vn 0.0000 1.0000 0.0018
vn 0.0000 -1.0000 -0.0030
vn 0.9958 0.0000 0.0910
vn 0.0000 0.9990 0.0439
vn 0.0000 -0.9891 0.1474
vn -0.9932 0.0000 0.1164
vn 0.9932 0.0000 0.1164
vn 0.9980 0.0000 0.0637
vn 0.0000 -1.0000 -0.0021
vn 0.0000 1.0000 0.0013
vn -0.9980 0.0000 0.0637
vn -0.9239 0.0020 -0.3827
vn -0.3827 0.0020 -0.9239
vn 0.3827 0.0020 -0.9239
vn 0.9239 0.0020 -0.3826
vn -0.9239 0.0020 0.3827
vn -0.3827 0.0020 0.9239
vn 0.3827 0.0020 0.9239
vn 0.9239 0.0020 0.3826
usemtl Material.004
s off
f 22/1/1 23/2/1 25/3/1 24/4/1
f 20/5/2 21/6/3 17/7/4
f 29/8/5 28/9/5 21/6/5 20/5/5
f 18/10/6 20/11/7 17/12/8
f 28/13/9 32/14/9 19/15/9 21/16/9
f 19/17/10 18/18/11 17/19/12
f 32/20/13 33/21/13 18/18/13 19/17/13
f 38/22/14 39/23/14 30/24/14 31/25/14
f 21/16/15 19/15/16 17/26/17
f 33/27/18 29/28/18 20/11/18 18/10/18
f 40/29/19 26/30/19 30/31/19 39/32/19
f 31/33/20 27/34/20 41/35/20 38/36/20
f 27/37/21 26/30/21 40/29/21 41/38/21
f 37/39/22 34/40/22 42/41/22 45/42/22
f 35/43/23 36/44/23 43/45/23 44/46/23
f 36/47/24 37/48/24 45/49/24 43/50/24
f 34/51/25 35/52/25 44/53/25 42/54/25
usemtl Material.002
f 41/38/26 40/29/26 28/9/26 29/8/26
f 42/54/25 44/53/25 24/55/25 25/56/25
f 43/50/24 45/49/24 23/57/24 22/58/24
f 44/46/23 43/45/23 22/59/23 24/4/23
f 38/36/27 41/35/27 29/28/27 33/27/27
f 45/42/22 42/41/22 25/60/22 23/61/22
f 30/31/22 26/62/22 34/40/22 37/39/22
f 27/34/23 31/33/23 36/44/23 35/43/23
f 31/25/24 30/24/24 37/48/24 36/47/24
f 26/30/25 27/37/25 35/52/25 34/51/25
f 28/9/28 40/29/28 39/32/28 32/20/28
f 33/21/29 32/20/29 39/23/29 38/22/29
usemtl Material.001
f 9/63/30 1/64/30 6/65/30 10/66/30
f 10/66/31 6/65/31 8/67/31 11/68/31
f 11/68/32 8/67/32 7/69/32 12/70/32
f 12/70/33 7/69/33 4/71/33 13/72/33
f 9/63/34 14/73/34 2/74/34 1/64/34
f 14/73/35 15/75/35 5/76/35 2/74/35
f 15/75/36 16/77/36 3/78/36 5/76/36
f 16/77/37 13/72/37 4/71/37 3/78/37
