# Blender v3.3.0 OBJ File: ''
# www.blender.org
mtllib tower.mtl
o Cube.009
v 1.665886 -1.000000 -1.388110
v 1.665886 -1.000000 -1.597001
v 1.665886 4.422976 -1.596997
v 1.665886 4.422976 -1.388106
v 1.390241 -1.000000 -1.597001
v 1.390241 -1.000000 -1.388110
v 1.665886 -1.000000 1.619963
v 1.390241 -1.000000 1.619963
v 1.390241 -1.000000 1.422466
v 1.665886 -1.000000 1.422466
v 1.390241 4.422976 1.619967
v 1.665886 4.422976 1.619967
v 1.665886 4.422976 1.422470
v 1.390241 4.422976 1.422470
v 1.390241 4.422976 -1.388106
v 1.390241 4.422976 -1.596997
v -1.642924 2.609389 -1.597000
v -1.642924 2.609389 1.619964
v -1.642924 3.321477 1.619966
v -1.642924 3.321477 -1.596998
v -1.446375 2.607150 -1.400452
v 1.469337 2.607150 -1.400452
v 1.469337 3.319238 -1.400449
v -1.446375 3.319238 -1.400449
v 1.469337 2.607150 1.423414
v -1.446375 2.607150 1.423414
v -1.446375 3.319238 1.423417
v 1.469337 3.319238 1.423417
v 1.665886 2.609389 1.619964
v 1.665886 2.609389 -1.597000
v 1.665886 3.321477 -1.596998
v 1.665886 3.321477 1.619966
v -1.642924 -1.000000 -1.388110
v -1.642924 4.422976 -1.388106
v -1.642924 4.422976 -1.596997
v -1.642924 -1.000000 -1.597001
v -1.367279 -1.000000 -1.597001
v -1.367279 -1.000000 -1.388110
v -1.642924 -1.000000 1.619963
v -1.642924 -1.000000 1.422466
v -1.367279 -1.000000 1.422466
v -1.367279 -1.000000 1.619963
v -1.367279 4.422976 1.619967
v -1.367279 4.422976 1.422470
v -1.642924 4.422976 1.422470
v -1.642924 4.422976 1.619967
v -1.367279 4.422976 -1.596997
v -1.367279 4.422976 -1.388106
v 1.469337 2.607150 1.423414
v 1.469337 2.607150 -1.400452
v -1.446375 2.607150 -1.400452
v -1.446375 2.607150 1.423414
v 0.011481 5.825658 0.011485
v -1.690320 1.984102 1.661809
v 1.709021 1.984102 1.661809
v -1.690320 1.984103 -1.643174
v 1.698027 2.815484 1.651214
v -1.675065 2.815485 -1.628249
v 1.709021 1.984103 -1.643174
v -1.675065 2.815484 1.651214
v 1.698027 2.815485 -1.628249
v 1.665886 3.321477 -1.596998
v 1.665886 3.321477 1.619966
v 1.469337 3.319238 -1.400449
v -1.642924 3.321477 1.619966
v 1.469337 3.319238 1.423417
v -1.446375 3.319238 1.423417
v -1.446375 3.319238 -1.400449
v -1.642924 3.321477 -1.596998
v 1.935776 4.199237 -1.860419
v 1.935776 4.199236 1.882347
v -1.913848 4.199237 -1.860419
v -1.913848 4.199236 1.882347
vt 0.375000 0.500000
vt 0.375000 0.500000
vt 0.625000 0.500000
vt 0.625000 0.500000
vt 0.375000 0.500000
vt 0.375000 0.500000
vt 0.375000 0.750000
vt 0.375000 0.750000
vt 0.375000 0.750000
vt 0.375000 0.750000
vt 0.625000 0.750000
vt 0.625000 0.750000
vt 0.625000 0.750000
vt 0.625000 0.750000
vt 0.625000 0.500000
vt 0.625000 0.500000
vt 0.625000 0.250000
vt 0.625000 0.000000
vt 0.625000 0.000000
vt 0.625000 0.250000
vt 0.875000 0.500000
vt 0.625000 0.500000
vt 0.625000 0.500000
vt 0.875000 0.500000
vt 0.625000 0.750000
vt 0.875000 0.750000
vt 0.875000 0.750000
vt 0.625000 0.750000
vt 0.625000 0.750000
vt 0.625000 0.500000
vt 0.625000 0.500000
vt 0.625000 0.750000
vt 0.625000 1.000000
vt 0.625000 1.000000
vt 0.625000 0.250000
vt 0.625000 0.000000
vt 0.625000 1.000000
vt 0.375000 0.500000
vt 0.625000 0.500000
vt 0.625000 0.500000
vt 0.375000 0.500000
vt 0.375000 0.500000
vt 0.375000 0.500000
vt 0.375000 0.750000
vt 0.375000 0.750000
vt 0.375000 0.750000
vt 0.375000 0.750000
vt 0.625000 0.750000
vt 0.625000 0.750000
vt 0.625000 0.750000
vt 0.625000 0.750000
vt 0.625000 0.500000
vt 0.625000 0.500000
vt 0.875000 0.750000
vt 0.875000 0.500000
vt 0.625000 0.500000
vt 0.625000 0.750000
vt 0.000000 0.000000
vt 0.000000 0.000000
vt 0.000000 0.000000
vt 0.000000 0.000000
vt 0.000000 0.000000
vt 0.000000 0.000000
vt 0.000000 0.000000
vt 0.000000 0.000000
vt 0.000000 0.000000
vt 0.000000 0.000000
vt 0.000000 0.000000
vt 0.000000 0.000000
vt 0.000000 0.000000
vt 0.000000 0.000000
vt 0.000000 0.000000
vt 0.000000 0.000000
vt 0.000000 0.000000
vn 1.0000 0.0000 0.0000
vn 0.0000 -1.0000 0.0000
vn 0.0000 1.0000 0.0000
vn 0.0000 -0.0000 1.0000
vn -1.0000 -0.0000 0.0000
vn 0.0000 0.0000 -1.0000
vn 0.0000 0.9999 -0.0114
vn 0.0000 0.9999 0.0114
vn -0.0114 0.9999 0.0000
vn 0.0114 0.9999 0.0000
vn 0.6467 0.7627 0.0000
vn 0.0000 0.7537 -0.6572
vn -0.6467 0.7627 0.0000
vn 0.0000 0.7537 0.6572
vn 0.0000 0.7622 -0.6474
vn 0.6382 0.7699 0.0000
vn 0.0000 0.7609 0.6489
vn -0.6368 0.7711 0.0000
vn 0.0000 0.0179 -0.9998
vn -0.9998 0.0183 0.0000
vn 0.9999 0.0132 0.0000
vn 0.0000 0.0127 0.9999
usemtl Material.008
s 1
f 1/1/1 2/2/1 3/3/1 4/4/1
f 5/5/2 2/2/2 1/1/2 6/6/2
f 7/7/2 8/8/2 9/9/2 10/10/2
f 11/11/3 12/12/3 13/13/3 14/14/3
f 8/8/4 7/7/4 12/12/4 11/11/4
f 10/10/1 13/13/1 12/12/1 7/7/1
f 6/6/5 15/15/5 16/16/5 5/5/5
f 3/3/3 16/16/3 15/15/3 4/4/3
f 5/5/6 16/16/6 3/3/6 2/2/6
f 9/9/6 14/14/6 13/13/6 10/10/6
f 6/6/4 1/1/4 4/4/4 15/15/4
f 9/9/5 8/8/5 11/11/5 14/14/5
f 17/17/5 18/18/5 19/19/5 20/20/5
f 21/21/4 22/22/4 23/23/4 24/24/4
f 25/25/6 26/26/6 27/27/6 28/28/6
f 29/29/1 30/30/1 31/31/1 32/32/1
f 19/33/7 32/32/7 28/28/7 27/34/7
f 31/31/8 20/20/8 24/35/8 23/23/8
f 32/32/9 31/31/9 23/23/9 28/28/9
f 20/20/10 19/19/10 27/36/10 24/35/10
f 18/37/4 29/29/4 32/32/4 19/33/4
f 30/30/6 17/17/6 20/20/6 31/31/6
f 22/22/5 25/25/5 28/28/5 23/23/5
f 26/26/1 21/21/1 24/24/1 27/27/1
f 33/38/5 34/39/5 35/40/5 36/41/5
f 37/42/2 38/43/2 33/38/2 36/41/2
f 39/44/2 40/45/2 41/46/2 42/47/2
f 43/48/3 44/49/3 45/50/3 46/51/3
f 42/47/4 43/48/4 46/51/4 39/44/4
f 40/45/5 39/44/5 46/51/5 45/50/5
f 38/43/1 37/42/1 47/52/1 48/53/1
f 35/40/3 34/39/3 48/53/3 47/52/3
f 37/42/6 36/41/6 35/40/6 47/52/6
f 41/46/6 40/45/6 45/50/6 44/49/6
f 38/43/4 48/53/4 34/39/4 33/38/4
f 41/46/1 44/49/1 43/48/1 42/47/1
f 49/54/3 50/55/3 51/56/3 52/57/3 25/25/3 26/26/3
usemtl Material.009
s off
f 12/58/11 3/59/11 53/60/11
f 35/61/12 53/60/12 3/59/12
f 46/62/13 53/60/13 35/61/13
f 46/62/14 12/58/14 53/60/14
f 35/61/15 3/59/15 70/63/15 72/64/15
f 3/59/16 12/58/16 71/65/16 70/63/16
f 12/58/17 46/62/17 73/66/17 71/65/17
f 46/62/18 35/61/18 72/64/18 73/66/18
usemtl Material.001
f 61/67/19 59/68/19 56/69/19 58/70/19
f 58/70/20 56/69/20 54/71/20 60/72/20
f 61/67/21 57/73/21 55/74/21 59/68/21
f 57/73/22 60/72/22 54/71/22 55/74/22
l 64 68
l 52 49
l 61 62
l 62 63
l 62 64
l 60 65
l 66 49
l 67 66
l 68 67
l 62 69
l 63 65
l 63 66
l 64 66
l 58 69
l 57 63
l 67 65
l 65 69
l 68 69
l 50 64
l 52 67
l 68 51
