# Blender v3.3.0 OBJ File: ''
# www.blender.org
mtllib stable.mtl
o Cube.006
v -0.972936 2.987475 -1.623183
v 0.027190 1.797906 -0.377188
v 0.027190 1.820588 -2.903481
v -2.503692 2.997029 -1.623719
v -3.477391 1.820588 -2.903481
v -3.477391 1.797907 -0.377188
v -3.477342 1.689873 -2.902680
v 0.027238 1.689871 -2.902680
v 0.027941 -0.219973 -2.890976
v -3.476640 -0.219972 -2.890976
v -1.423768 1.667190 -0.376387
v -3.477342 1.667191 -0.376387
v -3.476640 -0.242653 -0.364683
v -1.423065 -0.242654 -0.364683
v -3.477342 1.667191 -0.376387
v -3.476640 -0.242653 -0.364683
v 0.027240 1.667189 -0.376387
v 0.027941 -0.242655 -0.364684
v -3.815586 1.541129 -3.265238
v 0.339140 1.541255 -3.265219
v -3.852843 1.511621 -0.031509
v 0.337736 1.511786 -0.031484
v 0.027240 1.667189 -0.376387
v 0.027941 -0.242655 -0.364684
v -1.414381 -0.242654 -0.364683
v -0.104363 1.667190 -0.376387
v -0.095679 1.667190 -0.376387
v -1.415084 1.667190 -0.376387
v -0.103661 -0.242654 -0.364683
v -0.094977 -0.242654 -0.364683
v -1.414381 -0.242315 -0.249415
v -1.415084 1.667529 -0.261119
v -1.335983 1.588459 -0.260634
v -1.335338 -0.163245 -0.249900
v -1.335338 -0.164307 -0.423177
v -1.335983 1.587397 -0.433912
v -0.095679 1.667529 -0.261119
v -0.094977 -0.242316 -0.249415
v -0.174077 -0.163245 -0.249900
v -0.174722 1.588458 -0.260634
v -0.174722 1.587396 -0.433912
v -0.174077 -0.164307 -0.423177
v -3.570881 -0.241003 3.045864
v -3.570881 -0.241003 -2.977379
v -3.570881 1.000000 -2.977379
v -3.570881 1.000000 3.045864
v 3.339257 -0.241003 -2.977379
v 3.339257 -0.241003 2.897652
v 3.339257 1.000000 2.897652
v 3.339257 1.000000 -2.977379
v 3.487950 -0.242587 3.046344
v 3.487950 0.827264 3.046344
v -3.719573 0.827264 3.046344
v -3.719573 -0.242587 3.046344
v 3.487950 -0.242583 -3.126071
v 3.487950 0.827268 -3.126071
v -3.719573 -0.242583 -3.126071
v -3.719573 0.827268 -3.126071
v -3.719573 1.000000 3.046344
v -3.719573 1.000000 -3.126071
v 3.487950 1.000000 -3.126071
v 3.487950 1.000000 3.046344
v 1.819508 0.827264 3.046344
v 1.819508 -0.242587 3.046344
v 1.819507 -0.241003 2.897652
v 1.819507 1.000000 2.897652
v 1.819508 1.000000 3.046344
v 3.339257 -0.241003 2.495534
v 3.487950 -0.242587 2.495366
v 3.487950 1.000000 2.495366
v 3.339257 1.000000 2.495535
v 3.487950 0.827264 2.495366
v 3.487950 -0.242584 -2.505950
v 3.339257 1.000000 -2.506116
v 3.487950 0.827267 -2.505950
v 3.339257 -0.241003 -2.506116
v 3.487950 1.000000 -2.505950
v 3.487950 -0.242584 -2.694824
v 3.339257 1.000000 -2.694452
v 3.487950 0.827267 -2.694824
v 3.339257 -0.241003 -2.694452
v 3.487950 1.000000 -2.694824
v 3.339257 -0.241003 2.640885
v 3.487950 1.000000 2.642356
v 3.487950 -0.242587 2.642356
v 3.339257 1.000000 2.640885
v 3.487950 0.827264 2.642356
v 3.339257 1.754938 2.640885
v 3.339257 1.754938 2.495535
v 3.487950 1.754938 2.495366
v 3.487950 1.754939 -2.694824
v 3.487950 1.754939 -2.505950
v 3.339257 1.754939 -2.506116
v 3.339257 1.754939 -2.694452
v 3.487950 1.754938 2.642356
v 1.887829 2.465168 2.640886
v 1.887829 2.465168 2.495535
v 1.909682 2.525171 2.495367
v 1.909682 2.525172 -2.694823
v 1.909682 2.525172 -2.505950
v 1.887829 2.465169 -2.506115
v 1.887829 2.465169 -2.694452
v 1.909682 2.525171 2.642357
v 1.272138 2.267623 2.495535
v 1.293990 2.327625 2.495367
v 1.272138 2.267624 -2.506115
v 1.293990 2.327626 -2.505950
v 3.339257 -0.241003 -1.013561
v 3.339257 -0.241003 -0.806260
v 3.339257 -0.241003 0.982541
v 3.339257 -0.241003 1.212631
v 3.487950 1.000000 -1.013463
v 3.487950 1.000000 -0.806227
v 3.487950 1.000000 0.982507
v 3.487950 1.000000 1.212530
v 3.487950 -0.242587 1.212529
v 3.487950 -0.242586 0.982506
v 3.487950 -0.242585 -0.806228
v 3.487950 -0.242584 -1.013463
v 3.339257 1.000000 1.212631
v 3.339257 1.000000 0.982541
v 3.339257 1.000000 -0.806260
v 3.339257 1.000000 -1.013561
v 3.487950 0.827264 1.212530
v 3.487950 0.827265 0.982506
v 3.487950 0.827266 -0.806228
v 3.487950 0.827267 -1.013463
v 1.864617 -0.241003 -1.013561
v 1.864617 -0.241003 -0.806260
v 1.864617 -0.241003 0.982541
v 1.864617 -0.241003 1.212631
v 1.864617 1.000000 1.212631
v 1.864617 1.000000 0.982541
v 1.864617 1.000000 -0.806260
v 1.864617 1.000000 -1.013561
vt 0.000000 0.000000
vt 0.000000 0.000000
vt 0.000000 0.000000
vt 0.000000 0.000000
vt 0.000000 0.000000
vt 0.000000 0.000000
vt 0.000000 0.000000
vt 0.000000 0.000000
vt 0.000000 0.000000
vt 0.000000 0.000000
vt 0.000000 0.000000
vt 0.000000 0.000000
vt 0.000000 0.000000
vt 0.000000 0.000000
vt 0.000000 0.000000
vt 0.000000 0.000000
vt 0.000000 0.000000
vt 0.000000 0.000000
vt 0.000000 0.000000
vt 0.000000 0.000000
vt 0.000000 0.000000
vt 0.000000 0.000000
vt 0.000000 0.000000
vt 0.000000 0.000000
vt 0.000000 0.000000
vt 0.000000 0.000000
vt 0.000000 0.000000
vt 0.000000 0.000000
vt 0.000000 0.000000
vt 0.000000 0.000000
vt 0.000000 0.000000
vt 0.000000 0.000000
vt 0.000000 0.000000
vt 0.000000 0.000000
vt 0.000000 0.000000
vt 0.000000 0.000000
vt 0.000000 0.000000
vt 0.000000 0.000000
vt 0.000000 0.000000
vt 0.000000 0.000000
vt 0.000000 0.000000
vt 0.000000 0.000000
vt 0.000000 0.000000
vt 0.000000 0.000000
vt 0.000000 0.000000
vt 0.000000 0.000000
vt 0.625000 0.747117
vt 0.625000 0.744618
vt 0.625000 0.744618
vt 0.625000 0.747117
vt 0.633388 0.508979
vt 0.633388 0.512350
vt 0.633388 0.512350
vt 0.633388 0.508979
vt 0.625000 0.744618
vt 0.625000 0.747117
vt 0.625000 0.506648
vt 0.625000 0.506648
vt 0.625000 0.503107
vt 0.625000 0.503107
vt 0.633388 0.738855
vt 0.633388 0.738855
vt 0.633388 0.741233
vt 0.633388 0.741233
vt 0.633388 0.508979
vt 0.633388 0.512350
vt 0.625000 0.506648
vt 0.625000 0.503107
vt 0.633388 0.738855
vt 0.633388 0.741233
vt 0.625000 0.506648
vt 0.633388 0.512350
vt 0.633388 0.738855
vt 0.625000 0.744618
vt 0.000000 0.000000
vt 0.000000 0.000000
vt 0.000000 0.000000
vt 0.000000 0.000000
vt 0.000000 0.000000
vt 0.000000 0.000000
vt 0.000000 0.000000
vt 0.000000 0.000000
vt 0.000000 0.000000
vt 0.000000 0.000000
vt 0.000000 0.000000
vt 0.000000 0.000000
vt 0.866612 0.743978
vt 0.866612 0.506022
vt 0.866612 0.506022
vt 0.866612 0.743978
vt 0.633388 0.741233
vt 0.633388 0.743977
vt 0.633388 0.743977
vt 0.375000 0.747117
vt 0.590247 0.747117
vt 0.590247 0.750000
vt 0.375000 0.750000
vt 0.375000 0.250000
vt 0.590247 0.250000
vt 0.590247 0.500000
vt 0.375000 0.500000
vt 0.375000 0.000000
vt 0.590247 0.000000
vt 0.633388 0.506022
vt 0.633388 0.506022
vt 0.590247 0.875000
vt 0.375000 0.875000
vt 0.750000 0.743978
vt 0.750000 0.743978
vt 0.875000 0.750000
vt 0.625000 0.875000
vt 0.375000 0.697024
vt 0.590247 0.697024
vt 0.590247 0.744618
vt 0.375000 0.744618
vt 0.633388 0.693554
vt 0.633388 0.738855
vt 0.633388 0.693554
vt 0.633388 0.508979
vt 0.633388 0.512350
vt 0.375000 0.503107
vt 0.590247 0.503107
vt 0.590247 0.506648
vt 0.375000 0.506648
vt 0.633388 0.557651
vt 0.633388 0.557651
vt 0.633388 0.557651
vt 0.633388 0.557651
vt 0.633388 0.602952
vt 0.633388 0.648253
vt 0.633388 0.648253
vt 0.633388 0.602952
vt 0.633388 0.648253
vt 0.633388 0.648253
vt 0.590247 0.554242
vt 0.375000 0.554242
vt 0.590247 0.601836
vt 0.375000 0.601836
vt 0.590247 0.649430
vt 0.375000 0.649430
vt 0.633388 0.602952
vt 0.633388 0.602952
vt 0.633388 0.693554
vt 0.633388 0.693554
vt 0.625000 0.000000
vt 0.625000 0.250000
vt 0.625000 0.500000
vt 0.625000 0.750000
vt 0.875000 0.500000
vt 0.750000 0.750000
vt 0.625000 0.697024
vt 0.625000 0.554242
vt 0.625000 0.601836
vt 0.625000 0.649430
vn 0.4386 0.8987 0.0000
vn 0.9396 -0.3422 -0.0000
vn -0.3055 0.9522 0.0000
vn 0.0000 -1.0000 -0.0000
vn 0.7624 0.6471 0.0058
vn -0.2616 0.9651 0.0108
vn -0.4087 0.8063 -0.4277
vn -0.4107 0.7967 0.4433
vn 0.0019 0.9999 0.0121
vn 0.0015 0.7376 -0.6752
vn 0.0013 0.7220 0.6919
vn 0.0000 -0.0061 -1.0000
vn 0.0000 0.0061 1.0000
vn -1.0000 -0.0004 -0.0000
vn 1.0000 0.0004 0.0000
vn -0.0035 -0.9133 0.4073
vn 0.0028 -0.9133 0.4073
vn 0.0069 -0.9135 0.4067
vn -0.0088 -0.9137 0.4063
vn 0.3474 -0.9377 0.0108
vn 0.3545 -0.9351 0.0008
vn 0.3498 -0.9368 0.0009
vn 0.3452 -0.9383 0.0218
vn -0.3928 -0.9196 -0.0030
vn -0.3830 -0.9237 0.0127
vn -0.3806 -0.9243 0.0279
vn -0.3859 -0.9225 -0.0024
vn 0.0000 0.0000 1.0000
vn -0.0000 0.0000 -1.0000
vn 0.0000 -0.8502 0.5265
vn 0.0000 0.9166 -0.3998
vn 1.0000 0.0000 0.0000
vn -1.0000 0.0000 0.0000
vn -0.0011 0.0000 1.0000
vn -0.0011 0.0000 -1.0000
vn -0.0025 0.0000 -1.0000
vn -0.0099 0.0000 1.0000
vn -0.9396 0.3422 0.0000
vn -0.0100 -0.0205 0.9997
vn -0.0025 -0.0052 -1.0000
vn -0.0011 -0.0023 1.0000
vn -0.0011 -0.0023 -1.0000
vn 0.0010 -0.0031 1.0000
vn 0.0010 -0.0032 -1.0000
vn -0.9972 0.0001 0.0751
vn 0.9972 -0.0001 -0.0751
vn -0.0000 -1.0000 0.0061
vn 0.0000 1.0000 -0.0061
vn 0.0032 -0.0000 1.0000
vn 0.0000 1.0000 0.0000
vn 0.2456 0.9497 0.1944
vn -0.2981 0.9260 0.2318
vn -0.3491 0.9151 0.2016
vn 0.3357 0.9336 0.1255
vn 0.2556 0.9661 -0.0373
vn 0.3581 0.7450 -0.5628
vn -0.1503 0.9814 -0.1191
vn -0.3943 0.7905 -0.4686
usemtl Material.005
s off
f 92/1/1 100/2/1 98/3/1 90/4/1
f 104/5/2 106/6/2 107/7/2 105/8/2
f 100/2/3 107/7/3 105/8/3 98/3/3
f 110/9/4 111/10/4 131/11/4 130/12/4
f 108/13/4 109/14/4 129/15/4 128/16/4
s 1
f 1/17/5 2/18/5 3/19/5
f 4/20/6 5/21/7 6/22/8
f 5/21/7 4/20/6 1/17/9 3/19/10
f 2/18/11 1/17/9 4/20/6 6/22/8
usemtl Material.003
s off
f 7/23/12 8/24/12 9/25/12 10/26/12
f 11/27/13 12/28/13 13/29/13 14/30/13
f 15/31/14 7/23/14 10/26/14 16/32/14
f 8/24/15 17/33/15 18/34/15 9/25/15
f 8/24/16 7/23/17 19/35/18 20/36/19
f 7/23/20 15/31/21 21/37/22 19/35/23
f 17/33/24 8/24/25 20/36/26 22/38/27
f 23/39/28 24/40/28 18/34/28 17/33/28
f 14/30/28 13/29/28 16/32/28 25/41/28
f 13/29/28 12/28/28 15/31/28 16/32/28
f 26/42/29 23/39/29 17/33/29 27/43/29
f 12/28/28 11/27/28 28/44/28 15/31/28
f 11/27/29 26/42/29 27/43/29 28/44/29
f 24/40/30 29/45/30 30/46/30 18/34/31
f 29/45/28 14/30/28 25/41/28 30/46/28
f 23/39/13 26/42/13 29/45/13 24/40/13
f 84/47/32 70/48/32 90/49/32 95/50/32
f 79/51/33 74/52/33 93/53/33 94/54/33
f 95/50/1 90/49/1 98/55/1 103/56/1
f 74/52/34 77/57/34 92/58/34 93/53/34
f 77/57/32 82/59/32 91/60/32 92/58/32
f 70/48/35 71/61/35 89/62/35 90/49/35
f 71/61/33 86/63/33 88/64/33 89/62/33
f 82/59/36 79/51/36 94/54/36 91/60/36
f 86/63/37 84/47/37 95/50/37 88/64/37
f 102/65/38 101/66/38 100/67/38 99/68/38
f 97/69/38 96/70/38 103/56/38 98/55/38
f 92/58/1 91/60/1 99/68/1 100/67/1
f 88/64/39 95/50/39 103/56/39 96/70/39
f 91/60/40 94/54/40 102/65/40 99/68/40
f 93/53/41 92/58/41 100/67/41 101/66/41
f 90/49/42 89/62/42 97/69/42 98/55/42
f 101/66/43 100/67/43 107/71/43 106/72/43
f 98/55/44 97/69/44 104/73/44 105/74/44
usemtl Material.001
f 11/27/45 14/30/45 31/75/45 32/76/45
f 33/77/15 34/78/15 35/79/15 36/80/15
f 29/45/46 26/42/46 37/81/46 38/82/46
f 39/83/13 34/78/13 31/75/13 38/82/13
f 33/77/13 40/84/13 37/81/13 32/76/13
f 40/84/13 39/83/13 38/82/13 37/81/13
f 34/78/13 33/77/13 32/76/13 31/75/13
f 40/84/47 33/77/47 36/80/47 41/85/47
f 39/83/14 40/84/14 41/85/14 42/86/14
f 34/78/48 39/83/48 42/86/48 35/79/48
f 43/87/32 44/88/32 45/89/32 46/90/32
f 83/91/33 48/92/33 49/93/33 86/63/33
f 85/94/32 87/95/32 52/96/32 51/97/32
f 57/98/29 58/99/29 56/100/29 55/101/29
f 54/102/33 53/103/33 58/99/33 57/98/33
f 45/89/28 44/88/28 47/104/28 50/105/28
f 51/97/28 52/96/28 63/106/28 64/107/28
f 48/92/29 65/108/29 66/109/29 49/93/29
f 46/90/49 59/110/49 53/103/49 54/102/49 43/87/49
f 66/109/33 65/108/33 64/107/33 63/106/33 67/111/33
f 116/112/32 124/113/32 72/114/32 69/115/32
f 111/116/33 68/117/33 71/61/33 120/118/33
f 81/119/33 76/120/33 74/52/33 79/51/33
f 78/121/32 80/122/32 75/123/32 73/124/32
f 55/101/32 56/100/32 80/122/32 78/121/32
f 47/104/33 81/119/33 79/51/33 50/105/33
f 69/115/32 72/114/32 87/95/32 85/94/32
f 68/117/33 83/91/33 86/63/33 71/61/33
f 76/120/33 108/125/33 123/126/33 74/52/33
f 123/126/29 108/125/29 128/127/29 135/128/29
f 109/129/33 110/130/33 121/131/33 122/132/33
f 121/131/29 110/130/29 130/133/29 133/134/29
f 73/124/32 75/123/32 127/135/32 119/136/32
f 119/136/32 127/135/32 126/137/32 118/138/32
f 118/138/32 126/137/32 125/139/32 117/140/32
f 117/140/32 125/139/32 124/113/32 116/112/32
f 128/127/33 129/141/33 134/142/33 135/128/33
f 130/133/33 131/143/33 132/144/33 133/134/33
f 111/116/28 120/118/28 132/144/28 131/143/28
f 109/129/28 122/132/28 134/142/28 129/141/28
f 122/132/50 123/126/50 135/128/50 134/142/50
f 120/118/50 121/131/50 133/134/50 132/144/50
usemtl Material.002
f 53/103/33 59/145/33 60/146/33 58/99/33
f 58/99/29 60/146/29 61/147/29 56/100/29
f 87/95/32 84/47/32 62/148/32 52/96/32
f 46/90/50 45/89/50 60/149/50 59/110/50
f 86/63/50 49/93/50 62/148/50 84/47/50
f 61/147/50 60/149/50 45/89/50 50/105/50
f 49/93/50 66/109/50 67/150/50 62/148/50
f 52/96/28 62/148/28 67/111/28 63/106/28
f 120/118/50 71/61/50 70/48/50 115/151/50
f 124/113/32 115/151/32 70/48/32 72/114/32
f 80/122/32 82/59/32 77/57/32 75/123/32
f 50/105/50 79/51/50 82/59/50 61/147/50
f 56/100/32 61/147/32 82/59/32 80/122/32
f 72/114/32 70/48/32 84/47/32 87/95/32
f 75/123/32 77/57/32 112/152/32 127/135/32
f 127/135/32 112/152/32 113/153/32 126/137/32
f 126/137/32 113/153/32 114/154/32 125/139/32
f 125/139/32 114/154/32 115/151/32 124/113/32
f 74/52/50 123/126/50 112/152/50 77/57/50
f 123/126/50 122/132/50 113/153/50 112/152/50
f 122/132/50 121/131/50 114/154/50 113/153/50
f 121/131/50 120/118/50 115/151/50 114/154/50
s 1
f 2/18/51 6/22/52 21/37/53 22/38/54
f 3/19/55 2/18/51 22/38/54 20/36/56
f 5/21/57 3/19/55 20/36/56 19/35/58
f 6/22/52 5/21/57 19/35/58 21/37/53
