# Blender v3.3.1 OBJ File: ''
# www.blender.org
mtllib canopy.mtl
o Cube.006
v 1.280298 -0.686993 -1.771420
v 1.280298 -0.686993 -1.980310
v 1.280298 1.820588 -1.980309
v 1.280298 1.820588 -1.771418
v 1.004653 -0.686993 -1.980310
v 1.004653 -0.686993 -1.771420
v 1.280298 -0.686993 1.977903
v 1.004653 -0.686993 1.977903
v 1.004653 -0.686993 1.780406
v 1.280298 -0.686993 1.780406
v 1.004653 1.820588 1.977905
v 1.280298 1.820588 1.977905
v 1.280298 1.820588 1.780408
v 1.004653 1.820588 1.780408
v 1.004653 1.820588 -1.771418
v 1.004653 1.820588 -1.980309
v -1.245995 -0.709675 -1.771420
v -1.245995 1.797907 -1.771418
v -1.245995 1.797907 -1.980309
v -1.245995 -0.709675 -1.980310
v -0.970350 -0.709675 -1.980310
v -0.970350 -0.709675 -1.771420
v -1.245995 -0.709675 1.977903
v -1.245995 -0.709675 1.780406
v -0.970350 -0.709675 1.780406
v -0.970350 -0.709675 1.977903
v -0.970350 1.797906 1.977905
v -0.970350 1.797906 1.780408
v -1.245995 1.797906 1.780408
v -1.245995 1.797906 1.977905
v -0.970350 1.797907 -1.980309
v -0.970350 1.797907 -1.771418
v 0.000000 2.987475 0.977779
v 0.000536 2.997029 -1.006610
vt 0.375000 0.500000
vt 0.375000 0.500000
vt 0.625000 0.500000
vt 0.625000 0.500000
vt 0.375000 0.500000
vt 0.375000 0.500000
vt 0.375000 0.750000
vt 0.375000 0.750000
vt 0.375000 0.750000
vt 0.375000 0.750000
vt 0.625000 0.750000
vt 0.625000 0.750000
vt 0.625000 0.750000
vt 0.625000 0.750000
vt 0.625000 0.500000
vt 0.625000 0.500000
vt 0.375000 0.500000
vt 0.625000 0.500000
vt 0.625000 0.500000
vt 0.375000 0.500000
vt 0.375000 0.500000
vt 0.375000 0.500000
vt 0.375000 0.750000
vt 0.375000 0.750000
vt 0.375000 0.750000
vt 0.375000 0.750000
vt 0.625000 0.750000
vt 0.625000 0.750000
vt 0.625000 0.750000
vt 0.625000 0.750000
vt 0.625000 0.500000
vt 0.625000 0.500000
vt 0.000000 0.000000
vt 0.000000 0.000000
vt 0.000000 0.000000
vt 0.000000 0.000000
vt 0.000000 0.000000
vt 0.000000 0.000000
vn 1.0000 0.0000 0.0000
vn 0.0000 -1.0000 0.0000
vn 0.0000 1.0000 0.0000
vn 0.0000 -0.0000 1.0000
vn -1.0000 -0.0000 0.0000
vn 0.0000 0.0000 -1.0000
vn -0.0058 0.6471 0.7624
vn -0.0108 0.9651 -0.2617
vn 0.4277 0.8062 -0.4088
vn -0.4433 0.7967 -0.4108
vn -0.0121 0.9999 0.0016
vn 0.6752 0.7376 0.0012
vn -0.6919 0.7220 0.0011
usemtl Material.003
s 1
f 1/1/1 2/2/1 3/3/1 4/4/1
f 5/5/2 2/2/2 1/1/2 6/6/2
f 7/7/2 8/8/2 9/9/2 10/10/2
f 11/11/3 12/12/3 13/13/3 14/14/3
f 8/8/4 7/7/4 12/12/4 11/11/4
f 10/10/1 13/13/1 12/12/1 7/7/1
f 6/6/5 15/15/5 16/16/5 5/5/5
f 3/3/3 16/16/3 15/15/3 4/4/3
f 5/5/6 16/16/6 3/3/6 2/2/6
f 9/9/6 14/14/6 13/13/6 10/10/6
f 6/6/4 1/1/4 4/4/4 15/15/4
f 9/9/5 8/8/5 11/11/5 14/14/5
f 17/17/5 18/18/5 19/19/5 20/20/5
f 21/21/2 22/22/2 17/17/2 20/20/2
f 23/23/2 24/24/2 25/25/2 26/26/2
f 27/27/3 28/28/3 29/29/3 30/30/3
f 26/26/4 27/27/4 30/30/4 23/23/4
f 24/24/5 23/23/5 30/30/5 29/29/5
f 22/22/1 21/21/1 31/31/1 32/32/1
f 19/19/3 18/18/3 32/32/3 31/31/3
f 21/21/6 20/20/6 19/19/6 31/31/6
f 25/25/6 24/24/6 29/29/6 28/28/6
f 22/22/4 32/32/4 18/18/4 17/17/4
f 25/25/1 28/28/1 27/27/1 26/26/1
usemtl Material.005
f 33/33/7 30/34/7 12/35/7
f 34/36/8 3/37/9 19/38/10
f 3/37/9 34/36/8 33/33/11 12/35/12
f 30/34/13 33/33/11 34/36/8 19/38/10
