# Blender v3.3.1 OBJ File: ''
# www.blender.org
mtllib target_practice.mtl
o Cylinder_Cylinder.001
v 0.000000 0.915227 -0.470085
v 0.500000 0.789332 -0.424263
v 0.866025 0.445381 -0.299075
v 1.000000 -0.024465 -0.128065
v 0.866025 -0.494312 0.042945
v 0.500000 -0.838263 0.168133
v 0.000000 -0.964158 0.213955
v -0.500000 -0.838263 0.168133
v -0.866025 -0.494312 0.042945
v -1.000000 -0.024465 -0.128065
v -0.866025 0.445381 -0.299075
v -0.500000 0.789332 -0.424263
v 0.166667 0.789332 -0.424263
v -0.166667 0.789332 -0.424263
v 0.166667 -0.838263 0.168133
v -0.166667 -0.838263 0.168133
v 0.166667 -0.936601 -0.815477
v -0.166667 -0.936601 -0.815477
v 0.166667 -0.949343 -0.050061
v -0.166667 -0.949343 -0.050061
v 0.776888 -1.231172 0.181129
v -0.769199 -1.231172 0.181129
v 0.776888 -1.210580 -1.055919
v -0.769199 -1.210580 -1.055919
v 0.000000 0.961839 -0.342020
v 0.500000 0.835944 -0.296198
v 0.866025 0.491993 -0.171010
v 1.000000 0.022147 0.000000
v 0.866025 -0.447700 0.171010
v 0.500000 -0.791651 0.296198
v 0.000000 -0.917546 0.342020
v -0.500000 -0.791651 0.296198
v -0.866025 -0.447700 0.171010
v -1.000000 0.022147 0.000000
v -0.866025 0.491993 -0.171010
v -0.500000 0.835944 -0.296198
v 0.109974 0.247752 0.062917
v -0.000000 0.275443 0.052838
v 0.190481 0.172101 0.090451
v 0.219949 0.068758 0.128065
v 0.190481 -0.034584 0.165678
v 0.109974 -0.110235 0.193213
v -0.000000 -0.137926 0.203292
v -0.109974 -0.110235 0.193213
v -0.190481 -0.034584 0.165678
v -0.219949 0.068758 0.128065
v -0.190481 0.172100 0.090451
v -0.109974 0.247752 0.062917
v 0.500000 0.882556 -0.168133
v 0.000000 1.008451 -0.213955
v 0.866025 0.538605 -0.042945
v 1.000000 0.068758 0.128065
v 0.866025 -0.401088 0.299075
v 0.500000 -0.745039 0.424263
v 0.000000 -0.870934 0.470085
v -0.500000 -0.745039 0.424263
v -0.866025 -0.401088 0.299075
v -1.000000 0.068758 0.128065
v -0.866025 0.538605 -0.042945
v -0.500000 0.882556 -0.168133
v 0.438142 0.781877 -0.131489
v 0.000000 0.892196 -0.171642
v 0.758885 0.480477 -0.021789
v 0.876284 0.068758 0.128065
v 0.758885 -0.342961 0.277918
v 0.438142 -0.644360 0.387619
v 0.000000 -0.754680 0.427772
v -0.438142 -0.644360 0.387619
v -0.758885 -0.342961 0.277918
v -0.876284 0.068758 0.128065
v -0.758885 0.480477 -0.021789
v -0.438142 0.781877 -0.131489
v 0.358215 0.651787 -0.084140
v 0.000000 0.741982 -0.116968
v 0.620446 0.405370 0.005548
v 0.716429 0.068758 0.128065
v 0.620446 -0.267853 0.250582
v 0.358215 -0.514270 0.340270
v 0.000000 -0.604465 0.373098
v -0.358215 -0.514270 0.340270
v -0.620446 -0.267853 0.250582
v -0.716429 0.068758 0.128065
v -0.620446 0.405370 0.005548
v -0.358215 0.651787 -0.084140
v 0.247903 0.472244 -0.018792
v 0.000000 0.534663 -0.041511
v 0.429380 0.301711 0.043277
v 0.495806 0.068758 0.128065
v 0.429380 -0.164194 0.212853
v 0.247903 -0.334727 0.274922
v 0.000000 -0.397146 0.297640
v -0.247903 -0.334727 0.274922
v -0.429380 -0.164194 0.212853
v -0.495806 0.068758 0.128065
v -0.429380 0.301711 0.043277
v -0.247903 0.472244 -0.018792
vt 0.000000 0.500000
vt 0.916667 0.500000
vt 0.000000 0.000000
vt 0.000000 0.000000
vt 0.083333 0.500000
vt 0.500000 0.500000
vt 0.416667 0.500000
vt 0.000000 0.000000
vt 0.000000 0.000000
vt 0.583333 0.500000
vt 0.083333 0.750000
vt 0.000000 0.750000
vt 0.333333 0.500000
vt 0.250000 0.500000
vt 0.166667 0.500000
vt 0.833333 0.500000
vt 0.750000 0.500000
vt 0.666667 0.500000
vt 0.000000 0.000000
vt 0.000000 0.000000
vt 0.000000 0.000000
vt 0.000000 0.000000
vt 0.000000 0.000000
vt 0.000000 0.000000
vt 0.166667 0.750000
vt 0.000000 0.000000
vt 0.000000 0.000000
vt 0.250000 0.750000
vt 0.333333 0.750000
vt 0.416667 0.750000
vt 0.500000 0.750000
vt 0.583333 0.750000
vt 0.666667 0.750000
vt 0.750000 0.750000
vt 0.833333 0.750000
vt 0.916667 0.750000
vt 1.000000 0.500000
vt 1.000000 0.750000
vt 1.000000 1.000000
vt 0.916667 1.000000
vt 0.833333 1.000000
vt 0.750000 1.000000
vt 0.666667 1.000000
vt 0.583333 1.000000
vt 0.500000 1.000000
vt 0.416667 1.000000
vt 0.333333 1.000000
vt 0.250000 1.000000
vt 0.166667 1.000000
vt 0.083333 1.000000
vt 0.000000 1.000000
vt 0.147260 1.000000
vt 0.769406 1.000000
vt 0.790190 1.000000
vt 0.722852 1.000000
vt 0.649226 1.000000
vt 0.573461 1.000000
vt 0.496795 1.000000
vt 0.419872 1.000000
vt 0.343206 1.000000
vt 0.267441 1.000000
vt 0.193815 1.000000
vt 0.126477 1.000000
vt 0.275030 1.000000
vt 0.641637 1.000000
vt 0.721632 1.000000
vt 0.683714 1.000000
vt 0.624406 1.000000
vt 0.559452 1.000000
vt 0.492251 1.000000
vt 0.424416 1.000000
vt 0.357215 1.000000
vt 0.292260 1.000000
vt 0.232953 1.000000
vt 0.195035 1.000000
vt 0.374903 1.000000
vt 0.541764 1.000000
vt 0.623049 1.000000
vt 0.620397 1.000000
vt 0.584454 1.000000
vt 0.536952 1.000000
vt 0.484955 1.000000
vt 0.431712 1.000000
vt 0.379715 1.000000
vt 0.332213 1.000000
vt 0.296270 1.000000
vt 0.293618 1.000000
vt 0.434127 1.000000
vt 0.482540 1.000000
vt 0.518582 1.000000
vt 0.530157 1.000000
vt 0.521329 1.000000
vt 0.500183 1.000000
vt 0.472896 1.000000
vt 0.443770 1.000000
vt 0.416484 1.000000
vt 0.395338 1.000000
vt 0.386510 1.000000
vt 0.398085 1.000000
vn 0.0000 -0.3420 -0.9397
vn -0.2588 0.9077 -0.3304
vn 0.0000 0.6596 -0.7516
vn 0.0000 0.2211 -0.9753
vn 1.0000 -0.0000 0.0000
vn -1.0000 -0.0000 0.0000
vn -0.7071 0.6645 -0.2418
vn 0.4145 0.9099 0.0151
vn 0.0000 0.6342 0.7731
vn -0.4189 0.9079 0.0151
vn -0.9659 0.2432 -0.0885
vn -0.9659 -0.2432 0.0885
vn -0.7071 -0.6645 0.2418
vn -0.2588 -0.9077 0.3304
vn 0.2588 -0.9077 0.3304
vn 0.7071 -0.6645 0.2418
vn 0.9659 -0.2432 0.0885
vn 0.9659 0.2432 -0.0885
vn 0.7071 0.6645 -0.2418
vn 0.2588 0.9077 -0.3304
vn -0.0000 0.3420 0.9397
usemtl Material.004
s off
f 1/1/1 2/2/1 13/3/1 14/4/1 12/5/1
f 7/6/1 8/7/1 16/8/1 15/9/1 6/10/1
f 12/5/2 36/11/2 25/12/2 1/1/2
f 9/13/1 10/14/1 11/15/1 12/5/1 14/4/1 16/8/1 8/7/1
f 2/2/1 3/16/1 4/17/1 5/18/1 6/10/1 15/9/1 13/3/1
f 17/19/3 23/20/3 24/21/3 18/22/3
f 13/3/4 17/19/4 18/22/4 14/4/4
f 15/9/5 19/23/5 17/19/5 13/3/5
f 14/4/6 18/22/6 20/24/6 16/8/6
f 11/15/7 35/25/7 36/11/7 12/5/7
f 19/23/8 21/26/8 23/20/8 17/19/8
f 20/24/9 22/27/9 21/26/9 19/23/9
f 18/22/10 24/21/10 22/27/10 20/24/10
f 10/14/11 34/28/11 35/25/11 11/15/11
f 9/13/12 33/29/12 34/28/12 10/14/12
f 8/7/13 32/30/13 33/29/13 9/13/13
f 7/6/14 31/31/14 32/30/14 8/7/14
f 6/10/15 30/32/15 31/31/15 7/6/15
f 5/18/16 29/33/16 30/32/16 6/10/16
f 4/17/17 28/34/17 29/33/17 5/18/17
f 3/16/18 27/35/18 28/34/18 4/17/18
f 2/2/19 26/36/19 27/35/19 3/16/19
f 1/37/20 25/38/20 26/36/20 2/2/20
usemtl Material.006
f 25/38/20 50/39/20 49/40/20 26/36/20
f 26/36/19 49/40/19 51/41/19 27/35/19
f 27/35/18 51/41/18 52/42/18 28/34/18
f 28/34/17 52/42/17 53/43/17 29/33/17
f 29/33/16 53/43/16 54/44/16 30/32/16
f 30/32/15 54/44/15 55/45/15 31/31/15
f 31/31/14 55/45/14 56/46/14 32/30/14
f 32/30/13 56/46/13 57/47/13 33/29/13
f 33/29/12 57/47/12 58/48/12 34/28/12
f 34/28/11 58/48/11 59/49/11 35/25/11
f 35/25/7 59/49/7 60/50/7 36/11/7
f 36/11/2 60/50/2 50/51/2 25/12/2
f 62/52/21 61/53/21 49/40/21 50/51/21
f 61/53/21 63/54/21 51/41/21 49/40/21
f 63/54/21 64/55/21 52/42/21 51/41/21
f 64/55/21 65/56/21 53/43/21 52/42/21
f 65/56/21 66/57/21 54/44/21 53/43/21
f 66/57/21 67/58/21 55/45/21 54/44/21
f 67/58/21 68/59/21 56/46/21 55/45/21
f 68/59/21 69/60/21 57/47/21 56/46/21
f 69/60/21 70/61/21 58/48/21 57/47/21
f 70/61/21 71/62/21 59/49/21 58/48/21
f 71/62/21 72/63/21 60/50/21 59/49/21
f 72/63/21 62/52/21 50/51/21 60/50/21
usemtl Material.007
f 74/64/21 73/65/21 61/53/21 62/52/21
f 73/65/21 75/66/21 63/54/21 61/53/21
f 75/66/21 76/67/21 64/55/21 63/54/21
f 76/67/21 77/68/21 65/56/21 64/55/21
f 77/68/21 78/69/21 66/57/21 65/56/21
f 78/69/21 79/70/21 67/58/21 66/57/21
f 79/70/21 80/71/21 68/59/21 67/58/21
f 80/71/21 81/72/21 69/60/21 68/59/21
f 81/72/21 82/73/21 70/61/21 69/60/21
f 82/73/21 83/74/21 71/62/21 70/61/21
f 83/74/21 84/75/21 72/63/21 71/62/21
f 84/75/21 74/64/21 62/52/21 72/63/21
usemtl Material.008
f 86/76/21 85/77/21 73/65/21 74/64/21
f 85/77/21 87/78/21 75/66/21 73/65/21
f 87/78/21 88/79/21 76/67/21 75/66/21
f 88/79/21 89/80/21 77/68/21 76/67/21
f 89/80/21 90/81/21 78/69/21 77/68/21
f 90/81/21 91/82/21 79/70/21 78/69/21
f 91/82/21 92/83/21 80/71/21 79/70/21
f 92/83/21 93/84/21 81/72/21 80/71/21
f 93/84/21 94/85/21 82/73/21 81/72/21
f 94/85/21 95/86/21 83/74/21 82/73/21
f 95/86/21 96/87/21 84/75/21 83/74/21
f 96/87/21 86/76/21 74/64/21 84/75/21
usemtl Material.009
f 38/88/21 37/89/21 85/77/21 86/76/21
f 37/89/21 39/90/21 87/78/21 85/77/21
f 39/90/21 40/91/21 88/79/21 87/78/21
f 40/91/21 41/92/21 89/80/21 88/79/21
f 41/92/21 42/93/21 90/81/21 89/80/21
f 42/93/21 43/94/21 91/82/21 90/81/21
f 43/94/21 44/95/21 92/83/21 91/82/21
f 44/95/21 45/96/21 93/84/21 92/83/21
f 45/96/21 46/97/21 94/85/21 93/84/21
f 46/97/21 47/98/21 95/86/21 94/85/21
f 47/98/21 48/99/21 96/87/21 95/86/21
f 48/99/21 38/88/21 86/76/21 96/87/21
usemtl Material.010
f 37/89/21 38/88/21 48/99/21 47/98/21 46/97/21 45/96/21 44/95/21 43/94/21 42/93/21 41/92/21 40/91/21 39/90/21
