# Blender v3.3.1 OBJ File: ''
# www.blender.org
mtllib healing_camp.mtl
o Cube_Cube.004
v 0.000000 2.268722 -1.488053
v 0.000000 3.692654 0.000002
v 0.744027 2.268722 -1.288692
v 1.288692 2.268722 -0.744027
v 1.488053 2.268722 0.000000
v 1.288692 2.268722 0.744027
v 0.744027 2.268722 1.288692
v -0.512631 2.268722 1.651497
v 0.001116 2.256491 1.902939
v -0.744027 2.268722 1.288692
v -1.094775 0.021435 1.896207
v -0.834838 -0.219451 2.344791
v -1.288692 2.268722 0.744027
v -1.488053 2.268722 0.000000
v -1.288692 2.268722 -0.744027
v -0.744027 2.268722 -1.288692
v 2.189551 0.021435 0.000000
v 1.896207 0.021435 -1.094775
v -1.896207 0.021435 -1.094775
v -2.189551 0.021435 0.000000
v 1.094775 0.021435 1.896207
v 1.896207 0.021435 1.094775
v 0.000000 0.021435 -2.189551
v -1.094775 0.021435 -1.896207
v 1.094775 0.021435 -1.896207
v -1.896207 0.021435 1.094775
v 0.512631 2.268722 1.651497
v 2.583923 -0.244199 0.035852
v 2.237743 -0.244199 -1.256109
v -2.237743 -0.244199 -1.256109
v -2.583923 -0.244199 0.035852
v 2.237743 -0.244199 1.327813
v -1.291961 -0.244199 -2.201891
v 1.291961 -0.244199 -2.201891
v 0.000000 -0.244199 -2.548071
v -2.237743 -0.244199 1.327813
v -1.291961 -0.244199 2.273595
v 1.291961 -0.244199 2.273595
v 0.834837 -0.219451 2.344791
v -0.635864 2.045806 1.957652
v 0.005193 2.030658 2.269032
v -1.596919 2.045806 0.833862
v -0.922418 2.045806 1.508362
v 0.633797 2.045806 1.957652
v 1.841737 2.045806 -0.087523
v 1.594852 2.045806 -1.008908
v -0.001033 2.045806 -1.930293
v -0.922418 2.045806 -1.683409
v -1.843803 2.045806 -0.087523
v 1.594852 2.045806 0.833862
v 0.920352 2.045806 -1.683409
v 0.920352 2.045806 1.508362
v -1.596919 2.045806 -1.008908
v -0.331951 2.258175 -1.023883
v -0.957229 -0.233681 -1.072448
v 0.331951 2.258175 -1.023883
v 0.962017 -0.233681 -1.072448
v -0.808074 2.263448 0.313807
v -1.713991 -0.226566 0.636171
v 1.717476 -0.226566 0.636171
v 0.806983 2.263448 0.313807
vt 0.250000 0.490000
vt 0.250000 0.250000
vt 0.370000 0.457846
vt 0.457846 0.370000
vt 0.490000 0.250000
vt 0.457846 0.130000
vt 0.370000 0.042154
vt 0.167320 0.032154
vt 0.250000 0.080805
vt 0.130000 0.042154
vt 0.130000 0.042154
vt 0.193810 0.025056
vt 0.042154 0.130000
vt 0.010000 0.250000
vt 0.042154 0.370000
vt 0.130000 0.457846
vt 0.490000 0.250000
vt 0.457846 0.370000
vt 0.042154 0.370000
vt 0.010000 0.250000
vt 0.370000 0.042154
vt 0.457846 0.130000
vt 0.250000 0.490000
vt 0.130000 0.457846
vt 0.370000 0.457846
vt 0.042154 0.130000
vt 0.332680 0.032154
vt 0.490000 0.250000
vt 0.457846 0.370000
vt 0.042154 0.370000
vt 0.010000 0.250000
vt 0.457846 0.130000
vt 0.130000 0.457846
vt 0.370000 0.457846
vt 0.250000 0.490000
vt 0.042154 0.130000
vt 0.130000 0.042154
vt 0.370000 0.042154
vt 0.306190 0.025056
vt 0.306190 0.025056
vt 0.332680 0.032154
vt 0.332680 0.032154
vt 0.306190 0.025056
vt 0.167320 0.032154
vt 0.193810 0.025056
vt 0.193810 0.025056
vt 0.167320 0.032154
vt 0.000000 0.000000
vt 0.000000 0.000000
vt 0.000000 0.000000
vt 0.000000 0.000000
vt 0.000000 0.000000
vt 0.000000 0.000000
vt 0.000000 0.000000
vt 0.167320 0.032154
vt 0.250000 0.080805
vt 0.042154 0.130000
vt 0.130000 0.042154
vt 0.332680 0.032154
vt 0.490000 0.250000
vt 0.457846 0.370000
vt 0.250000 0.490000
vt 0.130000 0.457846
vt 0.010000 0.250000
vt 0.457846 0.130000
vt 0.370000 0.457846
vt 0.370000 0.042154
vt 0.042154 0.370000
vn 0.1822 0.7104 -0.6798
vn 0.4976 0.7104 -0.4976
vn 0.6798 0.7104 -0.1822
vn 0.6798 0.7104 0.1822
vn 0.4977 0.7104 0.4977
vn -0.4141 0.7490 0.5172
vn -0.7881 0.2647 0.5558
vn -0.4977 0.7104 0.4976
vn -0.6798 0.7104 0.1822
vn -0.6798 0.7104 -0.1822
vn -0.4976 0.7104 -0.4976
vn -0.1822 0.7104 -0.6798
vn 0.9248 0.2887 -0.2478
vn -0.9248 0.2887 -0.2478
vn 0.6770 0.2887 0.6770
vn -0.2478 0.2887 -0.9248
vn 0.6770 0.2887 -0.6770
vn 0.2478 0.2887 -0.9248
vn -0.9248 0.2887 0.2478
vn 0.9248 0.2887 0.2478
vn -0.6770 0.2887 -0.6770
vn 0.4150 0.7488 0.5168
vn -0.6770 0.2887 0.6770
vn 0.5617 0.8136 -0.1505
vn -0.5617 0.8136 -0.1505
vn 0.5436 0.8266 0.1456
vn -0.4232 0.8011 -0.4232
vn 0.1575 0.7935 -0.5879
vn -0.3869 0.8370 0.3869
vn 0.3869 0.8370 0.3869
vn -0.1575 0.7935 -0.5879
vn 0.4232 0.8011 -0.4232
vn -0.5436 0.8266 0.1456
vn 0.7881 0.2647 0.5558
vn -0.1274 0.8412 0.5255
vn 0.1274 0.8412 0.5255
vn -0.8801 -0.2343 0.4129
vn -0.8571 -0.2829 0.4304
vn -0.8811 -0.3146 0.3531
vn -0.8748 -0.3118 0.3709
vn 0.9199 -0.2467 0.3048
vn 0.8644 -0.2746 0.4213
vn 0.8752 -0.3116 0.3700
vn 0.8815 -0.3142 0.3524
vn 0.7527 -0.1968 0.6282
vn -0.7528 -0.1964 0.6282
vn -0.6436 -0.1778 0.7444
vn 0.6434 -0.1787 0.7444
vn -0.0171 -0.9951 0.0974
vn 0.0171 -0.9951 0.0974
vn -0.0411 -0.9951 0.0897
vn -0.0089 -0.9949 0.1005
vn -0.0000 -0.9953 0.0972
vn 0.0089 -0.9949 0.1005
vn -0.0659 -0.9949 0.0768
vn 0.9071 -0.3175 -0.2762
vn 0.9099 -0.3110 -0.2746
vn 0.8654 -0.3470 -0.3616
vn 0.8693 -0.3531 -0.3457
vn -0.9103 -0.3106 -0.2738
vn -0.9075 -0.3172 -0.2753
vn -0.9258 -0.2210 -0.3067
vn -0.8822 -0.3414 -0.3242
vn -0.2298 0.8278 0.5118
vn -0.4390 0.7839 0.4390
vn 0.2318 0.8285 0.5098
vn 0.5042 0.8530 -0.1351
vn -0.1197 0.8867 -0.4467
vn -0.5510 0.8214 0.1476
vn 0.5533 0.8197 0.1483
vn 0.1198 0.8864 -0.4471
vn 0.5406 0.7674 0.3448
vn -0.5022 0.8542 -0.1346
vn 0.4404 0.7824 0.4404
vn 0.3417 0.8755 -0.3417
vn -0.3408 0.8762 -0.3408
vn -0.5385 0.7694 0.3435
usemtl Material.011
s off
f 1/1/1 2/2/1 3/3/1
f 3/3/2 2/2/2 4/4/2
f 4/4/3 2/2/3 5/5/3
f 5/5/4 2/2/4 6/6/4
f 6/6/5 2/2/5 7/7/5
f 8/8/6 9/9/6 2/2/6 10/10/6
f 8/8/7 10/10/7 11/11/7 12/12/7
f 10/10/8 2/2/8 13/13/8
f 13/13/9 2/2/9 14/14/9
f 14/14/10 2/2/10 15/15/10
f 15/15/11 2/2/11 16/16/11
f 16/16/12 2/2/12 1/1/12
f 4/4/13 5/5/13 17/17/13 18/18/13
f 14/14/14 15/15/14 19/19/14 20/20/14
f 6/6/15 7/7/15 21/21/15 22/22/15
f 16/16/16 1/1/16 23/23/16 24/24/16
f 3/3/17 4/4/17 18/18/17 25/25/17
f 1/1/18 3/3/18 25/25/18 23/23/18
f 13/13/19 14/14/19 20/20/19 26/26/19
f 5/5/20 6/6/20 22/22/20 17/17/20
f 15/15/21 16/16/21 24/24/21 19/19/21
f 7/7/22 2/2/22 9/9/22 27/27/22
f 10/10/23 13/13/23 26/26/23 11/11/23
f 18/18/24 17/17/24 28/28/24 29/29/24
f 20/20/25 19/19/25 30/30/25 31/31/25
f 17/17/26 22/22/26 32/32/26 28/28/26
f 19/19/27 24/24/27 33/33/27 30/30/27
f 23/23/28 25/25/28 34/34/28 35/35/28
f 11/11/29 26/26/29 36/36/29 37/37/29
f 22/22/30 21/21/30 38/38/30 32/32/30
f 24/24/31 23/23/31 35/35/31 33/33/31
f 25/25/32 18/18/32 29/29/32 34/34/32
f 26/26/33 20/20/33 31/31/33 36/36/33
f 7/7/34 27/27/34 39/39/34 21/21/34
f 37/37/35 12/12/35 11/11/35
f 21/21/36 39/39/36 38/38/36
f 60/40/37 61/41/38 56/42/39 57/43/40
f 58/44/41 59/45/42 55/46/43 54/47/44
f 55/46/45 57/43/46 56/42/47 54/47/48
f 54/48/49 56/49/50 61/50/51 27/51/52 9/52/53 8/53/54 58/54/55
f 8/8/56 12/12/57 59/45/58 58/44/59
f 39/39/60 27/27/61 61/41/62 60/40/63
usemtl Material.012
f 9/9/64 8/8/64 40/55/64 41/56/64
f 13/13/65 42/57/65 43/58/65 10/10/65
f 27/27/66 9/9/66 41/56/66 44/59/66
f 5/5/67 45/60/67 46/61/67 4/4/67
f 1/1/68 47/62/68 48/63/68 16/16/68
f 14/14/69 49/64/69 42/57/69 13/13/69
f 6/6/70 50/65/70 45/60/70 5/5/70
f 3/3/71 51/66/71 47/62/71 1/1/71
f 27/27/72 44/59/72 52/67/72 7/7/72
f 15/15/73 53/68/73 49/64/73 14/14/73
f 7/7/74 52/67/74 50/65/74 6/6/74
f 4/4/75 46/61/75 51/66/75 3/3/75
f 16/16/76 48/63/76 53/68/76 15/15/76
f 10/10/77 43/58/77 40/55/77 8/8/77
