# Blender v3.3.1 OBJ File: ''
# www.blender.org
mtllib tap.mtl
o Cylinder
v 0.000000 -0.025000 -1.000000
v 0.000000 0.025000 -1.000000
v 0.500000 -0.025000 -0.866025
v 0.500000 0.025000 -0.866025
v 0.866025 -0.025000 -0.500000
v 0.866025 0.025000 -0.500000
v 1.000000 -0.025000 0.000000
v 1.000000 0.025000 0.000000
v 0.866025 -0.025000 0.500000
v 0.866025 0.025000 0.500000
v 0.500000 -0.025000 0.866025
v 0.500000 0.025000 0.866025
v 0.000000 -0.025000 1.000000
v 0.000000 0.025000 1.000000
v -0.500000 -0.025000 0.866025
v -0.500000 0.025000 0.866025
v -0.866025 -0.025000 0.500000
v -0.866025 0.025000 0.500000
v -1.000000 -0.025000 0.000000
v -1.000000 0.025000 0.000000
v -0.866025 -0.025000 -0.500000
v -0.866025 0.025000 -0.500000
v -0.500000 -0.025000 -0.866025
v -0.500000 0.025000 -0.866025
v 0.000000 -0.022890 -0.853594
v 0.426797 -0.022890 -0.739234
v 0.426797 0.019790 -0.739234
v 0.000000 0.019790 -0.853594
v 0.739234 -0.022890 -0.426797
v 0.739234 0.019790 -0.426797
v 0.853594 -0.022890 0.000000
v 0.853594 0.019790 0.000000
v 0.739234 -0.022890 0.426797
v 0.739234 0.019790 0.426797
v 0.426797 -0.022890 0.739234
v 0.426797 0.019790 0.739234
v 0.000000 -0.022890 0.853594
v 0.000000 0.019790 0.853594
v -0.426797 -0.022890 0.739234
v -0.426797 0.019790 0.739234
v -0.739234 -0.022890 0.426797
v -0.739234 0.019790 0.426797
v -0.853594 -0.022890 0.000000
v -0.853594 0.019790 0.000000
v -0.739234 -0.022890 -0.426797
v -0.739234 0.019790 -0.426797
v -0.426797 -0.022890 -0.739234
v -0.426797 0.019790 -0.739234
vt 1.000000 0.500000
vt 0.916667 0.500000
vt 0.916667 1.000000
vt 1.000000 1.000000
vt 0.833333 0.500000
vt 0.833333 1.000000
vt 0.750000 0.500000
vt 0.750000 1.000000
vt 0.666667 0.500000
vt 0.666667 1.000000
vt 0.583333 0.500000
vt 0.583333 1.000000
vt 0.500000 0.500000
vt 0.500000 1.000000
vt 0.416667 0.500000
vt 0.416667 1.000000
vt 0.333333 0.500000
vt 0.333333 1.000000
vt 0.250000 0.500000
vt 0.250000 1.000000
vt 0.166667 0.500000
vt 0.166667 1.000000
vt 0.083333 0.500000
vt 0.083333 1.000000
vt 0.000000 0.500000
vt 0.000000 1.000000
vt 1.000000 0.500000
vt 1.000000 1.000000
vt 0.916667 1.000000
vt 0.916667 0.500000
vt 0.833333 1.000000
vt 0.833333 0.500000
vt 0.750000 1.000000
vt 0.750000 0.500000
vt 0.666667 1.000000
vt 0.666667 0.500000
vt 0.583333 1.000000
vt 0.583333 0.500000
vt 0.500000 1.000000
vt 0.500000 0.500000
vt 0.416667 1.000000
vt 0.416667 0.500000
vt 0.333333 1.000000
vt 0.333333 0.500000
vt 0.250000 1.000000
vt 0.250000 0.500000
vt 0.166667 1.000000
vt 0.166667 0.500000
vt 0.083333 1.000000
vt 0.083333 0.500000
vt 0.000000 1.000000
vt 0.000000 0.500000
vn -0.2588 0.0000 0.9659
vn -0.7071 0.0000 0.7071
vn -0.9659 0.0000 0.2588
vn -0.9659 0.0000 -0.2588
vn -0.7071 0.0000 -0.7071
vn -0.2588 0.0000 -0.9659
vn 0.2588 0.0000 -0.9659
vn 0.7071 0.0000 -0.7071
vn 0.9659 0.0000 -0.2588
vn 0.9659 0.0000 0.2588
vn 0.7071 0.0000 0.7071
vn 0.2588 0.0000 0.9659
vn 0.0356 -0.9993 -0.0095
vn -0.0260 -0.9993 0.0260
vn 0.0095 -0.9993 -0.0356
vn 0.0039 0.9999 0.0144
vn -0.0106 0.9999 -0.0106
vn 0.0095 -0.9993 0.0356
vn -0.0260 -0.9993 -0.0260
vn 0.0144 0.9999 0.0039
vn -0.0144 0.9999 0.0039
vn 0.0356 -0.9993 0.0095
vn -0.0356 -0.9993 0.0095
vn 0.0106 0.9999 -0.0106
vn -0.0039 0.9999 0.0144
vn -0.0039 0.9999 -0.0144
vn 0.0260 -0.9993 -0.0260
vn -0.0095 -0.9993 0.0356
vn -0.0095 -0.9993 -0.0356
vn 0.0106 0.9999 0.0106
vn -0.0144 0.9999 -0.0039
vn 0.0260 -0.9993 0.0260
vn -0.0356 -0.9993 -0.0095
vn 0.0144 0.9999 -0.0039
vn -0.0106 0.9999 0.0106
vn 0.0039 0.9999 -0.0144
usemtl None
s off
f 1/1/1 3/2/1 4/3/1 2/4/1
f 3/2/2 5/5/2 6/6/2 4/3/2
f 5/5/3 7/7/3 8/8/3 6/6/3
f 7/7/4 9/9/4 10/10/4 8/8/4
f 9/9/5 11/11/5 12/12/5 10/10/5
f 11/11/6 13/13/6 14/14/6 12/12/6
f 13/13/7 15/15/7 16/16/7 14/14/7
f 15/15/8 17/17/8 18/18/8 16/16/8
f 17/17/9 19/19/9 20/20/9 18/18/9
f 19/19/10 21/21/10 22/22/10 20/20/10
f 21/21/11 23/23/11 24/24/11 22/22/11
f 23/23/12 1/25/12 2/26/12 24/24/12
f 25/27/7 28/28/7 27/29/7 26/30/7
f 26/30/8 27/29/8 30/31/8 29/32/8
f 29/32/9 30/31/9 32/33/9 31/34/9
f 31/34/10 32/33/10 34/35/10 33/36/10
f 33/36/11 34/35/11 36/37/11 35/38/11
f 35/38/12 36/37/12 38/39/12 37/40/12
f 37/40/1 38/39/1 40/41/1 39/42/1
f 39/42/2 40/41/2 42/43/2 41/44/2
f 41/44/3 42/43/3 44/45/3 43/46/3
f 43/46/4 44/45/4 46/47/4 45/48/4
f 45/48/5 46/47/5 48/49/5 47/50/5
f 47/50/6 48/49/6 28/51/6 25/52/6
f 6/6/13 8/8/13 32/33/13 30/31/13
f 16/16/14 18/18/14 42/43/14 40/41/14
f 2/4/15 4/3/15 27/29/15 28/28/15
f 13/13/16 11/11/16 35/38/16 37/40/16
f 23/23/17 21/21/17 45/48/17 47/50/17
f 12/12/18 14/14/18 38/39/18 36/37/18
f 22/22/19 24/24/19 48/49/19 46/47/19
f 9/9/20 7/7/20 31/34/20 33/36/20
f 19/19/21 17/17/21 41/44/21 43/46/21
f 8/8/22 10/10/22 34/35/22 32/33/22
f 18/18/23 20/20/23 44/45/23 42/43/23
f 5/5/24 3/2/24 26/30/24 29/32/24
f 15/15/25 13/13/25 37/40/25 39/42/25
f 1/25/26 23/23/26 47/50/26 25/52/26
f 4/3/27 6/6/27 30/31/27 27/29/27
f 14/14/28 16/16/28 40/41/28 38/39/28
f 24/24/29 2/26/29 28/51/29 48/49/29
f 11/11/30 9/9/30 33/36/30 35/38/30
f 21/21/31 19/19/31 43/46/31 45/48/31
f 10/10/32 12/12/32 36/37/32 34/35/32
f 20/20/33 22/22/33 46/47/33 44/45/33
f 7/7/34 5/5/34 29/32/34 31/34/34
f 17/17/35 15/15/35 39/42/35 41/44/35
f 3/2/36 1/1/36 25/27/36 26/30/36
