# Blender v3.3.1 OBJ File: ''
# www.blender.org
mtllib shooting_range.mtl
o Cube.006
v 0.133779 2.987475 -1.623183
v 1.133905 1.797906 -0.377188
v 1.133905 1.820588 -2.903481
v -1.850610 2.997029 -1.623719
v -2.824309 1.820588 -2.903481
v -2.824309 1.797907 -0.377188
v -2.824260 1.689873 -2.902680
v 1.133953 1.689871 -2.902680
v 1.134656 -0.219973 -2.890976
v -2.823558 -0.219972 -2.890976
v -2.634952 1.667190 -0.376387
v -2.824260 1.667191 -0.376387
v -2.823558 -0.242653 -0.364683
v -2.634249 -0.242654 -0.364683
v -2.824260 1.667191 -0.376387
v -2.823558 -0.242653 -0.364683
v 1.133955 1.667189 -0.376387
v 1.134656 -0.242655 -0.364684
v -3.162504 1.541129 -3.265238
v 1.445855 1.541255 -3.265219
v -3.199761 1.511621 -0.031509
v 1.444451 1.511786 -0.031484
v 1.133955 1.667189 -0.376387
v 1.134656 -0.242655 -0.364684
v -2.625565 -0.242654 -0.364683
v -1.315547 1.667190 -0.376387
v -1.306863 1.667190 -0.376387
v -2.626268 1.667190 -0.376387
v -1.314845 -0.242654 -0.364683
v -1.306161 -0.242654 -0.364683
v -2.625565 -0.242315 -0.249415
v -2.626268 1.667529 -0.261119
v -2.547167 1.588459 -0.260634
v -2.546522 -0.163245 -0.249900
v -2.546522 -0.164307 -0.423177
v -2.547167 1.587397 -0.433912
v -1.306863 1.667529 -0.261119
v -1.306161 -0.242316 -0.249415
v -1.385261 -0.163245 -0.249900
v -1.385906 1.588458 -0.260634
v -1.385906 1.587396 -0.433912
v -1.385261 -0.164307 -0.423177
v -2.917799 -0.241003 2.897652
v -2.917799 -0.241003 -2.977379
v -2.917799 1.000000 -2.977379
v -2.917799 1.000000 2.897652
v 3.339257 -0.241003 -2.977379
v 3.339257 -0.241003 2.897652
v 3.339257 1.000000 2.897652
v 3.339257 1.000000 -2.977379
v 3.487950 -0.242587 3.046344
v 3.487950 0.827264 3.046344
v -3.066491 0.827264 3.046344
v -3.066491 -0.242587 3.046344
v 3.487950 -0.242584 -3.126071
v 3.487950 0.827267 -3.126071
v -3.066491 -0.242584 -3.126071
v -3.066491 0.827267 -3.126071
v -3.066491 1.000000 3.046344
v -3.066491 1.000000 -3.126071
v 3.487950 1.000000 -3.126071
v 3.487950 1.000000 3.046344
vt 0.000000 0.000000
vt 0.000000 0.000000
vt 0.000000 0.000000
vt 0.000000 0.000000
vt 0.000000 0.000000
vt 0.000000 0.000000
vt 0.000000 0.000000
vt 0.000000 0.000000
vt 0.000000 0.000000
vt 0.000000 0.000000
vt 0.000000 0.000000
vt 0.000000 0.000000
vt 0.000000 0.000000
vt 0.000000 0.000000
vt 0.000000 0.000000
vt 0.000000 0.000000
vt 0.000000 0.000000
vt 0.000000 0.000000
vt 0.000000 0.000000
vt 0.000000 0.000000
vt 0.000000 0.000000
vt 0.000000 0.000000
vt 0.000000 0.000000
vt 0.000000 0.000000
vt 0.000000 0.000000
vt 0.000000 0.000000
vt 0.000000 0.000000
vt 0.000000 0.000000
vt 0.000000 0.000000
vt 0.000000 0.000000
vt 0.000000 0.000000
vt 0.000000 0.000000
vt 0.000000 0.000000
vt 0.000000 0.000000
vt 0.000000 0.000000
vt 0.000000 0.000000
vt 0.000000 0.000000
vt 0.000000 0.000000
vt 0.000000 0.000000
vt 0.000000 0.000000
vt 0.000000 0.000000
vt 0.000000 0.000000
vt 0.866612 0.743978
vt 0.866612 0.506022
vt 0.866612 0.506022
vt 0.866612 0.743978
vt 0.633388 0.506022
vt 0.633388 0.743977
vt 0.633388 0.743977
vt 0.633388 0.506022
vt 0.375000 0.750000
vt 0.590247 0.750000
vt 0.590247 1.000000
vt 0.375000 1.000000
vt 0.375000 0.500000
vt 0.590247 0.500000
vt 0.375000 0.250000
vt 0.590247 0.250000
vt 0.375000 0.000000
vt 0.590247 0.000000
vt 0.625000 0.000000
vt 0.625000 0.250000
vt 0.625000 0.500000
vt 0.625000 0.750000
vt 0.625000 1.000000
vt 0.875000 0.500000
vt 0.875000 0.750000
vn 0.7624 0.6471 0.0058
vn -0.2617 0.9651 0.0108
vn -0.4088 0.8062 -0.4277
vn -0.4108 0.7967 0.4433
vn 0.0016 0.9999 0.0121
vn 0.0012 0.7376 -0.6752
vn 0.0011 0.7220 0.6919
vn 0.0000 -0.0061 -1.0000
vn 0.0000 0.0061 1.0000
vn -1.0000 -0.0004 -0.0000
vn 1.0000 0.0004 0.0000
vn -0.0035 -0.9133 0.4073
vn 0.0028 -0.9133 0.4073
vn 0.0069 -0.9135 0.4067
vn -0.0088 -0.9137 0.4063
vn 0.3474 -0.9377 0.0108
vn 0.3545 -0.9351 0.0008
vn 0.3498 -0.9368 0.0009
vn 0.3452 -0.9383 0.0218
vn -0.3928 -0.9196 -0.0030
vn -0.3830 -0.9237 0.0127
vn -0.3806 -0.9243 0.0279
vn -0.3859 -0.9225 -0.0024
vn 0.0000 0.0000 1.0000
vn 0.0000 0.0000 -1.0000
vn 0.0000 0.0715 0.9974
vn 0.0000 1.0000 0.0000
vn -0.9972 0.0001 0.0751
vn 0.9972 -0.0001 -0.0751
vn -0.0000 -1.0000 0.0061
vn 0.0000 1.0000 -0.0061
vn 1.0000 0.0000 0.0000
vn -1.0000 0.0000 0.0000
vn 0.2456 0.9497 0.1944
vn -0.2981 0.9260 0.2318
vn -0.3491 0.9151 0.2016
vn 0.3357 0.9336 0.1255
vn 0.2556 0.9661 -0.0373
vn 0.3581 0.7450 -0.5628
vn -0.1503 0.9814 -0.1191
vn -0.3943 0.7905 -0.4686
usemtl Material.005
s 1
f 1/1/1 2/2/1 3/3/1
f 4/4/2 5/5/3 6/6/4
f 5/5/3 4/4/2 1/1/5 3/3/6
f 2/2/7 1/1/5 4/4/2 6/6/4
usemtl Material.003
s off
f 7/7/8 8/8/8 9/9/8 10/10/8
f 11/11/9 12/12/9 13/13/9 14/14/9
f 15/15/10 7/7/10 10/10/10 16/16/10
f 8/8/11 17/17/11 18/18/11 9/9/11
f 8/8/12 7/7/13 19/19/14 20/20/15
f 7/7/16 15/15/17 21/21/18 19/19/19
f 17/17/20 8/8/21 20/20/22 22/22/23
f 23/23/24 24/24/24 18/18/24 17/17/24
f 14/14/25 13/13/25 16/16/25 25/25/25
f 13/13/24 12/12/24 15/15/24 16/16/24
f 26/26/24 23/23/24 17/17/24 27/27/24
f 12/12/24 11/11/24 28/28/24 15/15/24
f 11/11/24 26/26/24 27/27/24 28/28/24
f 24/24/26 29/29/26 30/30/26 18/18/27
f 29/29/24 14/14/24 25/25/24 30/30/24
f 23/23/9 26/26/9 29/29/9 24/24/9
usemtl Material.001
f 11/11/28 14/14/28 31/31/28 32/32/28
f 33/33/11 34/34/11 35/35/11 36/36/11
f 29/29/29 26/26/29 37/37/29 38/38/29
f 39/39/9 34/34/9 31/31/9 38/38/9
f 33/33/9 40/40/9 37/37/9 32/32/9
f 40/40/9 39/39/9 38/38/9 37/37/9
f 34/34/9 33/33/9 32/32/9 31/31/9
f 40/40/30 33/33/30 36/36/30 41/41/30
f 39/39/10 40/40/10 41/41/10 42/42/10
f 34/34/31 39/39/31 42/42/31 35/35/31
f 43/43/32 44/44/32 45/45/32 46/46/32
f 47/47/33 48/48/33 49/49/33 50/50/33
f 48/48/25 43/43/25 46/46/25 49/49/25
f 51/51/24 52/52/24 53/53/24 54/54/24
f 55/55/32 56/56/32 52/52/32 51/51/32
f 57/57/25 58/58/25 56/56/25 55/55/25
f 54/59/33 53/60/33 58/58/33 57/57/33
f 45/45/24 44/44/24 47/47/24 50/50/24
usemtl Material.002
f 53/60/33 59/61/33 60/62/33 58/58/33
f 58/58/25 60/62/25 61/63/25 56/56/25
f 56/56/32 61/63/32 62/64/32 52/52/32
f 52/52/24 62/64/24 59/65/24 53/53/24
f 46/46/27 45/45/27 60/66/27 59/67/27
f 50/50/27 49/49/27 62/64/27 61/63/27
f 49/49/27 46/46/27 59/67/27 62/64/27
f 61/63/27 60/66/27 45/45/27 50/50/27
s 1
f 2/2/34 6/6/35 21/21/36 22/22/37
f 3/3/38 2/2/34 22/22/37 20/20/39
f 5/5/40 3/3/38 20/20/39 19/19/41
f 6/6/35 5/5/40 19/19/41 21/21/36
